<svg id="Layer_1" data-name="Layer 1" xmlns="http://www.w3.org/2000/svg" viewBox="0 0 870 627.5">
  <defs>
    <style>
      .cls-1, .cls-3, .cls-4, .cls-5, .cls-7, .cls-8 {
        fill: none;
      }

      .cls-1 {
        stroke: #6e6e80;
        stroke-width: 1.25px;
        opacity: 0.3;
      }

      .cls-1, .cls-3, .cls-4, .cls-5 {
        stroke-miterlimit: 10;
      }

      .cls-2 {
        fill: #e6f3f3;
      }

      .cls-3, .cls-4, .cls-5 {
        stroke: #e6f3f3;
      }

      .cls-3 {
        stroke-width: 1.34px;
      }

      .cls-4 {
        stroke-width: 1.34px;
      }

      .cls-5 {
        stroke-width: 1.25px;
      }

      .cls-6 {
        fill: #68de7a;
      }

      .cls-7 {
        stroke: #68de7a;
        stroke-linecap: round;
        stroke-dasharray: 5 5;
        opacity: 0.75;
        isolation: isolate;
      }

      .cls-7, .cls-8 {
        stroke-linejoin: round;
        stroke-width: 1.5px;
      }

      .cls-8 {
        stroke: #27b5ea;
        stroke-linecap: square;
      }

      .cls-9 {
        fill: #27b5ea;
      }
    </style>
  </defs>
  <title>openai-spinning-up-black-lambada</title>
  <g>
    <line class="cls-1" x1="139.96" y1="127.87" x2="819.96" y2="127.87"/>
    <line class="cls-1" x1="139.96" y1="7.5" x2="819.96" y2="7.5"/>
    <line class="cls-1" x1="139.96" y1="67.68" x2="819.96" y2="67.68"/>
    <line class="cls-1" x1="139.96" y1="368.62" x2="819.96" y2="368.62"/>
    <line class="cls-1" x1="139.96" y1="428.8" x2="819.96" y2="428.8"/>
    <line class="cls-1" x1="139.96" y1="248.24" x2="819.96" y2="248.24"/>
    <line class="cls-1" x1="139.96" y1="308.43" x2="819.96" y2="308.43"/>
    <line class="cls-1" x1="139.96" y1="188.06" x2="819.96" y2="188.06"/>
    <line class="cls-1" x1="281.34" y1="488.99" x2="281.34" y2="7.5"/>
    <line class="cls-1" x1="388.27" y1="488.99" x2="388.27" y2="7.5"/>
    <line class="cls-1" x1="425.45" y1="488.99" x2="425.45" y2="7.5"/>
    <line class="cls-1" x1="464.13" y1="488.99" x2="464.13" y2="7.5"/>
    <line class="cls-1" x1="522.97" y1="488.99" x2="522.97" y2="7.5"/>
    <line class="cls-1" x1="571.05" y1="488.99" x2="571.05" y2="7.5"/>
    <line class="cls-1" x1="611.7" y1="488.99" x2="611.7" y2="7.5"/>
    <line class="cls-1" x1="633.88" y1="488.99" x2="633.88" y2="7.5"/>
    <line class="cls-1" x1="646.91" y1="488.99" x2="646.91" y2="7.5"/>
    <line class="cls-1" x1="677.97" y1="488.99" x2="677.97" y2="7.5"/>
    <line class="cls-1" x1="819.96" y1="488.99" x2="819.96" y2="7.5"/>
  </g>
  <g>
    <path class="cls-2" d="M60,295.91V298l-4.81,1.72v8.72l4.81,1.7v2.08l-18.9-7.1V303Zm-6.48,11.93v-7.53L43,304.06Z"/>
    <path class="cls-2" d="M54.22,292.21H51.9a5.77,5.77,0,0,1-6.08-6.13c0-3.48,2.27-5.75,5.18-5.91V282a3.83,3.83,0,0,0-3.56,4.05c0,2.83,1.84,4.16,4.43,4.16h2.37c2.59,0,4.43-1.33,4.43-4.16A3.83,3.83,0,0,0,55.11,282v-1.83c2.91.16,5.18,2.43,5.18,5.91A5.77,5.77,0,0,1,54.22,292.21Z"/>
    <path class="cls-2" d="M54.22,275.73H51.9a5.76,5.76,0,0,1-6.08-6.12c0-3.49,2.27-5.75,5.18-5.91v1.83a3.83,3.83,0,0,0-3.56,4.05c0,2.83,1.84,4.16,4.43,4.16h2.37c2.59,0,4.43-1.33,4.43-4.16a3.83,3.83,0,0,0-3.56-4.05V263.7c2.91.16,5.18,2.42,5.18,5.91A5.76,5.76,0,0,1,54.22,275.73Z"/>
    <path class="cls-2" d="M60,247.23v1.94H57.62c1.56.65,2.67,2.21,2.67,4.62,0,3-2.11,4.93-5.43,4.93H46.15v-2.05h8.42c2.35,0,4-1,4-3.4s-1.43-4-4.29-4H46.15v-2.05Z"/>
    <path class="cls-2" d="M46.15,241.5v-1.92h3.18c-2.13-.51-3.27-2-3.27-4.51v-.32H48v.41c0,2.61,1.73,4.29,5.21,4.29H60v2.05Z"/>
    <path class="cls-2" d="M60,222.06H58.24a5.86,5.86,0,0,1,2,4.75c0,3.27-1.84,5.24-4.35,5.24-2.67,0-4.32-2.19-4.32-5.48a6.06,6.06,0,0,1,1.73-4.43H50.79a3.2,3.2,0,0,0-3.35,3.46,3.49,3.49,0,0,0,2.08,3.45v1.89a5.23,5.23,0,0,1-3.7-5.37c0-3.43,2.24-5.48,5-5.48H60Zm-4,.08c-1.73,0-3,2.05-3,4.13,0,2.3,1.08,3.84,3,3.84s3-1.6,3-3.73S57.7,222.14,55.92,222.14Z"/>
    <path class="cls-2" d="M54.22,215.2H51.9a5.76,5.76,0,0,1-6.08-6.13c0-3.48,2.27-5.75,5.18-5.91V205a3.83,3.83,0,0,0-3.56,4.05c0,2.83,1.84,4.16,4.43,4.16h2.37c2.59,0,4.43-1.33,4.43-4.16A3.83,3.83,0,0,0,55.11,205v-1.84c2.91.16,5.18,2.43,5.18,5.91A5.76,5.76,0,0,1,54.22,215.2Z"/>
    <path class="cls-2" d="M64.66,196.36,60,194.6l-13.82,5.16v-2l11.74-4.21-11.74-4.05v-2L60,192.55l4.69,1.81Z"/>
  </g>
  <g>
    <path class="cls-2" d="M121.35,523.83l-3.21,1.52v-1.54l3.49-1.72H123V537.5h-1.69Z"/>
    <path class="cls-2" d="M129.6,523.83l-3.21,1.52v-1.54l3.49-1.72h1.41V537.5H129.6Z"/>
    <path class="cls-2" d="M143.3,523.48h-7.92v-1.39H145v1.19l-6.8,14.22h-1.69Z"/>
    <path class="cls-2" d="M162.18,537.5h-1.63V525.4l-4.24,8.38h-1.63l-4.25-8.38v12.1H148.8V522.09h1.61l5.08,10.17,5.08-10.17h1.61Z"/>
  </g>
  <g>
    <path class="cls-2" d="M398.18,522.09h9v1.39l-4.93,5.39h.6c2.84,0,4.84,1.72,4.84,4.34s-2.42,4.59-5.35,4.59c-2.64,0-5.08-1.58-5.19-4.51h1.56a3.36,3.36,0,0,0,3.65,3.15c2.22,0,3.68-1.36,3.68-3.19s-1.39-3.12-3.57-3.12h-2.09v-1.32l4.76-5.35h-6.94Z"/>
    <path class="cls-2" d="M418.34,533.82H411v-1.25l5.13-10.48h1.54l-5,10.46h5.66v-3.66h1.56v3.66H422v1.27H419.9v3.68h-1.56Z"/>
    <path class="cls-2" d="M425.09,533.71h1.61a3.53,3.53,0,0,0,3.6,2.71,3.66,3.66,0,0,0,3.9-3.79,3.62,3.62,0,0,0-3.68-3.74A4.24,4.24,0,0,0,427,530.7h-1.61l1.45-8.61h7.68v1.39h-6.34l-1,5.52a4.8,4.8,0,0,1,3.6-1.49,4.92,4.92,0,0,1,5,5.08,5.25,5.25,0,0,1-5.55,5.21A5,5,0,0,1,425.09,533.71Z"/>
    <path class="cls-2" d="M453.14,537.5h-1.63V525.4l-4.24,8.38h-1.63l-4.25-8.38v12.1h-1.63V522.09h1.61l5.08,10.17,5.09-10.17h1.6Z"/>
  </g>
  <g>
    <path class="cls-2" d="M615.16,523.48h-7.93v-1.39h9.66v1.19l-6.8,14.22H608.4Z"/>
    <path class="cls-2" d="M625.83,522.09l-4.47,6.8v0a3.8,3.8,0,0,1,3.1-1.37,4.8,4.8,0,0,1,4.84,5.06,5.24,5.24,0,0,1-5.37,5.19,5.07,5.07,0,0,1-5.37-5.12,8.54,8.54,0,0,1,1.63-4.53l3.83-6.06Zm-1.92,14.37a3.63,3.63,0,0,0,3.74-3.8,3.55,3.55,0,0,0-3.65-3.81,3.72,3.72,0,0,0-3.79,3.85A3.55,3.55,0,0,0,623.91,536.46Z"/>
    <path class="cls-2" d="M632.45,536.18l6.51-6.85a4.85,4.85,0,0,0,1.72-3.32,2.88,2.88,0,0,0-3.15-2.84,2.93,2.93,0,0,0-3.24,3.11v.35h-1.6v-.42c0-2.82,2-4.42,4.84-4.42s4.84,1.65,4.84,4.22c0,1.87-1.3,3.3-2.53,4.56l-5.44,5.54h8v1.39h-9.94Z"/>
    <path class="cls-2" d="M660,537.5h-1.63V525.4l-4.24,8.38h-1.63l-4.25-8.38v12.1h-1.63V522.09h1.61l5.08,10.17,5.08-10.17H660Z"/>
  </g>
  <g>
    <path class="cls-2" d="M789.37,523.83l-3.21,1.52v-1.54l3.5-1.72h1.4V537.5h-1.69Z"/>
    <path class="cls-2" d="M795.33,533.71h1.61a3.53,3.53,0,0,0,3.61,2.71,3.66,3.66,0,0,0,3.89-3.79,3.62,3.62,0,0,0-3.67-3.74,4.24,4.24,0,0,0-3.5,1.81h-1.61l1.45-8.61h7.68v1.39h-6.33l-1,5.52a4.8,4.8,0,0,1,3.61-1.49,4.91,4.91,0,0,1,5,5.08,5.25,5.25,0,0,1-5.54,5.21A5,5,0,0,1,795.33,533.71Z"/>
    <path class="cls-2" d="M816.65,533.82h-7.3v-1.25l5.12-10.48H816l-5,10.46h5.65v-3.66h1.56v3.66h2.14v1.27h-2.14v3.68h-1.56Z"/>
    <path class="cls-2" d="M823.49,536.18l6.51-6.85a4.85,4.85,0,0,0,1.72-3.32,2.87,2.87,0,0,0-3.15-2.84,2.93,2.93,0,0,0-3.23,3.11v.35h-1.61v-.42c0-2.82,2-4.42,4.84-4.42s4.84,1.65,4.84,4.22c0,1.87-1.29,3.3-2.53,4.56l-5.43,5.54h8v1.39h-10Z"/>
    <path class="cls-2" d="M851,537.5h-1.63V525.4l-4.25,8.38h-1.63l-4.24-8.38v12.1h-1.63V522.09h1.6l5.09,10.17,5.08-10.17H851Z"/>
  </g>
  <line class="cls-3" x1="139.96" y1="488.99" x2="139.96" y2="503.15"/>
  <line class="cls-3" x1="139.96" y1="488.99" x2="139.96" y2="507.5"/>
  <line class="cls-3" x1="425.12" y1="488.99" x2="425.12" y2="503.15"/>
  <line class="cls-3" x1="425.12" y1="488.99" x2="425.12" y2="507.5"/>
  <line class="cls-3" x1="388.27" y1="488.99" x2="388.27" y2="497.5"/>
  <line class="cls-3" x1="281.34" y1="488.99" x2="281.34" y2="497.5"/>
  <line class="cls-3" x1="464.13" y1="488.99" x2="464.13" y2="497.5"/>
  <line class="cls-3" x1="522.97" y1="488.99" x2="522.97" y2="497.5"/>
  <line class="cls-3" x1="571.05" y1="488.99" x2="571.05" y2="497.5"/>
  <line class="cls-3" x1="611.7" y1="488.99" x2="611.7" y2="497.5"/>
  <line class="cls-3" x1="646.91" y1="488.99" x2="646.91" y2="497.5"/>
  <line class="cls-3" x1="677.97" y1="488.99" x2="677.97" y2="497.5"/>
  <line class="cls-3" x1="634.08" y1="488.99" x2="634.08" y2="507.5"/>
  <line class="cls-3" x1="819.96" y1="488.99" x2="819.96" y2="503.15"/>
  <line class="cls-3" x1="819.96" y1="488.99" x2="819.96" y2="507.5"/>
  <line class="cls-4" x1="139.96" y1="428.8" x2="119.96" y2="428.8"/>
  <line class="cls-4" x1="139.96" y1="368.62" x2="119.96" y2="368.62"/>
  <line class="cls-4" x1="139.96" y1="248.24" x2="119.96" y2="248.24"/>
  <line class="cls-4" x1="139.96" y1="127.87" x2="119.96" y2="127.87"/>
  <line class="cls-4" x1="139.96" y1="7.5" x2="119.96" y2="7.5"/>
  <polyline class="cls-5" points="819.96 488.99 139.96 488.99 139.96 7.5"/>
  <g>
    <path class="cls-2" d="M83.26,11.62A3.87,3.87,0,0,1,86.37,7.7,3.82,3.82,0,0,1,83.9,4.12c0-2.56,2-4.12,4.71-4.12s4.71,1.56,4.71,4.12A3.82,3.82,0,0,1,90.86,7.7,3.88,3.88,0,0,1,94,11.62c0,2.62-2.22,4.4-5.35,4.4S83.26,14.24,83.26,11.62Zm9.07,0c0-2-1.52-3.19-3.72-3.19s-3.72,1.19-3.72,3.19,1.61,3.12,3.72,3.12S92.33,13.49,92.33,11.62ZM88.61,7.15a3,3,0,0,0,3.13-2.93,3.13,3.13,0,0,0-6.25,0A3,3,0,0,0,88.61,7.15Z"/>
    <path class="cls-2" d="M97.64,10.89V5.13C97.64,2.2,99.64,0,103,0s5.4,2.2,5.4,5.13v5.76c0,2.93-2,5.13-5.4,5.13S97.64,13.82,97.64,10.89Zm9.09.07V5.06a3.7,3.7,0,0,0-7.4,0V11a3.7,3.7,0,0,0,7.4,0Z"/>
  </g>
  <line class="cls-4" x1="139.96" y1="67.68" x2="119.96" y2="67.68"/>
  <g>
    <path class="cls-2" d="M93.5,61.88H85.57V60.5h9.67v1.18L88.44,75.9h-1.7Z"/>
    <path class="cls-2" d="M97.83,72.11h1.61a3.54,3.54,0,0,0,3.61,2.71,3.77,3.77,0,1,0,.22-7.53,4.27,4.27,0,0,0-3.5,1.81H98.16l1.46-8.6h7.68v1.38H101l-1,5.52a4.82,4.82,0,0,1,3.61-1.49,4.92,4.92,0,0,1,5,5.08,5.26,5.26,0,0,1-5.55,5.22A5,5,0,0,1,97.83,72.11Z"/>
  </g>
  <g>
    <path class="cls-2" d="M93.26,122.07H85.33v-1.39H95v1.19l-6.81,14.21H86.5Z"/>
    <path class="cls-2" d="M97.64,131.27V125.5c0-2.92,2-5.12,5.39-5.12s5.4,2.2,5.4,5.12v5.77c0,2.92-2,5.12-5.4,5.12S97.64,134.19,97.64,131.27Zm9.09.06v-5.89a3.7,3.7,0,0,0-7.4,0v5.89a3.7,3.7,0,0,0,7.4,0Z"/>
  </g>
  <line class="cls-4" x1="139.96" y1="188.06" x2="119.96" y2="188.06"/>
  <g>
    <path class="cls-2" d="M91,180.87l-4.47,6.8v0a3.84,3.84,0,0,1,3.11-1.36,4.8,4.8,0,0,1,4.84,5.06,5.24,5.24,0,0,1-5.37,5.19,5.07,5.07,0,0,1-5.37-5.13,8.46,8.46,0,0,1,1.63-4.53l3.83-6Zm-1.91,14.37a3.64,3.64,0,0,0,3.74-3.81,3.55,3.55,0,0,0-3.65-3.81,3.72,3.72,0,0,0-3.79,3.85A3.56,3.56,0,0,0,89.12,195.24Z"/>
    <path class="cls-2" d="M97.83,192.49h1.61a3.54,3.54,0,0,0,3.61,2.7,3.65,3.65,0,0,0,3.9-3.78,3.62,3.62,0,0,0-3.68-3.74,4.27,4.27,0,0,0-3.5,1.8H98.16l1.46-8.6h7.68v1.39H101l-1,5.52a4.79,4.79,0,0,1,3.61-1.5,4.92,4.92,0,0,1,5,5.09,5.25,5.25,0,0,1-5.55,5.21A5.05,5.05,0,0,1,97.83,192.49Z"/>
  </g>
  <g>
    <path class="cls-2" d="M90.9,241.06l-4.47,6.8v0a3.82,3.82,0,0,1,3.11-1.37,4.8,4.8,0,0,1,4.84,5.06,5.24,5.24,0,0,1-5.37,5.2,5.07,5.07,0,0,1-5.37-5.13,8.46,8.46,0,0,1,1.63-4.53l3.83-6.05ZM89,255.42a3.63,3.63,0,0,0,3.74-3.8,3.56,3.56,0,0,0-3.66-3.81,3.71,3.71,0,0,0-3.78,3.85A3.55,3.55,0,0,0,89,255.42Z"/>
    <path class="cls-2" d="M97.64,251.64v-5.76c0-2.93,2-5.13,5.39-5.13s5.39,2.2,5.39,5.13v5.76c0,2.93-2,5.13-5.39,5.13S97.64,254.57,97.64,251.64Zm9.09.07v-5.9a3.7,3.7,0,0,0-7.4,0v5.9a3.7,3.7,0,0,0,7.4,0Z"/>
  </g>
  <g>
    <path class="cls-2" d="M83.42,373.05H85a3.54,3.54,0,0,0,3.61,2.7,3.65,3.65,0,0,0,3.9-3.78,3.62,3.62,0,0,0-3.68-3.74,4.27,4.27,0,0,0-3.5,1.8h-1.6l1.45-8.6h7.68v1.38H86.54l-1,5.53a4.81,4.81,0,0,1,3.61-1.5,4.92,4.92,0,0,1,5,5.08,5.26,5.26,0,0,1-5.55,5.22A5,5,0,0,1,83.42,373.05Z"/>
    <path class="cls-2" d="M97.64,372v-5.76c0-2.93,2-5.13,5.39-5.13s5.39,2.2,5.39,5.13V372c0,2.93-2,5.13-5.39,5.13S97.64,374.94,97.64,372Zm9.09.07v-5.9a3.7,3.7,0,0,0-7.4,0v5.9a3.7,3.7,0,0,0,7.4,0Z"/>
  </g>
  <line class="cls-4" x1="139.96" y1="308.43" x2="119.96" y2="308.43"/>
  <g>
    <path class="cls-2" d="M83.66,312.86h1.61a3.54,3.54,0,0,0,3.61,2.71,3.66,3.66,0,0,0,3.89-3.79A3.61,3.61,0,0,0,89.1,308a4.24,4.24,0,0,0-3.5,1.81H84l1.45-8.61h7.69v1.39H86.78l-1,5.52a4.77,4.77,0,0,1,3.61-1.49,4.91,4.91,0,0,1,5,5.08A5.25,5.25,0,0,1,88.88,317,5,5,0,0,1,83.66,312.86Z"/>
    <path class="cls-2" d="M97.83,312.86h1.61a3.54,3.54,0,0,0,3.61,2.71,3.66,3.66,0,0,0,3.9-3.79,3.62,3.62,0,0,0-3.68-3.74,4.27,4.27,0,0,0-3.5,1.81H98.16l1.46-8.61h7.68v1.39H101l-1,5.52a4.78,4.78,0,0,1,3.61-1.49,4.92,4.92,0,0,1,5,5.08,5.25,5.25,0,0,1-5.55,5.21A5,5,0,0,1,97.83,312.86Z"/>
  </g>
  <g>
    <path class="cls-2" d="M91.08,433.34H83.77v-1.25l5.13-10.47h1.54l-5,10.45h5.66v-3.65h1.56v3.65h2.14v1.27H92.64V437H91.08Z"/>
    <path class="cls-2" d="M97.83,433.23h1.61a3.53,3.53,0,0,0,3.61,2.71,3.66,3.66,0,0,0,3.9-3.78,3.62,3.62,0,0,0-3.68-3.74,4.27,4.27,0,0,0-3.5,1.8H98.16l1.46-8.6h7.68V423H101l-1,5.53a4.79,4.79,0,0,1,3.61-1.5,4.92,4.92,0,0,1,5,5.08,5.26,5.26,0,0,1-5.55,5.22A5,5,0,0,1,97.83,433.23Z"/>
  </g>
  <line class="cls-4" x1="139.96" y1="488.99" x2="119.96" y2="488.99"/>
  <g>
    <path class="cls-2" d="M90.79,493.53H83.48v-1.25l5.13-10.48h1.54l-5,10.45h5.66V488.6h1.57v3.65h2.13v1.28H92.36v3.68H90.79Z"/>
    <path class="cls-2" d="M97.64,492.39v-5.77c0-2.92,2-5.13,5.39-5.13s5.39,2.21,5.39,5.13v5.77c0,2.92-2,5.12-5.39,5.12S97.64,495.31,97.64,492.39Zm9.09.06v-5.9a3.7,3.7,0,0,0-7.4,0v5.9a3.7,3.7,0,0,0,7.4,0Z"/>
  </g>
  <g>
    <path class="cls-2" d="M328.38,558.6h2l10.39,15.52V558.6h2.05v18.9h-2L330.43,562V577.5h-2.05Z"/>
    <path class="cls-2" d="M360.15,577.5h-1.94v-2.35c-.65,1.56-2.21,2.67-4.62,2.67-3,0-4.94-2.11-4.94-5.43v-8.71h2.05v8.42c0,2.35,1,4,3.41,4s4-1.43,4-4.29v-8.12h2Z"/>
    <path class="cls-2" d="M365.88,563.68h1.94V566a4.56,4.56,0,0,1,4.56-2.67,4.63,4.63,0,0,1,4.4,2.7,5.5,5.5,0,0,1,5-2.7c3,0,5,2.16,5,5.43v8.72h-2v-8.43c0-2.34-1.16-3.94-3.43-3.94s-3.94,1.38-3.94,4.24v8.13H375.3v-8.43c0-2.34-1.16-3.94-3.43-3.94s-3.94,1.38-3.94,4.24v8.13h-2.05Z"/>
    <path class="cls-2" d="M394.42,557.79v7.94a5.14,5.14,0,0,1,4.61-2.38c3.49,0,5.73,2.59,5.73,6.18v2.11c0,3.45-2.14,6.18-5.78,6.18a5.14,5.14,0,0,1-4.67-2.48v2.16h-1.94V557.79Zm8.28,11.82c0-2.53-1.43-4.58-4.05-4.58a4.26,4.26,0,0,0-4.23,4.58v1.79c0,2.67,1.48,4.75,4.21,4.75s4.07-2.06,4.07-4.59Z"/>
    <path class="cls-2" d="M409.13,571.8v-2.21c0-3.76,2.14-6.24,6-6.24s5.86,2.62,5.86,6v2H411.1v.49c0,2.4,1.24,4.34,4.13,4.34a3.66,3.66,0,0,0,3.81-2.67h1.83a5.44,5.44,0,0,1-5.64,4.24C411.64,577.82,409.13,575.53,409.13,571.8Zm2-1.94h8v-.65c0-2.46-1.24-4.29-3.94-4.29-3,0-4,2-4,4.5Z"/>
    <path class="cls-2" d="M426.12,563.68H428v3.18c.51-2.13,2-3.27,4.51-3.27h.32v1.92h-.4c-2.62,0-4.29,1.73-4.29,5.21v6.78h-2.05Z"/>
    <path class="cls-2" d="M443.61,571.72v-2.27a6.17,6.17,0,0,1,12.34,0v2.27a6.17,6.17,0,0,1-12.34,0Zm6.18-6.72c-2.72,0-4.18,1.86-4.18,4.48v2.21c0,2.62,1.46,4.48,4.18,4.48s4.19-1.86,4.19-4.48v-2.21C454,566.86,452.52,565,449.79,565Z"/>
    <path class="cls-2" d="M461.83,565.35h-2v-1.67h2v-1.84c0-2.67,1.19-4.05,4-4.05h1.94v1.67H466c-1.46,0-2.1.68-2.1,2.22v2h3.4v1.67h-3.4V577.5h-2.06Z"/>
    <path class="cls-2" d="M479.28,558.6h7.39c4,0,6.43,2.59,6.43,6s-2.46,6-6.43,6h-5.29v6.86h-2.1Zm7.2,10.29c3.11,0,4.51-2,4.51-4.3s-1.4-4.23-4.51-4.23h-5.1v8.53Z"/>
    <path class="cls-2" d="M506.44,577.5v-1.73a5.86,5.86,0,0,1-4.75,2.05c-3.27,0-5.24-1.84-5.24-4.35,0-2.67,2.19-4.31,5.48-4.31a6.06,6.06,0,0,1,4.43,1.72v-2.56A3.21,3.21,0,0,0,502.9,565a3.49,3.49,0,0,0-3.45,2.08h-1.89a5.23,5.23,0,0,1,5.37-3.7c3.43,0,5.48,2.24,5.48,5v9.18Zm-.08-4c0-1.73-2.06-3-4.13-3-2.3,0-3.84,1.08-3.84,3s1.6,3,3.73,3S506.36,575.23,506.36,573.45Z"/>
    <path class="cls-2" d="M514,563.68h1.92v3.18c.51-2.13,2-3.27,4.51-3.27h.32v1.92h-.4c-2.62,0-4.3,1.73-4.3,5.21v6.78h-2Z"/>
    <path class="cls-2" d="M533.41,577.5v-1.73a5.86,5.86,0,0,1-4.75,2.05c-3.27,0-5.24-1.84-5.24-4.35,0-2.67,2.19-4.31,5.48-4.31a6.06,6.06,0,0,1,4.43,1.72v-2.56a3.2,3.2,0,0,0-3.46-3.35,3.49,3.49,0,0,0-3.45,2.08h-1.89a5.23,5.23,0,0,1,5.37-3.7c3.43,0,5.48,2.24,5.48,5v9.18Zm-.08-4c0-1.73-2.05-3-4.13-3-2.3,0-3.83,1.08-3.83,3s1.59,3,3.72,3S533.33,575.23,533.33,573.45Z"/>
    <path class="cls-2" d="M540.94,563.68h1.95V566a4.56,4.56,0,0,1,4.56-2.67,4.64,4.64,0,0,1,4.4,2.7,5.49,5.49,0,0,1,5-2.7c3,0,5,2.16,5,5.43v8.72h-2.05v-8.43c0-2.34-1.17-3.94-3.43-3.94s-3.94,1.38-3.94,4.24v8.13h-2.06v-8.43c0-2.34-1.16-3.94-3.42-3.94s-3.94,1.38-3.94,4.24v8.13h-2.06Z"/>
    <path class="cls-2" d="M566.76,571.8v-2.21c0-3.76,2.13-6.24,6-6.24s5.85,2.62,5.85,6v2h-9.9v.49c0,2.4,1.24,4.34,4.13,4.34a3.65,3.65,0,0,0,3.8-2.67h1.84a5.45,5.45,0,0,1-5.64,4.24C569.27,577.82,566.76,575.53,566.76,571.8Zm2-1.94h8v-.65c0-2.46-1.24-4.29-3.94-4.29-3,0-4,2-4,4.5Z"/>
    <path class="cls-2" d="M588.54,577.5c-2.64,0-3.75-1.33-3.75-3.67v-8.48h-2.35v-1.67h2.35v-4h2.05v4h3.54v1.67h-3.54v8.48c0,1.4.52,2,2.06,2h1.37v1.68Z"/>
    <path class="cls-2" d="M594.27,571.8v-2.21c0-3.76,2.13-6.24,6-6.24s5.86,2.62,5.86,6v2h-9.91v.49c0,2.4,1.24,4.34,4.13,4.34a3.66,3.66,0,0,0,3.81-2.67H606a5.45,5.45,0,0,1-5.64,4.24C596.78,577.82,594.27,575.53,594.27,571.8Zm2-1.94h8v-.65c0-2.46-1.24-4.29-3.94-4.29-3,0-4,2-4,4.5Z"/>
    <path class="cls-2" d="M611.25,563.68h1.92v3.18c.51-2.13,2-3.27,4.51-3.27H618v1.92h-.4c-2.62,0-4.3,1.73-4.3,5.21v6.78h-2Z"/>
    <path class="cls-2" d="M621.35,573.47v-.13h1.86v.08c0,1.73,1.62,2.86,3.89,2.86s3.67-.84,3.67-2.62a1.93,1.93,0,0,0-1.73-1.91l-4.1-1c-2.05-.46-3.24-1.7-3.24-3.51,0-2.59,2.19-3.94,5.24-3.94,2.89,0,5.13,1.76,5.13,4.32v.14H630.2v-.09c0-1.7-1.24-2.83-3.29-2.83s-3.32.81-3.32,2.35a1.68,1.68,0,0,0,1.46,1.78l4.24,1c2.13.51,3.4,1.56,3.4,3.56,0,2.46-2.38,4.24-5.62,4.24S621.35,576.15,621.35,573.47Z"/>
  </g>
  <g>
    <path class="cls-6" d="M151.48,249.12v-.4h1.63v.35c0,1.94,1.56,3.26,4.11,3.26s4.07-1.1,4.07-3.06a2.54,2.54,0,0,0-2.2-2.51l-4.35-1.14c-2.23-.58-3.06-1.87-3.06-3.63,0-2.73,2.15-4.32,5.32-4.32s5.39,1.79,5.39,4.4v.38h-1.6v-.33c0-1.83-1.41-3.08-3.79-3.08-2.15,0-3.67,1-3.67,2.81a2.21,2.21,0,0,0,1.91,2.36l4.47,1.19c1.89.5,3.23,1.76,3.23,3.74,0,2.81-2.44,4.55-5.72,4.55S151.48,251.93,151.48,249.12Z"/>
    <path class="cls-6" d="M173.39,253.69c-4.31,0-6.47-3.06-6.47-6.77v-2.47c0-3.72,2.16-6.78,6.47-6.78s6.47,3.06,6.47,6.78v2.47C179.86,250.63,177.71,253.69,173.39,253.69Zm4.76-6.69v-2.64c0-2.9-1.48-5.26-4.76-5.26s-4.75,2.36-4.75,5.26V247c0,2.91,1.47,5.26,4.75,5.26S178.15,249.91,178.15,247Z"/>
    <path class="cls-6" d="M187.27,239.41h-4.7V238H193.7v1.43H189v14h-1.72Z"/>
    <path class="cls-6" d="M208.22,253.38h-1.69l-1.41-3.91H198l-1.39,3.91h-1.69l5.79-15.4h1.71Zm-9.73-5.28h6.14l-3.06-8.56Z"/>
    <path class="cls-6" d="M155.92,262.58a20.75,20.75,0,0,0,0,20.15H154.3a20.34,20.34,0,0,1,0-20.15Z"/>
    <path class="cls-6" d="M159.62,274.59V264.38h1.72v10.37c0,2.39,1.6,3.91,4.2,3.91s4.2-1.52,4.2-3.91V264.38h1.72v10.21c0,3.19-2.27,5.5-5.92,5.5S159.62,277.78,159.62,274.59Z"/>
    <path class="cls-6" d="M176.21,268.52h1.58v1.91a3.79,3.79,0,0,1,3.76-2.18c2.53,0,4.14,1.72,4.14,4.43v7.1H184v-6.86c0-1.92-.86-3.21-2.88-3.21a3.1,3.1,0,0,0-3.26,3.45v6.62h-1.67Z"/>
    <path class="cls-6" d="M191.19,264.54a1,1,0,1,1-1.06,1A1,1,0,0,1,191.19,264.54Zm-.84,4H192v11.26h-1.68Z"/>
    <path class="cls-6" d="M201.49,279.78h-1.76l-4.14-11.26h1.65l3.37,9.59,3.36-9.59h1.65Z"/>
    <path class="cls-6" d="M208.26,275.14v-1.8c0-3.06,1.74-5.09,4.91-5.09s4.77,2.14,4.77,4.91v1.67h-8.07v.4c0,2,1,3.54,3.36,3.54a3,3,0,0,0,3.11-2.18h1.49a4.44,4.44,0,0,1-4.6,3.46A4.65,4.65,0,0,1,208.26,275.14Zm1.61-1.58h6.51V273c0-2-1-3.5-3.21-3.5-2.42,0-3.3,1.61-3.3,3.68Z"/>
    <path class="cls-6" d="M222.1,268.52h1.56v2.6c.42-1.74,1.63-2.67,3.68-2.67h.26V270h-.33c-2.13,0-3.5,1.41-3.5,4.25v5.52H222.1Z"/>
    <path class="cls-6" d="M230.33,276.51v-.11h1.52v.06c0,1.41,1.32,2.33,3.16,2.33s3-.68,3-2.13a1.58,1.58,0,0,0-1.41-1.56l-3.35-.77c-1.67-.38-2.64-1.39-2.64-2.86,0-2.12,1.79-3.22,4.27-3.22s4.18,1.43,4.18,3.53v.1h-1.52v-.06c0-1.39-1-2.31-2.68-2.31s-2.71.66-2.71,1.91a1.38,1.38,0,0,0,1.19,1.46l3.46.81c1.73.42,2.77,1.28,2.77,2.9,0,2-1.94,3.46-4.58,3.46S230.33,278.68,230.33,276.51Z"/>
    <path class="cls-6" d="M251.16,279.78v-1.4a4.76,4.76,0,0,1-3.87,1.67c-2.66,0-4.27-1.5-4.27-3.54s1.78-3.52,4.47-3.52a4.94,4.94,0,0,1,3.61,1.4V272.3a2.61,2.61,0,0,0-2.82-2.72,2.85,2.85,0,0,0-2.82,1.69h-1.54a4.28,4.28,0,0,1,4.38-3c2.8,0,4.47,1.83,4.47,4.05v7.48Zm-.06-3.3c0-1.4-1.68-2.4-3.37-2.4-1.87,0-3.13.89-3.13,2.45s1.3,2.44,3,2.44S251.1,277.94,251.1,276.48Z"/>
    <path class="cls-6" d="M257.41,263.72h1.67v16.06h-1.67Z"/>
    <path class="cls-6" d="M272.9,265.81h-4.71v-1.43h11.13v1.43h-4.71v14H272.9Z"/>
    <path class="cls-6" d="M281.5,268.52h1.56v2.6c.42-1.74,1.63-2.67,3.68-2.67H287V270h-.33c-2.13,0-3.5,1.41-3.5,4.25v5.52H281.5Z"/>
    <path class="cls-6" d="M297.34,279.78v-1.4a4.77,4.77,0,0,1-3.87,1.67c-2.67,0-4.27-1.5-4.27-3.54S291,273,293.66,273a4.9,4.9,0,0,1,3.61,1.4V272.3a2.6,2.6,0,0,0-2.81-2.72,2.84,2.84,0,0,0-2.82,1.69H290.1a4.27,4.27,0,0,1,4.38-3c2.79,0,4.47,1.83,4.47,4.05v7.48Zm-.07-3.3c0-1.4-1.67-2.4-3.36-2.4-1.87,0-3.13.89-3.13,2.45s1.3,2.44,3,2.44S297.27,277.94,297.27,276.48Z"/>
    <path class="cls-6" d="M303.48,268.52h1.58v1.91a3.78,3.78,0,0,1,3.76-2.18c2.53,0,4.14,1.72,4.14,4.43v7.1h-1.67v-6.86c0-1.92-.86-3.21-2.89-3.21a3.09,3.09,0,0,0-3.25,3.45v6.62h-1.67Z"/>
    <path class="cls-6" d="M317,276.51v-.11h1.52v.06c0,1.41,1.32,2.33,3.17,2.33s3-.68,3-2.13a1.57,1.57,0,0,0-1.4-1.56l-3.35-.77c-1.67-.38-2.64-1.39-2.64-2.86,0-2.12,1.78-3.22,4.27-3.22s4.18,1.43,4.18,3.53v.1H324.2v-.06c0-1.39-1-2.31-2.68-2.31s-2.71.66-2.71,1.91a1.38,1.38,0,0,0,1.19,1.46l3.45.81c1.74.42,2.78,1.28,2.78,2.9,0,2-1.94,3.46-4.58,3.46S317,278.68,317,276.51Z"/>
    <path class="cls-6" d="M330.76,269.88h-1.65v-1.36h1.65V267c0-2.18,1-3.3,3.25-3.3h1.59v1.37h-1.45c-1.19,0-1.72.55-1.72,1.8v1.63h2.77v1.36h-2.77v9.9h-1.67Z"/>
    <path class="cls-6" d="M337.64,275.08v-1.85a5,5,0,0,1,10.06,0v1.85a5,5,0,0,1-10.06,0Zm5-5.48c-2.22,0-3.41,1.52-3.41,3.65v1.8c0,2.14,1.19,3.66,3.41,3.66s3.41-1.52,3.41-3.66v-1.8C346.09,271.12,344.9,269.6,342.68,269.6Z"/>
    <path class="cls-6" d="M351.81,268.52h1.56v2.6c.42-1.74,1.63-2.67,3.68-2.67h.26V270H357c-2.13,0-3.5,1.41-3.5,4.25v5.52h-1.67Z"/>
    <path class="cls-6" d="M360.68,268.52h1.58v1.91a3.72,3.72,0,0,1,3.72-2.18,3.76,3.76,0,0,1,3.58,2.21,4.48,4.48,0,0,1,4.1-2.21c2.46,0,4,1.76,4,4.43v7.1H376v-6.86c0-1.92-.94-3.21-2.79-3.21s-3.21,1.12-3.21,3.45v6.62h-1.68v-6.86c0-1.92-.94-3.21-2.79-3.21s-3.21,1.12-3.21,3.45v6.62h-1.67Z"/>
    <path class="cls-6" d="M381.71,275.14v-1.8c0-3.06,1.74-5.09,4.9-5.09s4.78,2.14,4.78,4.91v1.67h-8.08v.4c0,2,1,3.54,3.37,3.54a3,3,0,0,0,3.1-2.18h1.5a4.45,4.45,0,0,1-4.6,3.46A4.65,4.65,0,0,1,381.71,275.14Zm1.6-1.58h6.52V273c0-2-1-3.5-3.22-3.5-2.42,0-3.3,1.61-3.3,3.68Z"/>
    <path class="cls-6" d="M395.55,268.52h1.56v2.6a3.35,3.35,0,0,1,3.67-2.67h.27V270h-.33c-2.14,0-3.5,1.41-3.5,4.25v5.52h-1.67Z"/>
    <path class="cls-6" d="M403.77,276.51v-.11h1.52v.06c0,1.41,1.32,2.33,3.17,2.33s3-.68,3-2.13A1.57,1.57,0,0,0,410,275.1l-3.34-.77c-1.67-.38-2.64-1.39-2.64-2.86,0-2.12,1.78-3.22,4.27-3.22s4.18,1.43,4.18,3.53v.1H411v-.06c0-1.39-1-2.31-2.68-2.31s-2.71.66-2.71,1.91a1.37,1.37,0,0,0,1.19,1.46l3.45.81c1.74.42,2.78,1.28,2.78,2.9,0,2-1.94,3.46-4.58,3.46S403.77,278.68,403.77,276.51Z"/>
    <path class="cls-6" d="M417.28,262.58a20.41,20.41,0,0,1,0,20.15h-1.63a20.68,20.68,0,0,0,0-20.15Z"/>
  </g>
  <g>
    <path class="cls-7" d="M140,293.38H820"/>
    <path class="cls-8" d="M140,410.27,425.12,293.83l209-64.77L820,199.14"/>
    <path class="cls-9" d="M425.12,298.83a5,5,0,0,0,5-5,5,5,0,1,0-5,5Z"/>
    <path class="cls-9" d="M140,415.27a5,5,0,1,0-3.53-1.46A5,5,0,0,0,140,415.27Z"/>
    <path class="cls-9" d="M634.08,234.06a5,5,0,1,0-3.53-1.47A5,5,0,0,0,634.08,234.06Z"/>
    <path class="cls-9" d="M820,204.14a5,5,0,1,0-3.53-1.46A5,5,0,0,0,820,204.14Z"/>
  </g>
</svg>
