<svg id="Layer_1" data-name="Layer 1" xmlns="http://www.w3.org/2000/svg" viewBox="0 0 870 627.5">
  <defs>
    <style>
      .cls-1, .cls-3, .cls-4, .cls-5, .cls-7, .cls-8, .cls-9 {
        fill: none;
      }

      .cls-1 {
        stroke: #6e6e80;
        stroke-width: 1.25px;
        opacity: 0.3;
      }

      .cls-1, .cls-3, .cls-4, .cls-5 {
        stroke-miterlimit: 10;
      }

      .cls-2 {
        fill: #e6f3f3;
      }

      .cls-3, .cls-4, .cls-5 {
        stroke: #e6f3f3;
      }

      .cls-3 {
        stroke-width: 1.34px;
      }

      .cls-4 {
        stroke-width: 1.34px;
      }

      .cls-5 {
        stroke-width: 1.25px;
      }

      .cls-6 {
        opacity: 0.75;
        isolation: isolate;
      }

      .cls-7, .cls-8 {
        stroke: #68de7a;
        stroke-linecap: round;
        stroke-width: 1.5px;
      }

      .cls-7, .cls-8, .cls-9 {
        stroke-linejoin: round;
      }

      .cls-8 {
        stroke-dasharray: 5 5;
      }

      .cls-9 {
        stroke: #27b5ea;
        stroke-linecap: square;
        stroke-width: 2px;
      }

      .cls-10 {
        fill: #27b5ea;
      }

      .cls-11 {
        fill: #68de7a;
      }
    </style>
  </defs>
  <title>openai-spinning-up-black-mt</title>
  <g>
    <line class="cls-1" x1="139.96" y1="87.75" x2="819.96" y2="87.75"/>
    <line class="cls-1" x1="139.96" y1="7.5" x2="819.96" y2="7.5"/>
    <line class="cls-1" x1="139.96" y1="167.99" x2="819.96" y2="167.99"/>
    <line class="cls-1" x1="139.96" y1="248.24" x2="819.96" y2="248.24"/>
    <line class="cls-1" x1="139.96" y1="408.74" x2="819.96" y2="408.74"/>
    <line class="cls-1" x1="281.34" y1="488.99" x2="281.34" y2="7.5"/>
    <line class="cls-1" x1="388.27" y1="488.99" x2="388.27" y2="7.5"/>
    <line class="cls-1" x1="425.45" y1="488.99" x2="425.45" y2="7.5"/>
    <line class="cls-1" x1="464.13" y1="488.99" x2="464.13" y2="7.5"/>
    <line class="cls-1" x1="522.97" y1="488.99" x2="522.97" y2="7.5"/>
    <line class="cls-1" x1="571.05" y1="488.99" x2="571.05" y2="7.5"/>
    <line class="cls-1" x1="611.7" y1="488.99" x2="611.7" y2="7.5"/>
    <line class="cls-1" x1="633.88" y1="488.99" x2="633.88" y2="7.5"/>
    <line class="cls-1" x1="646.91" y1="488.99" x2="646.91" y2="7.5"/>
    <line class="cls-1" x1="677.97" y1="488.99" x2="677.97" y2="7.5"/>
    <line class="cls-1" x1="819.96" y1="488.99" x2="819.96" y2="7.5"/>
  </g>
  <g>
    <path class="cls-2" d="M41.07,284v-7.8c0-3.35,2-5.16,4.7-5.16a4.64,4.64,0,0,1,4.42,2.78,4.56,4.56,0,0,1,4.65-3.88C58,269.91,60,272.26,60,276v8Zm8.42-7.34A3.32,3.32,0,0,0,46,273.07a3.21,3.21,0,0,0-3.32,3.56V282h6.77Zm8.83-.49c0-2.7-1.3-4.18-3.62-4.18-2.1,0-3.56,1.54-3.56,4.16V282h7.18Z"/>
    <path class="cls-2" d="M41.07,264.72v-2.1H58.21v-9.69H60v11.79Z"/>
    <path class="cls-2" d="M41.07,248V235.54h1.76V245.9h6.69v-9.58h1.75v9.58h6.94V235.51H60V248Z"/>
    <path class="cls-2" d="M53.6,230.38H41.07v-2.11H53.78c2.95,0,4.81-2,4.81-5.15S56.73,218,53.78,218H41.07v-2.1H53.6c3.91,0,6.74,2.78,6.74,7.26S57.51,230.38,53.6,230.38Z"/>
  </g>
  <g>
    <path class="cls-2" d="M121.35,523.83l-3.21,1.52v-1.54l3.49-1.72H123V537.5h-1.69Z"/>
    <path class="cls-2" d="M129.6,523.83l-3.21,1.52v-1.54l3.49-1.72h1.41V537.5H129.6Z"/>
    <path class="cls-2" d="M143.3,523.48h-7.92v-1.39H145v1.19l-6.8,14.22h-1.69Z"/>
    <path class="cls-2" d="M162.18,537.5h-1.63V525.4l-4.24,8.38h-1.63l-4.25-8.38v12.1H148.8V522.09h1.61l5.08,10.17,5.08-10.17h1.61Z"/>
  </g>
  <g>
    <path class="cls-2" d="M398.18,522.09h9v1.39l-4.93,5.39h.6c2.84,0,4.84,1.72,4.84,4.34s-2.42,4.59-5.35,4.59c-2.64,0-5.08-1.58-5.19-4.51h1.56a3.36,3.36,0,0,0,3.65,3.15c2.22,0,3.68-1.36,3.68-3.19s-1.39-3.12-3.57-3.12h-2.09v-1.32l4.76-5.35h-6.94Z"/>
    <path class="cls-2" d="M418.34,533.82H411v-1.25l5.13-10.48h1.54l-5,10.46h5.66v-3.66h1.56v3.66H422v1.27H419.9v3.68h-1.56Z"/>
    <path class="cls-2" d="M425.09,533.71h1.61a3.53,3.53,0,0,0,3.6,2.71,3.66,3.66,0,0,0,3.9-3.79,3.62,3.62,0,0,0-3.68-3.74A4.24,4.24,0,0,0,427,530.7h-1.61l1.45-8.61h7.68v1.39h-6.34l-1,5.52a4.8,4.8,0,0,1,3.6-1.49,4.92,4.92,0,0,1,5,5.08,5.25,5.25,0,0,1-5.55,5.21A5,5,0,0,1,425.09,533.71Z"/>
    <path class="cls-2" d="M453.14,537.5h-1.63V525.4l-4.24,8.38h-1.63l-4.25-8.38v12.1h-1.63V522.09h1.61l5.08,10.17,5.09-10.17h1.6Z"/>
  </g>
  <g>
    <path class="cls-2" d="M615.16,523.48h-7.93v-1.39h9.66v1.19l-6.8,14.22H608.4Z"/>
    <path class="cls-2" d="M625.83,522.09l-4.47,6.8v0a3.8,3.8,0,0,1,3.1-1.37,4.8,4.8,0,0,1,4.84,5.06,5.24,5.24,0,0,1-5.37,5.19,5.07,5.07,0,0,1-5.37-5.12,8.54,8.54,0,0,1,1.63-4.53l3.83-6.06Zm-1.92,14.37a3.63,3.63,0,0,0,3.74-3.8,3.55,3.55,0,0,0-3.65-3.81,3.72,3.72,0,0,0-3.79,3.85A3.55,3.55,0,0,0,623.91,536.46Z"/>
    <path class="cls-2" d="M632.45,536.18l6.51-6.85a4.85,4.85,0,0,0,1.72-3.32,2.88,2.88,0,0,0-3.15-2.84,2.93,2.93,0,0,0-3.24,3.11v.35h-1.6v-.42c0-2.82,2-4.42,4.84-4.42s4.84,1.65,4.84,4.22c0,1.87-1.3,3.3-2.53,4.56l-5.44,5.54h8v1.39h-9.94Z"/>
    <path class="cls-2" d="M660,537.5h-1.63V525.4l-4.24,8.38h-1.63l-4.25-8.38v12.1h-1.63V522.09h1.61l5.08,10.17,5.08-10.17H660Z"/>
  </g>
  <g>
    <path class="cls-2" d="M789.37,523.83l-3.21,1.52v-1.54l3.5-1.72h1.4V537.5h-1.69Z"/>
    <path class="cls-2" d="M795.33,533.71h1.61a3.53,3.53,0,0,0,3.61,2.71,3.66,3.66,0,0,0,3.89-3.79,3.62,3.62,0,0,0-3.67-3.74,4.24,4.24,0,0,0-3.5,1.81h-1.61l1.45-8.61h7.68v1.39h-6.33l-1,5.52a4.8,4.8,0,0,1,3.61-1.49,4.91,4.91,0,0,1,5,5.08,5.25,5.25,0,0,1-5.54,5.21A5,5,0,0,1,795.33,533.71Z"/>
    <path class="cls-2" d="M816.65,533.82h-7.3v-1.25l5.12-10.48H816l-5,10.46h5.65v-3.66h1.56v3.66h2.14v1.27h-2.14v3.68h-1.56Z"/>
    <path class="cls-2" d="M823.49,536.18l6.51-6.85a4.85,4.85,0,0,0,1.72-3.32,2.87,2.87,0,0,0-3.15-2.84,2.93,2.93,0,0,0-3.23,3.11v.35h-1.61v-.42c0-2.82,2-4.42,4.84-4.42s4.84,1.65,4.84,4.22c0,1.87-1.29,3.3-2.53,4.56l-5.43,5.54h8v1.39h-10Z"/>
    <path class="cls-2" d="M851,537.5h-1.63V525.4l-4.25,8.38h-1.63l-4.24-8.38v12.1h-1.63V522.09h1.6l5.09,10.17,5.08-10.17H851Z"/>
  </g>
  <line class="cls-3" x1="139.96" y1="488.99" x2="139.96" y2="503.15"/>
  <line class="cls-3" x1="139.96" y1="488.99" x2="139.96" y2="507.5"/>
  <line class="cls-3" x1="425.12" y1="488.99" x2="425.12" y2="503.15"/>
  <line class="cls-3" x1="425.12" y1="488.99" x2="425.12" y2="507.5"/>
  <line class="cls-3" x1="388.27" y1="488.99" x2="388.27" y2="497.5"/>
  <line class="cls-3" x1="281.34" y1="488.99" x2="281.34" y2="497.5"/>
  <line class="cls-3" x1="464.13" y1="488.99" x2="464.13" y2="497.5"/>
  <line class="cls-3" x1="522.97" y1="488.99" x2="522.97" y2="497.5"/>
  <line class="cls-3" x1="571.05" y1="488.99" x2="571.05" y2="497.5"/>
  <line class="cls-3" x1="611.7" y1="488.99" x2="611.7" y2="497.5"/>
  <line class="cls-3" x1="646.91" y1="488.99" x2="646.91" y2="497.5"/>
  <line class="cls-3" x1="677.97" y1="488.99" x2="677.97" y2="497.5"/>
  <line class="cls-3" x1="634.08" y1="488.99" x2="634.08" y2="507.5"/>
  <line class="cls-3" x1="819.96" y1="488.99" x2="819.96" y2="503.15"/>
  <line class="cls-3" x1="819.96" y1="488.99" x2="819.96" y2="507.5"/>
  <line class="cls-4" x1="139.96" y1="488.99" x2="119.96" y2="488.99"/>
  <line class="cls-4" x1="139.96" y1="408.74" x2="119.96" y2="408.74"/>
  <line class="cls-4" x1="139.96" y1="328.49" x2="119.96" y2="328.49"/>
  <line class="cls-4" x1="139.96" y1="248.24" x2="119.96" y2="248.24"/>
  <line class="cls-4" x1="139.96" y1="167.99" x2="119.96" y2="167.99"/>
  <line class="cls-4" x1="139.96" y1="7.5" x2="119.96" y2="7.5"/>
  <polyline class="cls-5" points="819.96 488.99 139.96 488.99 139.96 7.5"/>
  <g>
    <path class="cls-2" d="M84.58.31h9V1.7L88.63,7.09h.6c2.84,0,4.84,1.71,4.84,4.33S91.65,16,88.72,16c-2.64,0-5.08-1.59-5.19-4.51h1.56a3.35,3.35,0,0,0,3.66,3.14c2.22,0,3.67-1.36,3.67-3.19S91,8.34,88.85,8.34H86.76V7l4.76-5.35H84.58Z"/>
    <path class="cls-2" d="M97.64,10.89V5.13C97.64,2.2,99.64,0,103,0s5.4,2.2,5.4,5.13v5.76c0,2.93-2,5.13-5.4,5.13S97.64,13.82,97.64,10.89Zm9.09.07V5.06a3.7,3.7,0,0,0-7.4,0V11a3.7,3.7,0,0,0,7.4,0Z"/>
  </g>
  <line class="cls-4" x1="139.96" y1="87.75" x2="119.96" y2="87.75"/>
  <g>
    <path class="cls-2" d="M84.3,94.64l6.51-6.84a4.89,4.89,0,0,0,1.72-3.33,2.87,2.87,0,0,0-3.15-2.83,2.92,2.92,0,0,0-3.23,3.1v.35H84.54v-.42c0-2.81,2-4.42,4.84-4.42s4.85,1.65,4.85,4.22c0,1.87-1.3,3.3-2.53,4.56l-5.44,5.54h8V96h-10Z"/>
    <path class="cls-2" d="M97.83,92.17h1.61a3.54,3.54,0,0,0,3.61,2.71A3.65,3.65,0,0,0,107,91.1a3.62,3.62,0,0,0-3.68-3.74,4.27,4.27,0,0,0-3.5,1.8h-1.6l1.45-8.6h7.68v1.38H101l-1,5.53A4.79,4.79,0,0,1,103.6,86a4.92,4.92,0,0,1,5,5.08,5.26,5.26,0,0,1-5.55,5.22A5,5,0,0,1,97.83,92.17Z"/>
  </g>
  <g>
    <path class="cls-2" d="M84.08,174.89l6.51-6.84a4.89,4.89,0,0,0,1.72-3.33,2.88,2.88,0,0,0-3.15-2.84A2.93,2.93,0,0,0,85.93,165v.35H84.32v-.42c0-2.81,2-4.42,4.84-4.42S94,162.15,94,164.72c0,1.87-1.3,3.3-2.54,4.56L86,174.82h8v1.39h-10Z"/>
    <path class="cls-2" d="M97.64,171.39v-5.77c0-2.92,2-5.12,5.39-5.12s5.4,2.2,5.4,5.12v5.77c0,2.93-2,5.13-5.4,5.13S97.64,174.32,97.64,171.39Zm9.09.07v-5.9a3.7,3.7,0,0,0-7.4,0v5.9a3.7,3.7,0,0,0,7.4,0Z"/>
  </g>
  <g>
    <path class="cls-2" d="M91.87,242.79l-3.21,1.52v-1.54l3.5-1.71h1.41v15.4h-1.7Z"/>
    <path class="cls-2" d="M97.83,252.67h1.61a3.54,3.54,0,0,0,3.61,2.71,3.66,3.66,0,0,0,3.9-3.78,3.62,3.62,0,0,0-3.68-3.74,4.27,4.27,0,0,0-3.5,1.8H98.16l1.46-8.6h7.68v1.38H101L100,248a4.82,4.82,0,0,1,3.61-1.49,4.92,4.92,0,0,1,5,5.08,5.26,5.26,0,0,1-5.55,5.22A5,5,0,0,1,97.83,252.67Z"/>
  </g>
  <g>
    <path class="cls-2" d="M91.74,323l-3.22,1.52V323L92,321.3h1.41v15.41H91.74Z"/>
    <path class="cls-2" d="M97.64,331.89v-5.77c0-2.92,2-5.12,5.39-5.12s5.39,2.2,5.39,5.12v5.77c0,2.92-2,5.12-5.39,5.12S97.64,334.81,97.64,331.89Zm9.09.06v-5.89a3.7,3.7,0,0,0-7.4,0V332a3.7,3.7,0,0,0,7.4,0Z"/>
  </g>
  <path class="cls-2" d="M97.83,413.17h1.61a3.55,3.55,0,0,0,3.61,2.71,3.66,3.66,0,0,0,3.9-3.79,3.62,3.62,0,0,0-3.68-3.74,4.27,4.27,0,0,0-3.5,1.81h-1.6l1.45-8.61h7.68v1.39H101l-1,5.52A4.78,4.78,0,0,1,103.6,407a4.92,4.92,0,0,1,5,5.08,5.25,5.25,0,0,1-5.55,5.21A5,5,0,0,1,97.83,413.17Z"/>
  <path class="cls-2" d="M97.64,492.38v-5.76c0-2.93,2-5.13,5.39-5.13s5.39,2.2,5.39,5.13v5.76c0,2.93-2,5.13-5.39,5.13S97.64,495.31,97.64,492.38Zm9.09.07v-5.9a3.7,3.7,0,0,0-7.4,0v5.9a3.7,3.7,0,0,0,7.4,0Z"/>
  <g>
    <path class="cls-2" d="M328.38,558.6h2l10.39,15.52V558.6h2.05v18.9h-2L330.43,562V577.5h-2.05Z"/>
    <path class="cls-2" d="M360.15,577.5h-1.94v-2.35c-.65,1.56-2.21,2.67-4.62,2.67-3,0-4.94-2.11-4.94-5.43v-8.71h2.05v8.42c0,2.35,1,4,3.41,4s4-1.43,4-4.29v-8.12h2Z"/>
    <path class="cls-2" d="M365.88,563.68h1.94V566a4.56,4.56,0,0,1,4.56-2.67,4.63,4.63,0,0,1,4.4,2.7,5.5,5.5,0,0,1,5-2.7c3,0,5,2.16,5,5.43v8.72h-2v-8.43c0-2.34-1.16-3.94-3.43-3.94s-3.94,1.38-3.94,4.24v8.13H375.3v-8.43c0-2.34-1.16-3.94-3.43-3.94s-3.94,1.38-3.94,4.24v8.13h-2.05Z"/>
    <path class="cls-2" d="M394.42,557.79v7.94a5.14,5.14,0,0,1,4.61-2.38c3.49,0,5.73,2.59,5.73,6.18v2.11c0,3.45-2.14,6.18-5.78,6.18a5.14,5.14,0,0,1-4.67-2.48v2.16h-1.94V557.79Zm8.28,11.82c0-2.53-1.43-4.58-4.05-4.58a4.26,4.26,0,0,0-4.23,4.58v1.79c0,2.67,1.48,4.75,4.21,4.75s4.07-2.06,4.07-4.59Z"/>
    <path class="cls-2" d="M409.13,571.8v-2.21c0-3.76,2.14-6.24,6-6.24s5.86,2.62,5.86,6v2H411.1v.49c0,2.4,1.24,4.34,4.13,4.34a3.66,3.66,0,0,0,3.81-2.67h1.83a5.44,5.44,0,0,1-5.64,4.24C411.64,577.82,409.13,575.53,409.13,571.8Zm2-1.94h8v-.65c0-2.46-1.24-4.29-3.94-4.29-3,0-4,2-4,4.5Z"/>
    <path class="cls-2" d="M426.12,563.68H428v3.18c.51-2.13,2-3.27,4.51-3.27h.32v1.92h-.4c-2.62,0-4.29,1.73-4.29,5.21v6.78h-2.05Z"/>
    <path class="cls-2" d="M443.61,571.72v-2.27a6.17,6.17,0,0,1,12.34,0v2.27a6.17,6.17,0,0,1-12.34,0Zm6.18-6.72c-2.72,0-4.18,1.86-4.18,4.48v2.21c0,2.62,1.46,4.48,4.18,4.48s4.19-1.86,4.19-4.48v-2.21C454,566.86,452.52,565,449.79,565Z"/>
    <path class="cls-2" d="M461.83,565.35h-2v-1.67h2v-1.84c0-2.67,1.19-4.05,4-4.05h1.94v1.67H466c-1.46,0-2.1.68-2.1,2.22v2h3.4v1.67h-3.4V577.5h-2.06Z"/>
    <path class="cls-2" d="M479.28,558.6h7.39c4,0,6.43,2.59,6.43,6s-2.46,6-6.43,6h-5.29v6.86h-2.1Zm7.2,10.29c3.11,0,4.51-2,4.51-4.3s-1.4-4.23-4.51-4.23h-5.1v8.53Z"/>
    <path class="cls-2" d="M506.44,577.5v-1.73a5.86,5.86,0,0,1-4.75,2.05c-3.27,0-5.24-1.84-5.24-4.35,0-2.67,2.19-4.31,5.48-4.31a6.06,6.06,0,0,1,4.43,1.72v-2.56A3.21,3.21,0,0,0,502.9,565a3.49,3.49,0,0,0-3.45,2.08h-1.89a5.23,5.23,0,0,1,5.37-3.7c3.43,0,5.48,2.24,5.48,5v9.18Zm-.08-4c0-1.73-2.06-3-4.13-3-2.3,0-3.84,1.08-3.84,3s1.6,3,3.73,3S506.36,575.23,506.36,573.45Z"/>
    <path class="cls-2" d="M514,563.68h1.92v3.18c.51-2.13,2-3.27,4.51-3.27h.32v1.92h-.4c-2.62,0-4.3,1.73-4.3,5.21v6.78h-2Z"/>
    <path class="cls-2" d="M533.41,577.5v-1.73a5.86,5.86,0,0,1-4.75,2.05c-3.27,0-5.24-1.84-5.24-4.35,0-2.67,2.19-4.31,5.48-4.31a6.06,6.06,0,0,1,4.43,1.72v-2.56a3.2,3.2,0,0,0-3.46-3.35,3.49,3.49,0,0,0-3.45,2.08h-1.89a5.23,5.23,0,0,1,5.37-3.7c3.43,0,5.48,2.24,5.48,5v9.18Zm-.08-4c0-1.73-2.05-3-4.13-3-2.3,0-3.83,1.08-3.83,3s1.59,3,3.72,3S533.33,575.23,533.33,573.45Z"/>
    <path class="cls-2" d="M540.94,563.68h1.95V566a4.56,4.56,0,0,1,4.56-2.67,4.64,4.64,0,0,1,4.4,2.7,5.49,5.49,0,0,1,5-2.7c3,0,5,2.16,5,5.43v8.72h-2.05v-8.43c0-2.34-1.17-3.94-3.43-3.94s-3.94,1.38-3.94,4.24v8.13h-2.06v-8.43c0-2.34-1.16-3.94-3.42-3.94s-3.94,1.38-3.94,4.24v8.13h-2.06Z"/>
    <path class="cls-2" d="M566.76,571.8v-2.21c0-3.76,2.13-6.24,6-6.24s5.85,2.62,5.85,6v2h-9.9v.49c0,2.4,1.24,4.34,4.13,4.34a3.65,3.65,0,0,0,3.8-2.67h1.84a5.45,5.45,0,0,1-5.64,4.24C569.27,577.82,566.76,575.53,566.76,571.8Zm2-1.94h8v-.65c0-2.46-1.24-4.29-3.94-4.29-3,0-4,2-4,4.5Z"/>
    <path class="cls-2" d="M588.54,577.5c-2.64,0-3.75-1.33-3.75-3.67v-8.48h-2.35v-1.67h2.35v-4h2.05v4h3.54v1.67h-3.54v8.48c0,1.4.52,2,2.06,2h1.37v1.68Z"/>
    <path class="cls-2" d="M594.27,571.8v-2.21c0-3.76,2.13-6.24,6-6.24s5.86,2.62,5.86,6v2h-9.91v.49c0,2.4,1.24,4.34,4.13,4.34a3.66,3.66,0,0,0,3.81-2.67H606a5.45,5.45,0,0,1-5.64,4.24C596.78,577.82,594.27,575.53,594.27,571.8Zm2-1.94h8v-.65c0-2.46-1.24-4.29-3.94-4.29-3,0-4,2-4,4.5Z"/>
    <path class="cls-2" d="M611.25,563.68h1.92v3.18c.51-2.13,2-3.27,4.51-3.27H618v1.92h-.4c-2.62,0-4.3,1.73-4.3,5.21v6.78h-2Z"/>
    <path class="cls-2" d="M621.35,573.47v-.13h1.86v.08c0,1.73,1.62,2.86,3.89,2.86s3.67-.84,3.67-2.62a1.93,1.93,0,0,0-1.73-1.91l-4.1-1c-2.05-.46-3.24-1.7-3.24-3.51,0-2.59,2.19-3.94,5.24-3.94,2.89,0,5.13,1.76,5.13,4.32v.14H630.2v-.09c0-1.7-1.24-2.83-3.29-2.83s-3.32.81-3.32,2.35a1.68,1.68,0,0,0,1.46,1.78l4.24,1c2.13.51,3.4,1.56,3.4,3.56,0,2.46-2.38,4.24-5.62,4.24S621.35,576.15,621.35,573.47Z"/>
  </g>
  <g>
    <g class="cls-6">
      <g>
        <line class="cls-7" x1="139.96" y1="372.15" x2="142.46" y2="372.15"/>
        <polyline class="cls-8" points="147.46 372.15 425.12 372.15 634.08 372.15 814.96 372.15"/>
        <line class="cls-7" x1="817.46" y1="372.15" x2="819.96" y2="372.15"/>
      </g>
    </g>
    <g class="cls-6">
      <g>
        <line class="cls-7" x1="139.96" y1="328.81" x2="142.46" y2="328.81"/>
        <polyline class="cls-8" points="147.46 328.81 425.12 328.81 634.08 328.81 814.96 328.81"/>
        <line class="cls-7" x1="817.46" y1="328.81" x2="819.96" y2="328.81"/>
      </g>
    </g>
    <g class="cls-6">
      <g>
        <line class="cls-7" x1="139.96" y1="239.26" x2="142.46" y2="239.26"/>
        <polyline class="cls-8" points="147.46 239.26 425.12 239.26 634.08 239.26 814.96 239.26"/>
        <line class="cls-7" x1="817.46" y1="239.26" x2="819.96" y2="239.26"/>
      </g>
    </g>
    <g class="cls-6">
      <g>
        <line class="cls-7" x1="139.96" y1="73.78" x2="142.46" y2="73.78"/>
        <polyline class="cls-8" points="147.46 73.78 425.12 73.78 634.08 73.78 814.96 73.78"/>
        <line class="cls-7" x1="817.46" y1="73.78" x2="819.96" y2="73.78"/>
      </g>
    </g>
    <path class="cls-9" d="M140,477.76l285.16-38.52,209-64.2L820,304.42"/>
    <path class="cls-10" d="M425.12,444.24a5,5,0,1,0-3.53-1.47A5,5,0,0,0,425.12,444.24Z"/>
    <path class="cls-10" d="M634.08,380a5,5,0,1,0,0-10,5,5,0,0,0-3.53,1.46,5,5,0,0,0,3.53,8.54Z"/>
    <path class="cls-10" d="M140,482.76a5,5,0,1,0-3.53-1.47A5,5,0,0,0,140,482.76Z"/>
    <path class="cls-10" d="M820,309.42a5,5,0,1,0-3.53-1.47A5,5,0,0,0,820,309.42Z"/>
  </g>
  <g>
    <path class="cls-11" d="M151.83,61.51V51.3h1.72V61.66c0,2.4,1.6,3.92,4.2,3.92s4.2-1.52,4.2-3.92V51.3h1.72V61.51c0,3.19-2.27,5.5-5.92,5.5S151.83,64.7,151.83,61.51Z"/>
    <path class="cls-11" d="M168.42,55.44H170v1.91a3.79,3.79,0,0,1,3.77-2.18c2.53,0,4.13,1.72,4.13,4.43v7.1h-1.67V59.84c0-1.92-.86-3.21-2.88-3.21a3.1,3.1,0,0,0-3.26,3.45V66.7h-1.67Z"/>
    <path class="cls-11" d="M181.93,63.42v-.11h1.52v.07c0,1.41,1.32,2.33,3.16,2.33s3-.68,3-2.13A1.57,1.57,0,0,0,188.2,62l-3.35-.77c-1.67-.38-2.64-1.39-2.64-2.86,0-2.12,1.79-3.22,4.27-3.22s4.18,1.43,4.18,3.52v.11h-1.51v-.06c0-1.39-1-2.31-2.69-2.31s-2.71.66-2.71,1.91a1.37,1.37,0,0,0,1.19,1.45l3.46.82c1.74.42,2.77,1.27,2.77,2.9,0,2-1.94,3.46-4.58,3.46S181.93,65.6,181.93,63.42Z"/>
    <path class="cls-11" d="M204.39,66.7h-1.58V64.79A3.78,3.78,0,0,1,199,67c-2.46,0-4-1.72-4-4.43v-7.1h1.67V62.3c0,1.92.84,3.26,2.77,3.26s3.26-1.17,3.26-3.5V55.44h1.67Z"/>
    <path class="cls-11" d="M209.05,70.53V55.44h1.59V57.2a4.17,4.17,0,0,1,3.8-2c3,0,4.71,2.18,4.71,5v1.72c0,2.92-1.82,5-4.66,5A4.22,4.22,0,0,1,210.73,65v5.5Zm8.43-10.25c0-2.07-1-3.74-3.32-3.74s-3.43,1.69-3.43,3.87v1.45a3.48,3.48,0,0,0,3.45,3.74c2.13,0,3.3-1.67,3.3-3.74Z"/>
    <path class="cls-11" d="M222.71,62.06v-1.8c0-3.06,1.74-5.09,4.91-5.09s4.78,2.14,4.78,4.91v1.67h-8.08v.4c0,2,1,3.54,3.37,3.54a3,3,0,0,0,3.1-2.18h1.5a4.45,4.45,0,0,1-4.6,3.46A4.65,4.65,0,0,1,222.71,62.06Zm1.61-1.58h6.51V60c0-2-1-3.5-3.21-3.5-2.42,0-3.3,1.61-3.3,3.67Z"/>
    <path class="cls-11" d="M236.55,55.44h1.57V58c.41-1.73,1.62-2.66,3.67-2.66h.26v1.56h-.33c-2.13,0-3.49,1.41-3.49,4.25V66.7h-1.68Z"/>
    <path class="cls-11" d="M250.59,66.7h-1.76l-4.14-11.26h1.65L249.71,65l3.37-9.59h1.65Z"/>
    <path class="cls-11" d="M259.12,51.46a1,1,0,1,1-1.05,1A1,1,0,0,1,259.12,51.46Zm-.83,4H260V66.7h-1.67Z"/>
    <path class="cls-11" d="M264.21,63.42v-.11h1.51v.07c0,1.41,1.32,2.33,3.17,2.33s3-.68,3-2.13a1.57,1.57,0,0,0-1.4-1.56l-3.35-.77c-1.67-.38-2.64-1.39-2.64-2.86,0-2.12,1.78-3.22,4.27-3.22s4.18,1.43,4.18,3.52v.11h-1.52v-.06c0-1.39-1-2.31-2.68-2.31s-2.71.66-2.71,1.91a1.37,1.37,0,0,0,1.19,1.45l3.45.82c1.74.42,2.78,1.27,2.78,2.9,0,2-1.94,3.46-4.58,3.46S264.21,65.6,264.21,63.42Z"/>
    <path class="cls-11" d="M276.86,62.06v-1.8c0-3.06,1.73-5.09,4.9-5.09s4.78,2.14,4.78,4.91v1.67h-8.08v.4c0,2,1,3.54,3.37,3.54a3,3,0,0,0,3.1-2.18h1.5a4.45,4.45,0,0,1-4.6,3.46A4.65,4.65,0,0,1,276.86,62.06Zm1.6-1.58H285V60c0-2-1-3.5-3.22-3.5-2.42,0-3.3,1.61-3.3,3.67Z"/>
    <path class="cls-11" d="M300.24,50.64V66.7h-1.58V64.94a4.2,4.2,0,0,1-3.81,2c-3,0-4.71-2.22-4.71-5V60.21c0-2.92,1.83-5,4.67-5a4.22,4.22,0,0,1,3.76,1.94V50.64Zm-8.42,11.22c0,2.07,1,3.74,3.32,3.74s3.43-1.69,3.43-3.87V60.28a3.48,3.48,0,0,0-3.45-3.74c-2.14,0-3.3,1.67-3.3,3.74Z"/>
    <path class="cls-11" d="M310.58,62.43V62h1.63v.35c0,1.94,1.56,3.26,4.11,3.26s4.07-1.1,4.07-3.06a2.54,2.54,0,0,0-2.2-2.51l-4.35-1.14c-2.23-.58-3.06-1.87-3.06-3.63,0-2.73,2.16-4.32,5.32-4.32s5.39,1.79,5.39,4.4v.38h-1.6v-.33c0-1.83-1.41-3.08-3.79-3.08-2.15,0-3.67,1-3.67,2.81a2.21,2.21,0,0,0,1.91,2.36l4.47,1.19c1.89.5,3.23,1.76,3.23,3.74,0,2.81-2.44,4.55-5.72,4.55S310.58,65.25,310.58,62.43Z"/>
    <path class="cls-11" d="M330.25,66.7c-2.16,0-3.06-1.08-3.06-3V56.8h-1.91V55.44h1.91V52.2h1.67v3.24h2.89V56.8h-2.89v6.91c0,1.14.42,1.63,1.68,1.63h1.12V66.7Z"/>
    <path class="cls-11" d="M343.1,66.7V65.29A4.75,4.75,0,0,1,339.23,67c-2.67,0-4.27-1.5-4.27-3.55s1.78-3.52,4.46-3.52A4.92,4.92,0,0,1,343,61.31V59.22a2.61,2.61,0,0,0-2.81-2.73,2.85,2.85,0,0,0-2.82,1.7h-1.54a4.26,4.26,0,0,1,4.38-3c2.79,0,4.46,1.83,4.46,4V66.7ZM343,63.4c0-1.41-1.67-2.4-3.36-2.4-1.88,0-3.13.88-3.13,2.45s1.3,2.44,3,2.44S343,64.85,343,63.4Z"/>
    <path class="cls-11" d="M353.06,66.7c-2.15,0-3.06-1.08-3.06-3V56.8h-1.91V55.44H350V52.2h1.68v3.24h2.88V56.8h-2.88v6.91c0,1.14.42,1.63,1.67,1.63h1.12V66.7Z"/>
    <path class="cls-11" d="M359.33,51.46a1,1,0,1,1-1.05,1A1,1,0,0,1,359.33,51.46Zm-.83,4h1.67V66.7H358.5Z"/>
    <path class="cls-11" d="M364.41,63.42v-.11h1.52v.07c0,1.41,1.32,2.33,3.17,2.33s3-.68,3-2.13A1.57,1.57,0,0,0,370.68,62l-3.34-.77c-1.67-.38-2.64-1.39-2.64-2.86,0-2.12,1.78-3.22,4.27-3.22s4.18,1.43,4.18,3.52v.11h-1.52v-.06c0-1.39-1-2.31-2.68-2.31s-2.71.66-2.71,1.91a1.36,1.36,0,0,0,1.19,1.45l3.45.82c1.74.42,2.77,1.27,2.77,2.9,0,2-1.93,3.46-4.57,3.46S364.41,65.6,364.41,63.42Z"/>
    <path class="cls-11" d="M381.35,66.7c-2.15,0-3.05-1.08-3.05-3V56.8h-1.92V55.44h1.92V52.2H380v3.24h2.88V56.8H380v6.91c0,1.14.42,1.63,1.67,1.63h1.12V66.7Z"/>
    <path class="cls-11" d="M387.62,51.46a1,1,0,1,1-1.05,1A1,1,0,0,1,387.62,51.46Zm-.83,4h1.67V66.7h-1.67Z"/>
    <path class="cls-11" d="M392.68,62v-1.9a4.7,4.7,0,0,1,5-4.95,4.5,4.5,0,0,1,4.82,4.23H401a3.13,3.13,0,0,0-3.3-2.91c-2.31,0-3.39,1.5-3.39,3.61V62c0,2.11,1.08,3.61,3.39,3.61a3.13,3.13,0,0,0,3.3-2.91h1.5A4.5,4.5,0,0,1,397.68,67,4.7,4.7,0,0,1,392.68,62Z"/>
    <path class="cls-11" d="M414.29,66.7V65.29A4.75,4.75,0,0,1,410.42,67c-2.67,0-4.27-1.5-4.27-3.55s1.78-3.52,4.46-3.52a4.92,4.92,0,0,1,3.61,1.41V59.22a2.61,2.61,0,0,0-2.81-2.73,2.85,2.85,0,0,0-2.82,1.7h-1.54a4.27,4.27,0,0,1,4.38-3c2.79,0,4.46,1.83,4.46,4V66.7Zm-.07-3.3c0-1.41-1.67-2.4-3.36-2.4-1.87,0-3.13.88-3.13,2.45s1.3,2.44,3,2.44S414.22,64.85,414.22,63.4Z"/>
    <path class="cls-11" d="M420.53,50.64h1.68V66.7h-1.68Z"/>
    <path class="cls-11" d="M446.52,66.7h-1.63V54.6L440.64,63H439l-4.24-8.38V66.7h-1.63V51.3h1.61l5.08,10.17,5.08-10.17h1.61Z"/>
    <path class="cls-11" d="M454.94,52.73h-4.71V51.3h11.14v1.43h-4.71v14h-1.72Z"/>
  </g>
  <g>
    <path class="cls-11" d="M157.75,216.77c3.92,0,6.07,2.49,6.07,5.92v3.57c0,3.43-2.15,5.92-6.07,5.92H152V216.77Zm4.38,9.49v-3.57c0-2.68-1.58-4.51-4.62-4.51h-3.85v12.59h3.85C160.55,230.77,162.13,228.94,162.13,226.26Z"/>
    <path class="cls-11" d="M167.67,227.53v-1.8c0-3.06,1.74-5.08,4.91-5.08s4.77,2.13,4.77,4.9v1.68h-8.07v.39c0,2,1,3.55,3.37,3.55a3,3,0,0,0,3.1-2.18h1.49a4.44,4.44,0,0,1-4.59,3.45A4.65,4.65,0,0,1,167.67,227.53Zm1.61-1.58h6.51v-.53c0-2-1-3.5-3.21-3.5-2.42,0-3.3,1.61-3.3,3.68Z"/>
    <path class="cls-11" d="M181.51,220.91h1.58v1.92a3.78,3.78,0,0,1,3.77-2.18c2.53,0,4.13,1.71,4.13,4.42v7.11h-1.67v-6.87c0-1.91-.86-3.21-2.88-3.21a3.1,3.1,0,0,0-3.26,3.45v6.63h-1.67Z"/>
    <path class="cls-11" d="M195,227.47v-1.85a5,5,0,0,1,10.05,0v1.85a5,5,0,0,1-10.05,0Zm5-5.48c-2.22,0-3.41,1.52-3.41,3.65v1.81c0,2.13,1.19,3.65,3.41,3.65s3.41-1.52,3.41-3.65v-1.81C203.44,223.51,202.26,222,200,222Z"/>
    <path class="cls-11" d="M210.11,216.93a1,1,0,1,1-1.06,1A1,1,0,0,1,210.11,216.93Zm-.84,4H211v11.27h-1.68Z"/>
    <path class="cls-11" d="M215.19,228.9v-.11h1.52v.06c0,1.41,1.32,2.34,3.17,2.34s3-.69,3-2.14a1.58,1.58,0,0,0-1.41-1.56l-3.34-.77c-1.68-.37-2.64-1.39-2.64-2.86,0-2.11,1.78-3.21,4.27-3.21s4.18,1.43,4.18,3.52v.11h-1.52v-.07c0-1.38-1-2.31-2.69-2.31s-2.7.66-2.7,1.92a1.36,1.36,0,0,0,1.19,1.45l3.45.81c1.74.42,2.77,1.28,2.77,2.91,0,2-1.93,3.45-4.57,3.45S215.19,231.08,215.19,228.9Z"/>
    <path class="cls-11" d="M229.34,216.93a1,1,0,1,1-1.06,1A1,1,0,0,1,229.34,216.93Zm-.84,4h1.67v11.27H228.5Z"/>
    <path class="cls-11" d="M235,220.91h1.58v1.92a3.76,3.76,0,0,1,3.76-2.18c2.53,0,4.14,1.71,4.14,4.42v7.11h-1.67v-6.87c0-1.91-.86-3.21-2.88-3.21a3.1,3.1,0,0,0-3.26,3.45v6.63H235Z"/>
    <path class="cls-11" d="M248.63,233.39h1.65a3.39,3.39,0,0,0,3.23,1.56c2,0,3.3-1.1,3.3-2.82v-2.55a4,4,0,0,1-3.78,2.13,4.38,4.38,0,0,1-4.6-4.59v-1.87a4.35,4.35,0,0,1,4.62-4.6,4.05,4.05,0,0,1,3.83,2.13v-1.87h1.61v11.27c0,2.33-2.11,4.09-5,4.09C251.27,236.27,249.25,235.24,248.63,233.39Zm8.18-6.45v-1.45a3.39,3.39,0,0,0-3.38-3.48,3,3,0,0,0-3.35,3.37V227c0,2.12,1.12,3.37,3.28,3.37A3.28,3.28,0,0,0,256.81,226.94Z"/>
    <path class="cls-11" d="M273.23,224.92h-4.16V223.6h4.16v-4.49h1.49v4.49h4.16v1.32h-4.16v4.48h-1.49Z"/>
    <path class="cls-11" d="M289.68,216.77H296c2.73,0,4.2,1.61,4.2,3.83a3.76,3.76,0,0,1-2.26,3.61,3.72,3.72,0,0,1,3.17,3.79c0,2.57-1.92,4.18-5,4.18h-6.51Zm6,6.87a2.71,2.71,0,0,0,2.9-2.82,2.61,2.61,0,0,0-2.9-2.7h-4.34v5.52Zm.39,7.19c2.2,0,3.41-1.05,3.41-2.94,0-1.72-1.25-2.91-3.39-2.91h-4.75v5.85Z"/>
    <path class="cls-11" d="M312.65,232.18v-1.41a4.76,4.76,0,0,1-3.87,1.67c-2.66,0-4.27-1.5-4.27-3.54s1.78-3.52,4.47-3.52a4.9,4.9,0,0,1,3.6,1.41V224.7a2.61,2.61,0,0,0-2.81-2.73,2.86,2.86,0,0,0-2.82,1.69h-1.54a4.26,4.26,0,0,1,4.38-3c2.79,0,4.47,1.82,4.47,4v7.48Zm-.07-3.3c0-1.41-1.67-2.4-3.36-2.4-1.87,0-3.13.88-3.13,2.44s1.3,2.44,3,2.44S312.58,230.33,312.58,228.88Z"/>
    <path class="cls-11" d="M318.24,227.49V225.6a4.7,4.7,0,0,1,5-4.95,4.49,4.49,0,0,1,4.82,4.22h-1.5a3.11,3.11,0,0,0-3.3-2.9c-2.31,0-3.38,1.49-3.38,3.61v1.93c0,2.11,1.07,3.61,3.38,3.61a3.12,3.12,0,0,0,3.3-2.9h1.5a4.49,4.49,0,0,1-4.82,4.22A4.7,4.7,0,0,1,318.24,227.49Z"/>
    <path class="cls-11" d="M332.21,216.11h1.67v10.1l4.86-5.3h2.09l-5.15,5.44,5.37,5.83H339l-5.08-5.68v5.68h-1.67Z"/>
    <path class="cls-11" d="M348.4,232.18c-2.16,0-3.06-1.08-3.06-3v-6.9h-1.91v-1.37h1.91v-3.23H347v3.23h2.89v1.37H347v6.9c0,1.15.42,1.63,1.68,1.63h1.12v1.37Z"/>
    <path class="cls-11" d="M353.72,220.91h1.57v2.6c.41-1.74,1.62-2.67,3.67-2.67h.26v1.57h-.33c-2.13,0-3.49,1.41-3.49,4.24v5.53h-1.68Z"/>
    <path class="cls-11" d="M369.56,232.18v-1.41a4.76,4.76,0,0,1-3.87,1.67c-2.66,0-4.27-1.5-4.27-3.54s1.78-3.52,4.47-3.52a4.94,4.94,0,0,1,3.61,1.41V224.7a2.61,2.61,0,0,0-2.82-2.73,2.87,2.87,0,0,0-2.82,1.69h-1.54a4.27,4.27,0,0,1,4.38-3c2.8,0,4.47,1.82,4.47,4v7.48Zm-.06-3.3c0-1.41-1.67-2.4-3.37-2.4-1.87,0-3.12.88-3.12,2.44s1.29,2.44,3,2.44S369.5,230.33,369.5,228.88Z"/>
    <path class="cls-11" d="M375.7,220.91h1.58v1.92a3.78,3.78,0,0,1,3.77-2.18c2.53,0,4.13,1.71,4.13,4.42v7.11h-1.67v-6.87c0-1.91-.86-3.21-2.88-3.21a3.1,3.1,0,0,0-3.26,3.45v6.63H375.7Z"/>
    <path class="cls-11" d="M389.21,228.9v-.11h1.52v.06c0,1.41,1.32,2.34,3.17,2.34s3-.69,3-2.14a1.58,1.58,0,0,0-1.41-1.56l-3.35-.77c-1.67-.37-2.64-1.39-2.64-2.86,0-2.11,1.79-3.21,4.27-3.21s4.18,1.43,4.18,3.52v.11h-1.51v-.07c0-1.38-1-2.31-2.69-2.31s-2.71.66-2.71,1.92a1.37,1.37,0,0,0,1.19,1.45l3.46.81c1.74.42,2.77,1.28,2.77,2.91,0,2-1.94,3.45-4.58,3.45S389.21,231.08,389.21,228.9Z"/>
    <path class="cls-11" d="M402.52,216.11h1.67v16.07h-1.67Z"/>
    <path class="cls-11" d="M416.6,232.18v-1.41a4.77,4.77,0,0,1-3.87,1.67c-2.67,0-4.27-1.5-4.27-3.54s1.78-3.52,4.46-3.52a4.91,4.91,0,0,1,3.61,1.41V224.7a2.61,2.61,0,0,0-2.81-2.73,2.86,2.86,0,0,0-2.82,1.69h-1.54a4.26,4.26,0,0,1,4.38-3c2.79,0,4.47,1.82,4.47,4v7.48Zm-.07-3.3c0-1.41-1.67-2.4-3.36-2.4-1.87,0-3.13.88-3.13,2.44s1.3,2.44,3,2.44S416.53,230.33,416.53,228.88Z"/>
    <path class="cls-11" d="M426.56,232.18c-2.15,0-3.05-1.08-3.05-3v-6.9h-1.92v-1.37h1.92v-3.23h1.67v3.23h2.88v1.37h-2.88v6.9c0,1.15.42,1.63,1.67,1.63H428v1.37Z"/>
    <path class="cls-11" d="M431.23,227.53v-1.8c0-3.06,1.74-5.08,4.9-5.08s4.78,2.13,4.78,4.9v1.68h-8.08v.39c0,2,1,3.55,3.37,3.55a3,3,0,0,0,3.1-2.18h1.5a4.46,4.46,0,0,1-4.6,3.45A4.65,4.65,0,0,1,431.23,227.53Zm1.6-1.58h6.52v-.53c0-2-1-3.5-3.22-3.5-2.42,0-3.3,1.61-3.3,3.68Z"/>
  </g>
  <g>
    <path class="cls-11" d="M152,306h10.17v1.43h-8.45v5.45h7.81v1.44h-7.81V320h8.47v1.43H152Z"/>
    <path class="cls-11" d="M166.24,310.14h1.59v1.92a3.69,3.69,0,0,1,3.71-2.18,3.79,3.79,0,0,1,3.59,2.2,4.48,4.48,0,0,1,4.09-2.2c2.47,0,4.05,1.76,4.05,4.42v7.11H181.6v-6.87c0-1.91-.95-3.21-2.79-3.21s-3.22,1.13-3.22,3.46v6.62h-1.67v-6.87c0-1.91-.94-3.21-2.79-3.21s-3.22,1.13-3.22,3.46v6.62h-1.67Z"/>
    <path class="cls-11" d="M189.5,305.35v6.47a4.2,4.2,0,0,1,3.76-1.94c2.84,0,4.66,2.11,4.66,5v1.72c0,2.81-1.73,5-4.71,5a4.19,4.19,0,0,1-3.8-2v1.76h-1.59V305.35Zm6.75,9.64c0-2.07-1.16-3.74-3.3-3.74A3.47,3.47,0,0,0,189.5,315v1.45c0,2.18,1.21,3.87,3.43,3.87s3.32-1.67,3.32-3.74Z"/>
    <path class="cls-11" d="M201.49,316.77V315c0-3.06,1.73-5.08,4.9-5.08s4.78,2.13,4.78,4.91v1.67h-8.08v.4c0,1.95,1,3.54,3.37,3.54a3,3,0,0,0,3.1-2.18h1.5a4.46,4.46,0,0,1-4.6,3.45A4.64,4.64,0,0,1,201.49,316.77Zm1.6-1.59h6.51v-.52c0-2-1-3.5-3.21-3.5-2.42,0-3.3,1.6-3.3,3.67Z"/>
    <path class="cls-11" d="M224.87,305.35v16.06h-1.58v-1.76a4.22,4.22,0,0,1-3.81,2c-3,0-4.71-2.22-4.71-5v-1.72c0-2.93,1.83-5,4.67-5a4.2,4.2,0,0,1,3.76,1.94v-6.47Zm-8.42,11.22c0,2.07,1,3.74,3.32,3.74s3.43-1.69,3.43-3.87V315a3.47,3.47,0,0,0-3.45-3.74c-2.14,0-3.3,1.67-3.3,3.74Z"/>
    <path class="cls-11" d="M235.7,306h1.6l8.47,12.65V306h1.67v15.4h-1.6l-8.47-12.65v12.65H235.7Z"/>
    <path class="cls-11" d="M251.78,316.77V315c0-3.06,1.74-5.08,4.9-5.08s4.78,2.13,4.78,4.91v1.67h-8.08v.4c0,1.95,1,3.54,3.37,3.54a3,3,0,0,0,3.1-2.18h1.5a4.46,4.46,0,0,1-4.6,3.45A4.64,4.64,0,0,1,251.78,316.77Zm1.6-1.59h6.52v-.52c0-2-1-3.5-3.22-3.5-2.42,0-3.3,1.6-3.3,3.67Z"/>
    <path class="cls-11" d="M273.18,321.41V320a4.76,4.76,0,0,1-3.87,1.67c-2.66,0-4.27-1.49-4.27-3.54s1.78-3.52,4.47-3.52a4.94,4.94,0,0,1,3.61,1.41v-2.09a2.61,2.61,0,0,0-2.82-2.73,2.87,2.87,0,0,0-2.82,1.69h-1.54a4.27,4.27,0,0,1,4.38-3c2.8,0,4.47,1.83,4.47,4.05v7.48Zm-.06-3.3c0-1.41-1.67-2.4-3.37-2.4-1.87,0-3.12.88-3.12,2.44s1.29,2.45,3,2.45S273.12,319.56,273.12,318.11Z"/>
    <path class="cls-11" d="M279.32,310.14h1.56v2.6c.42-1.74,1.63-2.66,3.68-2.66h.26v1.56h-.33c-2.13,0-3.5,1.41-3.5,4.25v5.52h-1.67Z"/>
    <path class="cls-11" d="M287.46,316.77V315c0-3.06,1.74-5.08,4.91-5.08s4.77,2.13,4.77,4.91v1.67h-8.07v.4c0,1.95,1,3.54,3.36,3.54a3,3,0,0,0,3.11-2.18H297a4.44,4.44,0,0,1-4.6,3.45A4.65,4.65,0,0,1,287.46,316.77Zm1.61-1.59h6.51v-.52c0-2-1-3.5-3.21-3.5-2.42,0-3.3,1.6-3.3,3.67Z"/>
    <path class="cls-11" d="M300.77,318.13V318h1.52v.07c0,1.41,1.32,2.33,3.17,2.33s3-.68,3-2.13a1.58,1.58,0,0,0-1.41-1.57L303.7,316c-1.68-.37-2.64-1.38-2.64-2.86,0-2.11,1.78-3.21,4.27-3.21s4.18,1.43,4.18,3.52v.11H308v-.06c0-1.39-1-2.32-2.69-2.32s-2.7.66-2.7,1.92a1.36,1.36,0,0,0,1.18,1.45l3.46.82c1.74.41,2.77,1.27,2.77,2.9,0,2-1.93,3.45-4.57,3.45S300.77,320.31,300.77,318.13Z"/>
    <path class="cls-11" d="M317.71,321.41c-2.16,0-3.06-1.08-3.06-3v-6.91h-1.91v-1.37h1.91v-3.23h1.67v3.23h2.89v1.37h-2.89v6.91c0,1.14.42,1.63,1.68,1.63h1.12v1.36Z"/>
    <path class="cls-11" d="M329.19,306h1.61l8.47,12.65V306h1.67v15.4h-1.6l-8.47-12.65v12.65h-1.68Z"/>
    <path class="cls-11" d="M345.28,316.77V315c0-3.06,1.73-5.08,4.9-5.08S355,312,355,314.79v1.67h-8.08v.4c0,1.95,1,3.54,3.37,3.54a3,3,0,0,0,3.1-2.18h1.5a4.46,4.46,0,0,1-4.6,3.45A4.64,4.64,0,0,1,345.28,316.77Zm1.6-1.59h6.52v-.52c0-2-1-3.5-3.22-3.5-2.42,0-3.3,1.6-3.3,3.67Z"/>
    <path class="cls-11" d="M360.06,306.16a1,1,0,1,1-1.06,1A1,1,0,0,1,360.06,306.16Zm-.84,4h1.68v11.27h-1.68Z"/>
    <path class="cls-11" d="M365.32,322.62H367a3.36,3.36,0,0,0,3.23,1.56c2,0,3.3-1.1,3.3-2.81v-2.56a4,4,0,0,1-3.78,2.14,4.39,4.39,0,0,1-4.6-4.6v-1.87a4.36,4.36,0,0,1,4.62-4.6,4.06,4.06,0,0,1,3.83,2.13v-1.87h1.6v11.27c0,2.33-2.11,4.09-5,4.09C368,325.5,365.93,324.47,365.32,322.62Zm8.18-6.45v-1.45a3.39,3.39,0,0,0-3.39-3.47,3,3,0,0,0-3.34,3.36v1.61c0,2.11,1.12,3.36,3.28,3.36A3.27,3.27,0,0,0,373.5,316.17Z"/>
    <path class="cls-11" d="M379.84,305.35h1.67v6.53a3.9,3.9,0,0,1,3.67-2c2.53,0,4.14,1.72,4.14,4.42v7.11h-1.67v-6.87c0-1.91-.86-3.21-2.88-3.21a3.1,3.1,0,0,0-3.26,3.46v6.62h-1.67Z"/>
    <path class="cls-11" d="M395.54,305.35v6.47a4.23,4.23,0,0,1,3.77-1.94c2.84,0,4.66,2.11,4.66,5v1.72c0,2.81-1.74,5-4.71,5a4.19,4.19,0,0,1-3.8-2v1.76h-1.59V305.35ZM402.3,315c0-2.07-1.17-3.74-3.3-3.74a3.48,3.48,0,0,0-3.46,3.74v1.45c0,2.18,1.21,3.87,3.44,3.87s3.32-1.67,3.32-3.74Z"/>
    <path class="cls-11" d="M407.53,316.7v-1.85a5,5,0,0,1,10.06,0v1.85a5,5,0,0,1-10.06,0Zm5-5.48c-2.22,0-3.41,1.52-3.41,3.66v1.8c0,2.13,1.19,3.65,3.41,3.65s3.41-1.52,3.41-3.65v-1.8C416,312.74,414.8,311.22,412.57,311.22Z"/>
    <path class="cls-11" d="M421.7,310.14h1.56v2.6c.42-1.74,1.63-2.66,3.68-2.66h.26v1.56h-.33c-2.13,0-3.5,1.41-3.5,4.25v5.52H421.7Z"/>
  </g>
  <g>
    <path class="cls-11" d="M157.75,349.66c3.92,0,6.07,2.49,6.07,5.92v3.57c0,3.43-2.15,5.92-6.07,5.92H152V349.66Zm4.38,9.49v-3.57c0-2.68-1.58-4.51-4.62-4.51h-3.85v12.59h3.85C160.55,363.66,162.13,361.83,162.13,359.15Z"/>
    <path class="cls-11" d="M167.67,360.42v-1.8c0-3.06,1.74-5.08,4.91-5.08s4.77,2.13,4.77,4.9v1.68h-8.07v.39c0,2,1,3.54,3.37,3.54a3,3,0,0,0,3.1-2.17h1.49a4.44,4.44,0,0,1-4.59,3.45A4.65,4.65,0,0,1,167.67,360.42Zm1.61-1.58h6.51v-.53c0-2-1-3.5-3.21-3.5-2.42,0-3.3,1.61-3.3,3.68Z"/>
    <path class="cls-11" d="M181.51,353.8h1.58v1.91a3.79,3.79,0,0,1,3.77-2.17c2.53,0,4.13,1.71,4.13,4.42v7.11h-1.67V358.2c0-1.91-.86-3.21-2.88-3.21a3.1,3.1,0,0,0-3.26,3.45v6.63h-1.67Z"/>
    <path class="cls-11" d="M195,360.36v-1.85a5,5,0,0,1,10.05,0v1.85a5,5,0,0,1-10.05,0Zm5-5.48c-2.22,0-3.41,1.52-3.41,3.65v1.81c0,2.13,1.19,3.65,3.41,3.65s3.41-1.52,3.41-3.65v-1.81C203.44,356.4,202.26,354.88,200,354.88Z"/>
    <path class="cls-11" d="M210.11,349.82a1,1,0,1,1-1.06,1A1,1,0,0,1,210.11,349.82Zm-.84,4H211v11.27h-1.68Z"/>
    <path class="cls-11" d="M215.19,361.79v-.11h1.52v.06c0,1.41,1.32,2.34,3.17,2.34s3-.69,3-2.14a1.58,1.58,0,0,0-1.41-1.56l-3.34-.77c-1.68-.37-2.64-1.39-2.64-2.86,0-2.11,1.78-3.21,4.27-3.21s4.18,1.43,4.18,3.52v.11h-1.52v-.07c0-1.39-1-2.31-2.69-2.31s-2.7.66-2.7,1.92a1.36,1.36,0,0,0,1.19,1.45l3.45.81c1.74.42,2.77,1.28,2.77,2.91,0,2-1.93,3.45-4.57,3.45S215.19,364,215.19,361.79Z"/>
    <path class="cls-11" d="M229.34,349.82a1,1,0,1,1-1.06,1A1,1,0,0,1,229.34,349.82Zm-.84,4h1.67v11.27H228.5Z"/>
    <path class="cls-11" d="M235,353.8h1.58v1.91a3.77,3.77,0,0,1,3.76-2.17c2.53,0,4.14,1.71,4.14,4.42v7.11h-1.67V358.2c0-1.91-.86-3.21-2.88-3.21a3.1,3.1,0,0,0-3.26,3.45v6.63H235Z"/>
    <path class="cls-11" d="M248.63,366.28h1.65a3.39,3.39,0,0,0,3.23,1.56c2,0,3.3-1.1,3.3-2.82v-2.55A4,4,0,0,1,253,364.6a4.38,4.38,0,0,1-4.6-4.59v-1.87a4.35,4.35,0,0,1,4.62-4.6,4.05,4.05,0,0,1,3.83,2.13V353.8h1.61v11.27c0,2.33-2.11,4.09-5,4.09C251.27,369.16,249.25,368.12,248.63,366.28Zm8.18-6.45v-1.45a3.39,3.39,0,0,0-3.38-3.48,3,3,0,0,0-3.35,3.37v1.6c0,2.12,1.12,3.37,3.28,3.37A3.28,3.28,0,0,0,256.81,359.83Z"/>
  </g>
</svg>
