<svg id="Layer_1" data-name="Layer 1" xmlns="http://www.w3.org/2000/svg" viewBox="0 0 870 620">
  <defs>
    <style>
      .cls-1, .cls-3, .cls-4, .cls-5, .cls-6, .cls-8 {
        fill: none;
      }

      .cls-1 {
        stroke: #6e6e80;
        stroke-width: 1.25px;
        opacity: 0.3;
      }

      .cls-1, .cls-3, .cls-4, .cls-5 {
        stroke-miterlimit: 10;
      }

      .cls-2 {
        fill: #e6f3f3;
      }

      .cls-3, .cls-4, .cls-5 {
        stroke: #e6f3f3;
      }

      .cls-3 {
        stroke-width: 1.34px;
      }

      .cls-4 {
        stroke-width: 1.34px;
      }

      .cls-5 {
        stroke-width: 1.25px;
      }

      .cls-6 {
        stroke: #27b5ea;
        stroke-linecap: square;
        stroke-width: 2px;
      }

      .cls-6, .cls-8 {
        stroke-linejoin: round;
      }

      .cls-7 {
        fill: #27b5ea;
      }

      .cls-8 {
        stroke: #68de7a;
        stroke-linecap: round;
        stroke-width: 1.5px;
        stroke-dasharray: 5 5;
        opacity: 0.75;
        isolation: isolate;
      }

      .cls-9 {
        fill: #68de7a;
      }
    </style>
  </defs>
  <title>openai-spinning-up-black-qa</title>
  <g>
    <line class="cls-1" x1="139.96" y1="80.25" x2="819.96" y2="80.25"/>
    <line class="cls-1" x1="139.96" y1="401.24" x2="819.96" y2="401.24"/>
    <line class="cls-1" x1="139.96" y1="473.47" x2="819.96" y2="473.47"/>
    <line class="cls-1" x1="281.34" y1="481.49" x2="281.34"/>
    <line class="cls-1" x1="388.27" y1="481.49" x2="388.27"/>
    <line class="cls-1" x1="425.45" y1="481.49" x2="425.45"/>
    <line class="cls-1" x1="464.13" y1="481.49" x2="464.13"/>
    <line class="cls-1" x1="522.97" y1="481.49" x2="522.97"/>
    <line class="cls-1" x1="571.05" y1="481.49" x2="571.05"/>
    <line class="cls-1" x1="611.7" y1="481.49" x2="611.7"/>
    <line class="cls-1" x1="633.88" y1="481.49" x2="633.88"/>
    <line class="cls-1" x1="646.91" y1="481.49" x2="646.91"/>
    <line class="cls-1" x1="677.97" y1="481.49" x2="677.97"/>
    <line class="cls-1" x1="819.96" y1="481.49" x2="819.96"/>
  </g>
  <g>
    <path class="cls-2" d="M60,288.41v2.08l-4.81,1.73v8.72l4.81,1.7v2.08l-18.9-7.1v-2.11Zm-6.48,11.93v-7.53L43,296.56Z"/>
    <path class="cls-2" d="M54.22,284.71H51.9a5.76,5.76,0,0,1-6.08-6.13c0-3.48,2.27-5.75,5.18-5.91v1.84a3.82,3.82,0,0,0-3.56,4c0,2.84,1.84,4.16,4.43,4.16h2.37c2.59,0,4.43-1.32,4.43-4.16a3.82,3.82,0,0,0-3.56-4v-1.84c2.91.16,5.18,2.43,5.18,5.91A5.76,5.76,0,0,1,54.22,284.71Z"/>
    <path class="cls-2" d="M54.22,268.24H51.9a5.77,5.77,0,0,1-6.08-6.13c0-3.48,2.27-5.75,5.18-5.91V258a3.83,3.83,0,0,0-3.56,4.05c0,2.84,1.84,4.16,4.43,4.16h2.37c2.59,0,4.43-1.32,4.43-4.16A3.83,3.83,0,0,0,55.11,258V256.2c2.91.16,5.18,2.43,5.18,5.91A5.77,5.77,0,0,1,54.22,268.24Z"/>
    <path class="cls-2" d="M60,239.73v1.94H57.62c1.56.65,2.67,2.22,2.67,4.62,0,3-2.11,4.94-5.43,4.94H46.15v-2h8.42c2.35,0,4-1,4-3.4s-1.43-4-4.29-4H46.15v-2.05Z"/>
    <path class="cls-2" d="M46.15,234v-1.91h3.18c-2.13-.52-3.27-2-3.27-4.51v-.33H48v.41c0,2.62,1.73,4.29,5.21,4.29H60V234Z"/>
    <path class="cls-2" d="M60,214.57H58.24a5.83,5.83,0,0,1,2,4.75c0,3.26-1.84,5.23-4.35,5.23-2.67,0-4.32-2.18-4.32-5.48a6,6,0,0,1,1.73-4.42H50.79a3.2,3.2,0,0,0-3.35,3.45,3.51,3.51,0,0,0,2.08,3.46v1.89a5.25,5.25,0,0,1-3.7-5.38c0-3.42,2.24-5.48,5-5.48H60Zm-4,.08c-1.73,0-3,2-3,4.13,0,2.29,1.08,3.83,3,3.83s3-1.59,3-3.73S57.7,214.65,55.92,214.65Z"/>
    <path class="cls-2" d="M54.22,207.7H51.9a5.76,5.76,0,0,1-6.08-6.12c0-3.49,2.27-5.75,5.18-5.91v1.83a3.83,3.83,0,0,0-3.56,4.05c0,2.83,1.84,4.16,4.43,4.16h2.37c2.59,0,4.43-1.33,4.43-4.16a3.83,3.83,0,0,0-3.56-4.05v-1.83c2.91.16,5.18,2.42,5.18,5.91A5.76,5.76,0,0,1,54.22,207.7Z"/>
    <path class="cls-2" d="M64.66,188.86,60,187.1l-13.82,5.16v-2L57.89,186l-11.74-4v-2L60,185.05l4.69,1.81Z"/>
  </g>
  <g>
    <path class="cls-2" d="M121.35,516.34l-3.21,1.51v-1.54l3.49-1.71H123V530h-1.69Z"/>
    <path class="cls-2" d="M129.6,516.34l-3.21,1.51v-1.54l3.49-1.71h1.41V530H129.6Z"/>
    <path class="cls-2" d="M143.3,516h-7.92V514.6H145v1.19L138.24,530h-1.69Z"/>
    <path class="cls-2" d="M162.18,530h-1.63V517.9l-4.24,8.38h-1.63l-4.25-8.38V530H148.8V514.6h1.61l5.08,10.16,5.08-10.16h1.61Z"/>
  </g>
  <g>
    <path class="cls-2" d="M398.18,514.6h9V516l-4.93,5.4h.6c2.84,0,4.84,1.71,4.84,4.33s-2.42,4.6-5.35,4.6c-2.64,0-5.08-1.59-5.19-4.51h1.56a3.35,3.35,0,0,0,3.65,3.14c2.22,0,3.68-1.36,3.68-3.19s-1.39-3.12-3.57-3.12h-2.09v-1.32l4.76-5.35h-6.94Z"/>
    <path class="cls-2" d="M418.34,526.33H411v-1.26l5.13-10.47h1.54l-5,10.45h5.66V521.4h1.56v3.65H422v1.28H419.9V530h-1.56Z"/>
    <path class="cls-2" d="M425.09,526.22h1.61a3.53,3.53,0,0,0,3.6,2.7,3.65,3.65,0,0,0,3.9-3.78,3.62,3.62,0,0,0-3.68-3.74,4.23,4.23,0,0,0-3.49,1.8h-1.61l1.45-8.6h7.68V516h-6.34l-1,5.53a4.77,4.77,0,0,1,3.6-1.5,4.92,4.92,0,0,1,5,5.08,5.26,5.26,0,0,1-5.55,5.22A5,5,0,0,1,425.09,526.22Z"/>
    <path class="cls-2" d="M453.14,530h-1.63V517.9l-4.24,8.38h-1.63l-4.25-8.38V530h-1.63V514.6h1.61l5.08,10.16,5.09-10.16h1.6Z"/>
  </g>
  <g>
    <path class="cls-2" d="M615.16,516h-7.93V514.6h9.66v1.19L610.09,530H608.4Z"/>
    <path class="cls-2" d="M625.83,514.6l-4.47,6.8v0a3.83,3.83,0,0,1,3.1-1.37,4.81,4.81,0,0,1,4.84,5.07,5.24,5.24,0,0,1-5.37,5.19,5.08,5.08,0,0,1-5.37-5.13,8.54,8.54,0,0,1,1.63-4.53l3.83-6ZM623.91,529a3.63,3.63,0,0,0,3.74-3.81,3.55,3.55,0,0,0-3.65-3.81,3.72,3.72,0,0,0-3.79,3.85A3.56,3.56,0,0,0,623.91,529Z"/>
    <path class="cls-2" d="M632.45,528.68l6.51-6.84a4.87,4.87,0,0,0,1.72-3.33,2.88,2.88,0,0,0-3.15-2.83,2.93,2.93,0,0,0-3.24,3.1v.35h-1.6v-.42c0-2.81,2-4.42,4.84-4.42s4.84,1.65,4.84,4.22c0,1.87-1.3,3.3-2.53,4.56l-5.44,5.54h8V530h-9.94Z"/>
    <path class="cls-2" d="M660,530h-1.63V517.9l-4.24,8.38h-1.63l-4.25-8.38V530h-1.63V514.6h1.61l5.08,10.16,5.08-10.16H660Z"/>
  </g>
  <g>
    <path class="cls-2" d="M789.37,516.34l-3.21,1.51v-1.54l3.5-1.71h1.4V530h-1.69Z"/>
    <path class="cls-2" d="M795.33,526.22h1.61a3.53,3.53,0,0,0,3.61,2.7,3.65,3.65,0,0,0,3.89-3.78,3.61,3.61,0,0,0-3.67-3.74,4.24,4.24,0,0,0-3.5,1.8h-1.61l1.45-8.6h7.68V516h-6.33l-1,5.53a4.77,4.77,0,0,1,3.61-1.5,4.91,4.91,0,0,1,5,5.08,5.25,5.25,0,0,1-5.54,5.22A5,5,0,0,1,795.33,526.22Z"/>
    <path class="cls-2" d="M816.65,526.33h-7.3v-1.26l5.12-10.47H816l-5,10.45h5.65V521.4h1.56v3.65h2.14v1.28h-2.14V530h-1.56Z"/>
    <path class="cls-2" d="M823.49,528.68l6.51-6.84a4.87,4.87,0,0,0,1.72-3.33,2.87,2.87,0,0,0-3.15-2.83,2.93,2.93,0,0,0-3.23,3.1v.35h-1.61v-.42c0-2.81,2-4.42,4.84-4.42s4.84,1.65,4.84,4.22c0,1.87-1.29,3.3-2.53,4.56l-5.43,5.54h8V530h-10Z"/>
    <path class="cls-2" d="M851,530h-1.63V517.9l-4.25,8.38h-1.63l-4.24-8.38V530h-1.63V514.6h1.6l5.09,10.16,5.08-10.16H851Z"/>
  </g>
  <line class="cls-3" x1="139.96" y1="481.49" x2="139.96" y2="495.65"/>
  <line class="cls-3" x1="139.96" y1="481.49" x2="139.96" y2="500"/>
  <line class="cls-3" x1="425.12" y1="481.49" x2="425.12" y2="495.65"/>
  <line class="cls-3" x1="425.12" y1="481.49" x2="425.12" y2="500"/>
  <line class="cls-3" x1="388.27" y1="481.49" x2="388.27" y2="490"/>
  <line class="cls-3" x1="281.34" y1="481.49" x2="281.34" y2="490"/>
  <line class="cls-3" x1="464.13" y1="481.49" x2="464.13" y2="490"/>
  <line class="cls-3" x1="522.97" y1="481.49" x2="522.97" y2="490"/>
  <line class="cls-3" x1="571.05" y1="481.49" x2="571.05" y2="490"/>
  <line class="cls-3" x1="611.7" y1="481.49" x2="611.7" y2="490"/>
  <line class="cls-3" x1="646.91" y1="481.49" x2="646.91" y2="490"/>
  <line class="cls-3" x1="677.97" y1="481.49" x2="677.97" y2="490"/>
  <line class="cls-3" x1="634.08" y1="481.49" x2="634.08" y2="500"/>
  <line class="cls-3" x1="819.96" y1="481.49" x2="819.96" y2="495.65"/>
  <line class="cls-3" x1="819.96" y1="481.49" x2="819.96" y2="500"/>
  <line class="cls-4" x1="139.96" y1="473.47" x2="119.96" y2="473.47"/>
  <line class="cls-4" x1="139.96" y1="401.24" x2="119.96" y2="401.24"/>
  <polyline class="cls-5" points="819.96 481.49 139.96 481.49 139.96 0"/>
  <line class="cls-4" x1="139.96" y1="80.25" x2="119.96" y2="80.25"/>
  <g>
    <path class="cls-2" d="M83.42,84.68H85a3.54,3.54,0,0,0,3.61,2.7,3.65,3.65,0,0,0,3.9-3.78,3.62,3.62,0,0,0-3.68-3.74,4.27,4.27,0,0,0-3.5,1.8h-1.6l1.45-8.6h7.68v1.39H86.54l-1,5.52a4.81,4.81,0,0,1,3.61-1.5,4.92,4.92,0,0,1,5,5.09,5.25,5.25,0,0,1-5.55,5.21A5,5,0,0,1,83.42,84.68Z"/>
    <path class="cls-2" d="M97.64,83.64V77.88c0-2.93,2-5.13,5.39-5.13s5.4,2.2,5.4,5.13v5.76c0,2.93-2,5.13-5.4,5.13S97.64,86.57,97.64,83.64Zm9.09.07v-5.9a3.7,3.7,0,0,0-7.4,0v5.9a3.7,3.7,0,0,0,7.4,0Z"/>
  </g>
  <g>
    <path class="cls-2" d="M91.74,395.79l-3.22,1.52v-1.54l3.5-1.71h1.41v15.4H91.74Z"/>
    <path class="cls-2" d="M97.64,404.64v-5.77c0-2.92,2-5.12,5.39-5.12s5.4,2.2,5.4,5.12v5.77c0,2.93-2,5.13-5.4,5.13S97.64,407.57,97.64,404.64Zm9.09.07v-5.9a3.7,3.7,0,0,0-7.4,0v5.9a3.7,3.7,0,0,0,7.4,0Z"/>
  </g>
  <path class="cls-2" d="M106.16,468l-3.22,1.52V468l3.5-1.72h1.41v15.4h-1.69Z"/>
  <g>
    <path class="cls-2" d="M328.38,551.1h2l10.39,15.53V551.1h2.05V570h-2l-10.39-15.52V570h-2.05Z"/>
    <path class="cls-2" d="M360.15,570h-1.94v-2.35c-.65,1.57-2.21,2.67-4.62,2.67-3,0-4.94-2.1-4.94-5.42v-8.72h2.05v8.42c0,2.35,1,4,3.41,4s4-1.43,4-4.3v-8.12h2Z"/>
    <path class="cls-2" d="M365.88,556.18h1.94v2.35a4.55,4.55,0,0,1,4.56-2.68,4.63,4.63,0,0,1,4.4,2.7,5.5,5.5,0,0,1,5-2.7c3,0,5,2.16,5,5.43V570h-2v-8.42c0-2.35-1.16-3.94-3.43-3.94s-3.94,1.37-3.94,4.23V570H375.3v-8.42c0-2.35-1.16-3.94-3.43-3.94s-3.94,1.37-3.94,4.23V570h-2.05Z"/>
    <path class="cls-2" d="M394.42,550.29v7.94a5.16,5.16,0,0,1,4.61-2.38c3.49,0,5.73,2.6,5.73,6.19v2.1c0,3.46-2.14,6.18-5.78,6.18a5.14,5.14,0,0,1-4.67-2.48V570h-1.94V550.29Zm8.28,11.83c0-2.54-1.43-4.59-4.05-4.59a4.27,4.27,0,0,0-4.23,4.59v1.78c0,2.67,1.48,4.75,4.21,4.75s4.07-2,4.07-4.59Z"/>
    <path class="cls-2" d="M409.13,564.3v-2.21c0-3.75,2.14-6.24,6-6.24s5.86,2.62,5.86,6v2.06H411.1v.48c0,2.4,1.24,4.35,4.13,4.35a3.67,3.67,0,0,0,3.81-2.67h1.83a5.44,5.44,0,0,1-5.64,4.23C411.64,570.32,409.13,568,409.13,564.3Zm2-1.94h8v-.65c0-2.45-1.24-4.29-3.94-4.29-3,0-4,2-4,4.51Z"/>
    <path class="cls-2" d="M426.12,556.18H428v3.18c.51-2.13,2-3.26,4.51-3.26h.32V558h-.4c-2.62,0-4.29,1.73-4.29,5.21V570h-2.05Z"/>
    <path class="cls-2" d="M443.61,564.22V562A6.17,6.17,0,0,1,456,562v2.26a6.17,6.17,0,0,1-12.34,0Zm6.18-6.72c-2.72,0-4.18,1.86-4.18,4.48v2.22c0,2.61,1.46,4.48,4.18,4.48s4.19-1.87,4.19-4.48V562C454,559.36,452.52,557.5,449.79,557.5Z"/>
    <path class="cls-2" d="M461.83,557.85h-2v-1.67h2v-1.84c0-2.67,1.19-4.05,4-4.05h1.94V552H466c-1.46,0-2.1.67-2.1,2.21v2h3.4v1.67h-3.4V570h-2.06Z"/>
    <path class="cls-2" d="M479.28,551.1h7.39c4,0,6.43,2.6,6.43,6s-2.46,6-6.43,6h-5.29V570h-2.1Zm7.2,10.29c3.11,0,4.51-2,4.51-4.29s-1.4-4.24-4.51-4.24h-5.1v8.53Z"/>
    <path class="cls-2" d="M506.44,570v-1.73a5.86,5.86,0,0,1-4.75,2.05c-3.27,0-5.24-1.83-5.24-4.34,0-2.68,2.19-4.32,5.48-4.32a6.06,6.06,0,0,1,4.43,1.73v-2.57a3.21,3.21,0,0,0-3.46-3.35,3.49,3.49,0,0,0-3.45,2.08h-1.89a5.23,5.23,0,0,1,5.37-3.7c3.43,0,5.48,2.24,5.48,5V570Zm-.08-4c0-1.73-2.06-2.94-4.13-2.94-2.3,0-3.84,1.08-3.84,3s1.6,3,3.73,3S506.36,567.73,506.36,566Z"/>
    <path class="cls-2" d="M514,556.18h1.92v3.18c.51-2.13,2-3.26,4.51-3.26h.32V558h-.4c-2.62,0-4.3,1.73-4.3,5.21V570h-2Z"/>
    <path class="cls-2" d="M533.41,570v-1.73a5.86,5.86,0,0,1-4.75,2.05c-3.27,0-5.24-1.83-5.24-4.34,0-2.68,2.19-4.32,5.48-4.32a6.06,6.06,0,0,1,4.43,1.73v-2.57a3.2,3.2,0,0,0-3.46-3.35,3.49,3.49,0,0,0-3.45,2.08h-1.89a5.23,5.23,0,0,1,5.37-3.7c3.43,0,5.48,2.24,5.48,5V570Zm-.08-4c0-1.73-2.05-2.94-4.13-2.94-2.3,0-3.83,1.08-3.83,3s1.59,3,3.72,3S533.33,567.73,533.33,566Z"/>
    <path class="cls-2" d="M540.94,556.18h1.95v2.35a4.55,4.55,0,0,1,4.56-2.68,4.64,4.64,0,0,1,4.4,2.7,5.49,5.49,0,0,1,5-2.7c3,0,5,2.16,5,5.43V570h-2.05v-8.42c0-2.35-1.17-3.94-3.43-3.94s-3.94,1.37-3.94,4.23V570h-2.06v-8.42c0-2.35-1.16-3.94-3.42-3.94S543,559,543,561.87V570h-2.06Z"/>
    <path class="cls-2" d="M566.76,564.3v-2.21c0-3.75,2.13-6.24,6-6.24s5.85,2.62,5.85,6v2.06h-9.9v.48c0,2.4,1.24,4.35,4.13,4.35a3.66,3.66,0,0,0,3.8-2.67h1.84a5.45,5.45,0,0,1-5.64,4.23C569.27,570.32,566.76,568,566.76,564.3Zm2-1.94h8v-.65c0-2.45-1.24-4.29-3.94-4.29-3,0-4,2-4,4.51Z"/>
    <path class="cls-2" d="M588.54,570c-2.64,0-3.75-1.32-3.75-3.67v-8.48h-2.35v-1.67h2.35v-4h2.05v4h3.54v1.67h-3.54v8.48c0,1.4.52,2,2.06,2h1.37V570Z"/>
    <path class="cls-2" d="M594.27,564.3v-2.21c0-3.75,2.13-6.24,6-6.24s5.86,2.62,5.86,6v2.06h-9.91v.48c0,2.4,1.24,4.35,4.13,4.35a3.67,3.67,0,0,0,3.81-2.67H606a5.45,5.45,0,0,1-5.64,4.23C596.78,570.32,594.27,568,594.27,564.3Zm2-1.94h8v-.65c0-2.45-1.24-4.29-3.94-4.29-3,0-4,2-4,4.51Z"/>
    <path class="cls-2" d="M611.25,556.18h1.92v3.18c.51-2.13,2-3.26,4.51-3.26H618V558h-.4c-2.62,0-4.3,1.73-4.3,5.21V570h-2Z"/>
    <path class="cls-2" d="M621.35,566v-.14h1.86v.08c0,1.73,1.62,2.86,3.89,2.86s3.67-.83,3.67-2.61a1.93,1.93,0,0,0-1.73-1.92l-4.1-1c-2.05-.45-3.24-1.7-3.24-3.5,0-2.6,2.19-3.95,5.24-3.95,2.89,0,5.13,1.76,5.13,4.32v.14H630.2v-.08c0-1.7-1.24-2.84-3.29-2.84s-3.32.81-3.32,2.35a1.67,1.67,0,0,0,1.46,1.78l4.24,1c2.13.52,3.4,1.57,3.4,3.57,0,2.45-2.38,4.23-5.62,4.23S621.35,568.65,621.35,566Z"/>
  </g>
  <g>
    <path class="cls-6" d="M140,475.32,425.12,466l209-5.8L820,448.56"/>
    <path class="cls-7" d="M425.12,471a5,5,0,1,0-3.53-1.46A5,5,0,0,0,425.12,471Z"/>
    <path class="cls-7" d="M140,480.32a5,5,0,1,0-3.53-1.47A5,5,0,0,0,140,480.32Z"/>
    <path class="cls-7" d="M634.08,465.16a5,5,0,1,0-3.53-1.46A5,5,0,0,0,634.08,465.16Z"/>
    <path class="cls-7" d="M820,453.56a5,5,0,1,0-3.53-1.46A5,5,0,0,0,820,453.56Z"/>
    <path class="cls-8" d="M140,248.51H820"/>
    <path class="cls-8" d="M140,63.48H820"/>
  </g>
  <g>
    <path class="cls-9" d="M152,38.08h6.36c2.73,0,4.21,1.61,4.21,3.83a3.79,3.79,0,0,1-2.27,3.61,3.71,3.71,0,0,1,3.17,3.78c0,2.58-1.92,4.18-5,4.18H152ZM158,45a2.71,2.71,0,0,0,2.9-2.82,2.62,2.62,0,0,0-2.9-2.71h-4.34V45Zm.4,7.19c2.2,0,3.41-1,3.41-3,0-1.71-1.26-2.9-3.39-2.9h-4.76v5.85Z"/>
    <path class="cls-9" d="M167.65,38.08h10.17v1.43h-8.45V45h7.81V46.4h-7.81v5.65h8.47v1.43H167.65Z"/>
    <path class="cls-9" d="M182.15,38.08h6.36c3.39,0,5.17,2.18,5.17,4.91a4.68,4.68,0,0,1-3.32,4.6l3.34,5.89h-2l-3.12-5.63h-4.76v5.63h-1.71Zm6.14,8.41A3.31,3.31,0,0,0,192,43a3.35,3.35,0,0,0-3.67-3.52h-4.43v7Z"/>
    <path class="cls-9" d="M201,39.51h-4.71V38.08h11.14v1.43h-4.71v14H201Z"/>
  </g>
  <g>
    <path class="cls-9" d="M157.75,223.1c3.92,0,6.07,2.49,6.07,5.92v3.57c0,3.43-2.15,5.92-6.07,5.92H152V223.1Zm4.38,9.49V229c0-2.68-1.58-4.51-4.62-4.51h-3.85V237.1h3.85C160.55,237.1,162.13,235.27,162.13,232.59Z"/>
    <path class="cls-9" d="M167.67,233.86v-1.8c0-3.06,1.74-5.08,4.91-5.08s4.77,2.13,4.77,4.9v1.68h-8.07V234c0,2,1,3.55,3.37,3.55a3,3,0,0,0,3.1-2.18h1.49a4.44,4.44,0,0,1-4.59,3.45A4.65,4.65,0,0,1,167.67,233.86Zm1.61-1.58h6.51v-.53c0-2-1-3.5-3.21-3.5-2.42,0-3.3,1.61-3.3,3.68Z"/>
    <path class="cls-9" d="M181,233.82v-1.89a4.7,4.7,0,0,1,5-5,4.49,4.49,0,0,1,4.82,4.22h-1.49a3.12,3.12,0,0,0-3.3-2.9c-2.31,0-3.39,1.49-3.39,3.61v1.93c0,2.11,1.08,3.61,3.39,3.61a3.12,3.12,0,0,0,3.3-2.9h1.49a4.49,4.49,0,0,1-4.82,4.22A4.7,4.7,0,0,1,181,233.82Z"/>
    <path class="cls-9" d="M207.27,238.51h-1.69l-1.41-3.92h-7.11l-1.38,3.92H194l5.79-15.41h1.72Zm-9.72-5.28h6.14l-3.06-8.56Z"/>
    <path class="cls-9" d="M214.31,238.51c-2.15,0-3.06-1.08-3.06-3v-6.9h-1.91v-1.37h1.91V224h1.68v3.23h2.88v1.37h-2.88v6.9c0,1.15.41,1.63,1.67,1.63h1.12v1.37Z"/>
    <path class="cls-9" d="M223.46,238.51c-2.15,0-3.05-1.08-3.05-3v-6.9h-1.92v-1.37h1.92V224h1.67v3.23H225v1.37h-2.88v6.9c0,1.15.42,1.63,1.67,1.63h1.12v1.37Z"/>
    <path class="cls-9" d="M227.82,230.89H234v1.48h-6.14Z"/>
    <path class="cls-9" d="M244.32,223.1c3.92,0,6.07,2.49,6.07,5.92v3.57c0,3.43-2.15,5.92-6.07,5.92h-5.79V223.1Zm4.38,9.49V229c0-2.68-1.59-4.51-4.62-4.51h-3.85V237.1h3.85C247.11,237.1,248.7,235.27,248.7,232.59Z"/>
    <path class="cls-9" d="M254.24,233.8V232a5,5,0,0,1,10.06,0v1.85a5,5,0,0,1-10.06,0Zm5-5.48c-2.22,0-3.41,1.52-3.41,3.65v1.81c0,2.13,1.19,3.65,3.41,3.65s3.41-1.52,3.41-3.65V232C262.69,229.84,261.5,228.32,259.28,228.32Z"/>
    <path class="cls-9" d="M267.86,233.82v-1.89a4.7,4.7,0,0,1,5-5,4.49,4.49,0,0,1,4.82,4.22h-1.49a3.12,3.12,0,0,0-3.3-2.9c-2.32,0-3.39,1.49-3.39,3.61v1.93c0,2.11,1.07,3.61,3.39,3.61a3.12,3.12,0,0,0,3.3-2.9h1.49a4.49,4.49,0,0,1-4.82,4.22A4.7,4.7,0,0,1,267.86,233.82Z"/>
    <path class="cls-9" d="M282.05,223.1h6.36c3.39,0,5.17,2.18,5.17,4.91a4.67,4.67,0,0,1-3.32,4.6l3.34,5.9h-2l-3.12-5.64h-4.76v5.64h-1.71Zm6.14,8.41a3.31,3.31,0,0,0,3.67-3.5,3.35,3.35,0,0,0-3.67-3.52h-4.43v7Z"/>
    <path class="cls-9" d="M297.07,233.86v-1.8c0-3.06,1.74-5.08,4.91-5.08s4.78,2.13,4.78,4.9v1.68h-8.08V234c0,2,1,3.55,3.37,3.55a3,3,0,0,0,3.1-2.18h1.5a4.46,4.46,0,0,1-4.6,3.45A4.65,4.65,0,0,1,297.07,233.86Zm1.61-1.58h6.51v-.53c0-2-1-3.5-3.21-3.5-2.42,0-3.3,1.61-3.3,3.68Z"/>
    <path class="cls-9" d="M318.48,238.51V237.1a4.76,4.76,0,0,1-3.87,1.67c-2.66,0-4.27-1.5-4.27-3.54s1.78-3.52,4.47-3.52a4.94,4.94,0,0,1,3.61,1.41V231a2.62,2.62,0,0,0-2.82-2.73,2.86,2.86,0,0,0-2.82,1.69h-1.54a4.26,4.26,0,0,1,4.38-3c2.8,0,4.47,1.82,4.47,4.05v7.48Zm-.06-3.3c0-1.41-1.68-2.4-3.37-2.4-1.87,0-3.13.88-3.13,2.44s1.3,2.44,3,2.44S318.42,236.66,318.42,235.21Z"/>
    <path class="cls-9" d="M334.17,222.44v16.07h-1.59v-1.76a4.19,4.19,0,0,1-3.8,2c-3,0-4.71-2.22-4.71-5V232c0-2.93,1.82-5,4.66-5a4.21,4.21,0,0,1,3.76,1.93v-6.47Zm-8.43,11.23c0,2.06,1,3.74,3.32,3.74s3.43-1.7,3.43-3.88v-1.45a3.48,3.48,0,0,0-3.45-3.74c-2.13,0-3.3,1.67-3.3,3.74Z"/>
    <path class="cls-9" d="M338.28,233.86v-1.8c0-3.06,1.74-5.08,4.91-5.08s4.77,2.13,4.77,4.9v1.68h-8.07V234c0,2,1,3.55,3.36,3.55a3,3,0,0,0,3.1-2.18h1.5a4.44,4.44,0,0,1-4.6,3.45A4.65,4.65,0,0,1,338.28,233.86Zm1.61-1.58h6.51v-.53c0-2-1-3.5-3.21-3.5-2.42,0-3.3,1.61-3.3,3.68Z"/>
    <path class="cls-9" d="M352.12,227.24h1.56v2.6a3.35,3.35,0,0,1,3.67-2.67h.27v1.57h-.33c-2.14,0-3.5,1.41-3.5,4.24v5.53h-1.67Z"/>
  </g>
</svg>
