<svg id="Layer_1" data-name="Layer 1" xmlns="http://www.w3.org/2000/svg" viewBox="0 0 870 622.74">
  <defs>
    <style>
      .cls-1, .cls-3, .cls-4, .cls-5, .cls-7, .cls-9 {
        fill: none;
      }

      .cls-1 {
        stroke: #6e6e80;
        stroke-width: 1.25px;
        opacity: 0.3;
      }

      .cls-1, .cls-3, .cls-4, .cls-5 {
        stroke-miterlimit: 10;
      }

      .cls-2 {
        fill: #e6f3f3;
      }

      .cls-3, .cls-4, .cls-5 {
        stroke: #e6f3f3;
      }

      .cls-3 {
        stroke-width: 1.34px;
      }

      .cls-4 {
        stroke-width: 1.34px;
      }

      .cls-5 {
        stroke-width: 1.25px;
      }

      .cls-6 {
        fill: #68de7a;
      }

      .cls-7 {
        stroke: #68de7a;
        stroke-linecap: round;
        stroke-width: 1.5px;
        stroke-dasharray: 5 5;
        opacity: 0.75;
        isolation: isolate;
      }

      .cls-7, .cls-9 {
        stroke-linejoin: round;
      }

      .cls-8 {
        fill: #27b5ea;
      }

      .cls-9 {
        stroke: #27b5ea;
        stroke-linecap: square;
        stroke-width: 2px;
      }
    </style>
  </defs>
  <title>openai-spinning-up-black-reading-comprehension</title>
  <g>
    <line class="cls-1" x1="139.96" y1="94.79" x2="819.96" y2="94.79"/>
    <line class="cls-1" x1="139.96" y1="23.99" x2="819.96" y2="23.99"/>
    <line class="cls-1" x1="139.96" y1="194.74" x2="819.96" y2="194.74"/>
    <line class="cls-1" x1="139.96" y1="378.03" x2="819.96" y2="378.03"/>
    <line class="cls-1" x1="139.96" y1="448.83" x2="819.96" y2="448.83"/>
    <line class="cls-1" x1="139.96" y1="307.22" x2="819.96" y2="307.22"/>
    <line class="cls-1" x1="139.96" y1="236.41" x2="819.96" y2="236.41"/>
    <line class="cls-1" x1="139.96" y1="165.6" x2="819.96" y2="165.6"/>
    <line class="cls-1" x1="281.34" y1="484.24" x2="281.34" y2="2.74"/>
    <line class="cls-1" x1="388.27" y1="484.24" x2="388.27" y2="2.74"/>
    <line class="cls-1" x1="425.45" y1="484.24" x2="425.45" y2="2.74"/>
    <line class="cls-1" x1="464.13" y1="484.24" x2="464.13" y2="2.74"/>
    <line class="cls-1" x1="522.97" y1="484.24" x2="522.97" y2="2.74"/>
    <line class="cls-1" x1="571.05" y1="484.24" x2="571.05" y2="2.74"/>
    <line class="cls-1" x1="611.7" y1="484.24" x2="611.7" y2="2.74"/>
    <line class="cls-1" x1="633.88" y1="484.24" x2="633.88" y2="2.74"/>
    <line class="cls-1" x1="646.91" y1="484.24" x2="646.91" y2="2.74"/>
    <line class="cls-1" x1="677.97" y1="484.24" x2="677.97" y2="2.74"/>
    <line class="cls-1" x1="819.96" y1="484.24" x2="819.96" y2="2.74"/>
  </g>
  <g>
    <path class="cls-2" d="M41.07,256.08V243.85h1.76V254h7v-9.34h1.75V254H60v2.11Z"/>
    <path class="cls-2" d="M43.2,236.61l1.87,3.94H43.18l-2.11-4.29v-1.73H60v2.08Z"/>
  </g>
  <g>
    <path class="cls-2" d="M121.35,519.08l-3.21,1.52v-1.54l3.49-1.72H123v15.4h-1.69Z"/>
    <path class="cls-2" d="M129.6,519.08l-3.21,1.52v-1.54l3.49-1.72h1.41v15.4H129.6Z"/>
    <path class="cls-2" d="M143.3,518.73h-7.92v-1.39H145v1.19l-6.8,14.21h-1.69Z"/>
    <path class="cls-2" d="M162.18,532.74h-1.63v-12.1L156.31,529h-1.63l-4.25-8.39v12.1H148.8v-15.4h1.61l5.08,10.17,5.08-10.17h1.61Z"/>
  </g>
  <g>
    <path class="cls-2" d="M398.18,517.34h9v1.39l-4.93,5.39h.6c2.84,0,4.84,1.71,4.84,4.33s-2.42,4.6-5.35,4.6c-2.64,0-5.08-1.58-5.19-4.51h1.56a3.36,3.36,0,0,0,3.65,3.15c2.22,0,3.68-1.37,3.68-3.19s-1.39-3.13-3.57-3.13h-2.09v-1.32l4.76-5.34h-6.94Z"/>
    <path class="cls-2" d="M418.34,529.07H411v-1.25l5.13-10.48h1.54l-5,10.45h5.66v-3.65h1.56v3.65H422v1.28H419.9v3.67h-1.56Z"/>
    <path class="cls-2" d="M425.09,529h1.61a3.54,3.54,0,0,0,3.6,2.71,3.66,3.66,0,0,0,3.9-3.79,3.62,3.62,0,0,0-3.68-3.74A4.24,4.24,0,0,0,427,526h-1.61l1.45-8.61h7.68v1.39h-6.34l-1,5.52a4.77,4.77,0,0,1,3.6-1.5,4.92,4.92,0,0,1,5,5.09,5.25,5.25,0,0,1-5.55,5.21A5,5,0,0,1,425.09,529Z"/>
    <path class="cls-2" d="M453.14,532.74h-1.63v-12.1L447.27,529h-1.63l-4.25-8.39v12.1h-1.63v-15.4h1.61l5.08,10.17,5.09-10.17h1.6Z"/>
  </g>
  <g>
    <path class="cls-2" d="M615.16,518.73h-7.93v-1.39h9.66v1.19l-6.8,14.21H608.4Z"/>
    <path class="cls-2" d="M625.83,517.34l-4.47,6.8v0a3.82,3.82,0,0,1,3.1-1.36,4.8,4.8,0,0,1,4.84,5.06,5.24,5.24,0,0,1-5.37,5.19,5.08,5.08,0,0,1-5.37-5.12,8.57,8.57,0,0,1,1.63-4.54l3.83-6Zm-1.92,14.37a3.63,3.63,0,0,0,3.74-3.81,3.55,3.55,0,0,0-3.65-3.8,3.72,3.72,0,0,0-3.79,3.85A3.55,3.55,0,0,0,623.91,531.71Z"/>
    <path class="cls-2" d="M632.45,531.42l6.51-6.84a4.85,4.85,0,0,0,1.72-3.32,2.88,2.88,0,0,0-3.15-2.84,2.93,2.93,0,0,0-3.24,3.1v.36h-1.6v-.42c0-2.82,2-4.43,4.84-4.43s4.84,1.65,4.84,4.23c0,1.87-1.3,3.3-2.53,4.55l-5.44,5.55h8v1.38h-9.94Z"/>
    <path class="cls-2" d="M660,532.74h-1.63v-12.1L654.1,529h-1.63l-4.25-8.39v12.1h-1.63v-15.4h1.61l5.08,10.17,5.08-10.17H660Z"/>
  </g>
  <g>
    <path class="cls-2" d="M789.37,519.08l-3.21,1.52v-1.54l3.5-1.72h1.4v15.4h-1.69Z"/>
    <path class="cls-2" d="M795.33,529h1.61a3.54,3.54,0,0,0,3.61,2.71,3.66,3.66,0,0,0,3.89-3.79,3.61,3.61,0,0,0-3.67-3.74,4.24,4.24,0,0,0-3.5,1.81h-1.61l1.45-8.61h7.68v1.39h-6.33l-1,5.52a4.77,4.77,0,0,1,3.61-1.5,4.92,4.92,0,0,1,5,5.09,5.25,5.25,0,0,1-5.54,5.21A5,5,0,0,1,795.33,529Z"/>
    <path class="cls-2" d="M816.65,529.07h-7.3v-1.25l5.12-10.48H816l-5,10.45h5.65v-3.65h1.56v3.65h2.14v1.28h-2.14v3.67h-1.56Z"/>
    <path class="cls-2" d="M823.49,531.42l6.51-6.84a4.85,4.85,0,0,0,1.72-3.32,2.87,2.87,0,0,0-3.15-2.84,2.93,2.93,0,0,0-3.23,3.1v.36h-1.61v-.42c0-2.82,2-4.43,4.84-4.43s4.84,1.65,4.84,4.23c0,1.87-1.29,3.3-2.53,4.55l-5.43,5.55h8v1.38h-10Z"/>
    <path class="cls-2" d="M851,532.74h-1.63v-12.1L845.14,529h-1.63l-4.24-8.39v12.1h-1.63v-15.4h1.6l5.09,10.17,5.08-10.17H851Z"/>
  </g>
  <line class="cls-3" x1="139.96" y1="484.24" x2="139.96" y2="498.4"/>
  <line class="cls-3" x1="139.96" y1="484.24" x2="139.96" y2="502.74"/>
  <line class="cls-3" x1="425.12" y1="484.24" x2="425.12" y2="498.4"/>
  <line class="cls-3" x1="425.12" y1="484.24" x2="425.12" y2="502.74"/>
  <line class="cls-3" x1="388.27" y1="484.24" x2="388.27" y2="492.74"/>
  <line class="cls-3" x1="281.34" y1="484.24" x2="281.34" y2="492.74"/>
  <line class="cls-3" x1="464.13" y1="484.24" x2="464.13" y2="492.74"/>
  <line class="cls-3" x1="522.97" y1="484.24" x2="522.97" y2="492.74"/>
  <line class="cls-3" x1="571.05" y1="484.24" x2="571.05" y2="492.74"/>
  <line class="cls-3" x1="611.7" y1="484.24" x2="611.7" y2="492.74"/>
  <line class="cls-3" x1="646.91" y1="484.24" x2="646.91" y2="492.74"/>
  <line class="cls-3" x1="677.97" y1="484.24" x2="677.97" y2="492.74"/>
  <line class="cls-3" x1="634.08" y1="484.24" x2="634.08" y2="502.74"/>
  <line class="cls-3" x1="819.96" y1="484.24" x2="819.96" y2="498.4"/>
  <line class="cls-3" x1="819.96" y1="484.24" x2="819.96" y2="502.74"/>
  <line class="cls-4" x1="139.96" y1="448.83" x2="119.96" y2="448.83"/>
  <line class="cls-4" x1="139.96" y1="378.03" x2="119.96" y2="378.03"/>
  <line class="cls-4" x1="139.96" y1="236.41" x2="119.96" y2="236.41"/>
  <line class="cls-4" x1="139.96" y1="165.6" x2="119.96" y2="165.6"/>
  <line class="cls-4" x1="139.96" y1="23.99" x2="119.96" y2="23.99"/>
  <polyline class="cls-5" points="819.96 484.24 139.96 484.24 139.96 2.74"/>
  <g>
    <path class="cls-2" d="M87,32.2l4.34-6.64v0a4,4,0,0,1-3,1.21,4.83,4.83,0,0,1-4.85-5.06,5.38,5.38,0,0,1,10.75-.06,7.13,7.13,0,0,1-1.1,3.71L88.79,32.2ZM88.9,17.83a3.64,3.64,0,0,0-3.74,3.83,3.45,3.45,0,0,0,3.65,3.79,3.77,3.77,0,0,0,3.79-3.86A3.62,3.62,0,0,0,88.9,17.83Z"/>
    <path class="cls-2" d="M97.64,27.38V21.62c0-2.93,2-5.13,5.39-5.13s5.39,2.2,5.39,5.13v5.76c0,2.93-2,5.13-5.39,5.13S97.64,30.31,97.64,27.38Zm9.09.07v-5.9a3.7,3.7,0,0,0-7.4,0v5.9a3.7,3.7,0,0,0,7.4,0Z"/>
  </g>
  <line class="cls-4" x1="139.96" y1="94.79" x2="119.96" y2="94.79"/>
  <g>
    <path class="cls-2" d="M83.26,98.92A3.87,3.87,0,0,1,86.37,95a3.82,3.82,0,0,1-2.47-3.59c0-2.55,2-4.11,4.71-4.11s4.71,1.56,4.71,4.11A3.82,3.82,0,0,1,90.86,95,3.88,3.88,0,0,1,94,98.92c0,2.61-2.22,4.4-5.35,4.4S83.26,101.53,83.26,98.92Zm9.07,0c0-2-1.52-3.2-3.72-3.2s-3.72,1.19-3.72,3.2S86.5,102,88.61,102,92.33,100.79,92.33,98.92Zm-3.72-4.47a3,3,0,0,0,3.13-2.93,3.13,3.13,0,0,0-6.25,0A3,3,0,0,0,88.61,94.45Z"/>
    <path class="cls-2" d="M97.64,98.19V92.42c0-2.92,2-5.12,5.39-5.12s5.4,2.2,5.4,5.12v5.77c0,2.93-2,5.13-5.4,5.13S97.64,101.12,97.64,98.19Zm9.09.06V92.36a3.7,3.7,0,0,0-7.4,0v5.89a3.7,3.7,0,0,0,7.4,0Z"/>
  </g>
  <g>
    <path class="cls-2" d="M93.26,159.8H85.33v-1.39H95v1.19l-6.81,14.22H86.5Z"/>
    <path class="cls-2" d="M97.64,169v-5.77c0-2.92,2-5.12,5.39-5.12s5.4,2.2,5.4,5.12V169c0,2.92-2,5.12-5.4,5.12S97.64,171.92,97.64,169Zm9.09.06v-5.89a3.7,3.7,0,0,0-7.4,0v5.89a3.7,3.7,0,0,0,7.4,0Z"/>
  </g>
  <g>
    <path class="cls-2" d="M90.9,229.22,86.43,236v0a3.84,3.84,0,0,1,3.11-1.36,4.8,4.8,0,0,1,4.84,5.06A5.24,5.24,0,0,1,89,244.93a5.07,5.07,0,0,1-5.37-5.13,8.49,8.49,0,0,1,1.63-4.53l3.83-6.05ZM89,243.59a3.64,3.64,0,0,0,3.74-3.81,3.55,3.55,0,0,0-3.66-3.8,3.71,3.71,0,0,0-3.78,3.85A3.55,3.55,0,0,0,89,243.59Z"/>
    <path class="cls-2" d="M97.64,239.8V234c0-2.93,2-5.13,5.39-5.13s5.39,2.2,5.39,5.13v5.76c0,2.93-2,5.13-5.39,5.13S97.64,242.73,97.64,239.8Zm9.09.07V234a3.7,3.7,0,0,0-7.4,0v5.9a3.7,3.7,0,0,0,7.4,0Z"/>
  </g>
  <g>
    <path class="cls-2" d="M90.79,382.56H83.48v-1.25l5.13-10.47h1.54l-5,10.45h5.66v-3.65h1.57v3.65h2.13v1.27H92.36v3.68H90.79Z"/>
    <path class="cls-2" d="M97.64,381.42v-5.76c0-2.93,2-5.13,5.39-5.13s5.39,2.2,5.39,5.13v5.76c0,2.93-2,5.13-5.39,5.13S97.64,384.35,97.64,381.42Zm9.09.07v-5.9a3.7,3.7,0,0,0-7.4,0v5.9a3.7,3.7,0,0,0,7.4,0Z"/>
  </g>
  <line class="cls-4" x1="139.96" y1="307.22" x2="119.96" y2="307.22"/>
  <g>
    <path class="cls-2" d="M83.42,311.65H85a3.54,3.54,0,0,0,3.61,2.7,3.65,3.65,0,0,0,3.9-3.78,3.62,3.62,0,0,0-3.68-3.74,4.27,4.27,0,0,0-3.5,1.8h-1.6L85.2,300h7.68v1.39H86.54l-1,5.52a4.81,4.81,0,0,1,3.61-1.5,4.92,4.92,0,0,1,5,5.08,5.26,5.26,0,0,1-5.55,5.22A5,5,0,0,1,83.42,311.65Z"/>
    <path class="cls-2" d="M97.64,310.61v-5.76c0-2.93,2-5.13,5.39-5.13s5.39,2.2,5.39,5.13v5.76c0,2.93-2,5.13-5.39,5.13S97.64,313.54,97.64,310.61Zm9.09.07v-5.9a3.7,3.7,0,0,0-7.4,0v5.9a3.7,3.7,0,0,0,7.4,0Z"/>
  </g>
  <g>
    <path class="cls-2" d="M84.58,441.64h9V443l-4.94,5.39h.6c2.84,0,4.84,1.72,4.84,4.34s-2.42,4.6-5.35,4.6c-2.64,0-5.08-1.59-5.19-4.52h1.56A3.36,3.36,0,0,0,88.74,456c2.23,0,3.68-1.36,3.68-3.19s-1.39-3.12-3.57-3.12H86.76v-1.32L91.52,443H84.58Z"/>
    <path class="cls-2" d="M97.64,452.23v-5.77c0-2.92,2-5.12,5.39-5.12s5.4,2.2,5.4,5.12v5.77c0,2.93-2,5.13-5.4,5.13S97.64,455.16,97.64,452.23Zm9.09.06V446.4a3.7,3.7,0,0,0-7.4,0v5.89a3.7,3.7,0,0,0,7.4,0Z"/>
  </g>
  <g>
    <path class="cls-2" d="M328.38,553.85h2l10.39,15.52V553.85h2.05v18.89h-2l-10.39-15.52v15.52h-2.05Z"/>
    <path class="cls-2" d="M360.15,572.74h-1.94v-2.35c-.65,1.57-2.21,2.68-4.62,2.68-3,0-4.94-2.11-4.94-5.43v-8.72h2.05v8.42c0,2.35,1,4,3.41,4s4-1.43,4-4.29v-8.13h2Z"/>
    <path class="cls-2" d="M365.88,558.92h1.94v2.35a4.56,4.56,0,0,1,4.56-2.67,4.62,4.62,0,0,1,4.4,2.7,5.5,5.5,0,0,1,5-2.7c3,0,5,2.16,5,5.42v8.72h-2v-8.42c0-2.35-1.16-3.94-3.43-3.94s-3.94,1.38-3.94,4.24v8.12H375.3v-8.42c0-2.35-1.16-3.94-3.43-3.94s-3.94,1.38-3.94,4.24v8.12h-2.05Z"/>
    <path class="cls-2" d="M394.42,553V561A5.15,5.15,0,0,1,399,558.6c3.49,0,5.73,2.59,5.73,6.18v2.11c0,3.45-2.14,6.18-5.78,6.18a5.14,5.14,0,0,1-4.67-2.49v2.16h-1.94V553Zm8.28,11.82c0-2.54-1.43-4.59-4.05-4.59a4.27,4.27,0,0,0-4.23,4.59v1.78c0,2.68,1.48,4.75,4.21,4.75s4.07-2,4.07-4.59Z"/>
    <path class="cls-2" d="M409.13,567.05v-2.22c0-3.75,2.14-6.23,6-6.23s5.86,2.62,5.86,6v2H411.1v.49c0,2.4,1.24,4.34,4.13,4.34a3.67,3.67,0,0,0,3.81-2.67h1.83a5.45,5.45,0,0,1-5.64,4.24A5.71,5.71,0,0,1,409.13,567.05Zm2-1.95h8v-.64c0-2.46-1.24-4.3-3.94-4.3-3,0-4,2-4,4.51Z"/>
    <path class="cls-2" d="M426.12,558.92H428v3.19c.51-2.13,2-3.27,4.51-3.27h.32v1.92h-.4c-2.62,0-4.29,1.73-4.29,5.21v6.77h-2.05Z"/>
    <path class="cls-2" d="M443.61,567V564.7a6.17,6.17,0,0,1,12.34,0V567a6.17,6.17,0,0,1-12.34,0Zm6.18-6.72c-2.72,0-4.18,1.86-4.18,4.48v2.21c0,2.62,1.46,4.48,4.18,4.48s4.19-1.86,4.19-4.48v-2.21C454,562.11,452.52,560.25,449.79,560.25Z"/>
    <path class="cls-2" d="M461.83,560.6h-2v-1.68h2v-1.83c0-2.67,1.19-4.05,4-4.05h1.94v1.67H466c-1.46,0-2.1.68-2.1,2.22v2h3.4v1.68h-3.4v12.14h-2.06Z"/>
    <path class="cls-2" d="M479.28,553.85h7.39c4,0,6.43,2.59,6.43,6s-2.46,6-6.43,6h-5.29v6.85h-2.1Zm7.2,10.28c3.11,0,4.51-2,4.51-4.29s-1.4-4.24-4.51-4.24h-5.1v8.53Z"/>
    <path class="cls-2" d="M506.44,572.74V571a5.86,5.86,0,0,1-4.75,2.05c-3.27,0-5.24-1.84-5.24-4.35,0-2.67,2.19-4.32,5.48-4.32a6.06,6.06,0,0,1,4.43,1.73v-2.56a3.21,3.21,0,0,0-3.46-3.35,3.49,3.49,0,0,0-3.45,2.08h-1.89a5.22,5.22,0,0,1,5.37-3.7c3.43,0,5.48,2.24,5.48,5v9.17Zm-.08-4c0-1.72-2.06-2.94-4.13-2.94-2.3,0-3.84,1.08-3.84,3s1.6,3,3.73,3S506.36,570.48,506.36,568.69Z"/>
    <path class="cls-2" d="M514,558.92h1.92v3.19c.51-2.13,2-3.27,4.51-3.27h.32v1.92h-.4c-2.62,0-4.3,1.73-4.3,5.21v6.77h-2Z"/>
    <path class="cls-2" d="M533.41,572.74V571a5.86,5.86,0,0,1-4.75,2.05c-3.27,0-5.24-1.84-5.24-4.35,0-2.67,2.19-4.32,5.48-4.32a6.06,6.06,0,0,1,4.43,1.73v-2.56a3.2,3.2,0,0,0-3.46-3.35,3.49,3.49,0,0,0-3.45,2.08h-1.89a5.22,5.22,0,0,1,5.37-3.7c3.43,0,5.48,2.24,5.48,5v9.17Zm-.08-4c0-1.72-2.05-2.94-4.13-2.94-2.3,0-3.83,1.08-3.83,3s1.59,3,3.72,3S533.33,570.48,533.33,568.69Z"/>
    <path class="cls-2" d="M540.94,558.92h1.95v2.35a4.56,4.56,0,0,1,4.56-2.67,4.63,4.63,0,0,1,4.4,2.7,5.49,5.49,0,0,1,5-2.7c3,0,5,2.16,5,5.42v8.72h-2.05v-8.42c0-2.35-1.17-3.94-3.43-3.94s-3.94,1.38-3.94,4.24v8.12h-2.06v-8.42c0-2.35-1.16-3.94-3.42-3.94s-3.94,1.38-3.94,4.24v8.12h-2.06Z"/>
    <path class="cls-2" d="M566.76,567.05v-2.22c0-3.75,2.13-6.23,6-6.23s5.85,2.62,5.85,6v2h-9.9v.49c0,2.4,1.24,4.34,4.13,4.34a3.66,3.66,0,0,0,3.8-2.67h1.84a5.46,5.46,0,0,1-5.64,4.24A5.71,5.71,0,0,1,566.76,567.05Zm2-1.95h8v-.64c0-2.46-1.24-4.3-3.94-4.3-3,0-4,2-4,4.51Z"/>
    <path class="cls-2" d="M588.54,572.74c-2.64,0-3.75-1.32-3.75-3.67V560.6h-2.35v-1.68h2.35v-4h2.05v4h3.54v1.68h-3.54v8.47c0,1.41.52,2,2.06,2h1.37v1.67Z"/>
    <path class="cls-2" d="M594.27,567.05v-2.22c0-3.75,2.13-6.23,6-6.23s5.86,2.62,5.86,6v2h-9.91v.49c0,2.4,1.24,4.34,4.13,4.34a3.67,3.67,0,0,0,3.81-2.67H606a5.46,5.46,0,0,1-5.64,4.24A5.71,5.71,0,0,1,594.27,567.05Zm2-1.95h8v-.64c0-2.46-1.24-4.3-3.94-4.3-3,0-4,2-4,4.51Z"/>
    <path class="cls-2" d="M611.25,558.92h1.92v3.19c.51-2.13,2-3.27,4.51-3.27H618v1.92h-.4c-2.62,0-4.3,1.73-4.3,5.21v6.77h-2Z"/>
    <path class="cls-2" d="M621.35,568.72v-.13h1.86v.08c0,1.72,1.62,2.86,3.89,2.86s3.67-.84,3.67-2.62A1.94,1.94,0,0,0,629,567l-4.1-.94c-2.05-.46-3.24-1.7-3.24-3.51,0-2.59,2.19-3.94,5.24-3.94,2.89,0,5.13,1.75,5.13,4.32v.13H630.2V563c0-1.7-1.24-2.83-3.29-2.83s-3.32.81-3.32,2.35a1.68,1.68,0,0,0,1.46,1.78l4.24,1c2.13.51,3.4,1.56,3.4,3.56,0,2.46-2.38,4.24-5.62,4.24S621.35,571.39,621.35,568.72Z"/>
  </g>
  <g>
    <path class="cls-6" d="M152,0h1.72V6.91h8.14V0h1.72V15.4h-1.72v-7h-8.14v7H152Z"/>
    <path class="cls-6" d="M177.68,15.4H176.1V13.49a3.79,3.79,0,0,1-3.76,2.18c-2.47,0-4-1.72-4-4.43V4.14H170V11c0,1.92.84,3.26,2.77,3.26s3.26-1.17,3.26-3.5V4.14h1.67Z"/>
    <path class="cls-6" d="M182.35,4.14h1.58V6.05a3.71,3.71,0,0,1,3.72-2.18,3.77,3.77,0,0,1,3.58,2.2,4.49,4.49,0,0,1,4.1-2.2c2.46,0,4,1.76,4,4.42V15.4H197.7V8.54c0-1.92-.94-3.21-2.79-3.21s-3.21,1.12-3.21,3.45V15.4H190V8.54c0-1.92-.94-3.21-2.79-3.21S184,6.45,184,8.78V15.4h-1.67Z"/>
    <path class="cls-6" d="M211.56,15.4V14a4.73,4.73,0,0,1-3.87,1.68c-2.66,0-4.27-1.5-4.27-3.55s1.78-3.52,4.47-3.52A4.94,4.94,0,0,1,211.5,10V7.92a2.62,2.62,0,0,0-2.82-2.73,2.86,2.86,0,0,0-2.82,1.7h-1.54a4.28,4.28,0,0,1,4.38-3c2.8,0,4.47,1.83,4.47,4.05V15.4Zm-.06-3.3c0-1.41-1.68-2.4-3.37-2.4-1.87,0-3.12.88-3.12,2.45s1.29,2.44,3,2.44S211.5,13.55,211.5,12.1Z"/>
    <path class="cls-6" d="M217.7,4.14h1.58V6.05a3.78,3.78,0,0,1,3.77-2.18c2.53,0,4.13,1.72,4.13,4.42V15.4h-1.67V8.54c0-1.92-.86-3.21-2.88-3.21a3.1,3.1,0,0,0-3.26,3.45V15.4H217.7Z"/>
  </g>
  <g>
    <path class="cls-6" d="M157.75,167.11c3.92,0,6.07,2.48,6.07,5.92v3.56c0,3.43-2.15,5.92-6.07,5.92H152v-15.4Zm4.38,9.48V173c0-2.69-1.58-4.52-4.62-4.52h-3.85V181.1h3.85C160.55,181.1,162.13,179.27,162.13,176.59Z"/>
    <path class="cls-6" d="M168.22,171.24h1.56v2.6c.42-1.74,1.63-2.66,3.68-2.66h.26v1.56h-.33c-2.13,0-3.5,1.41-3.5,4.25v5.52h-1.67Z"/>
    <path class="cls-6" d="M187.1,181.76l1.1,2-1.32.68-1.1-2.05a7.88,7.88,0,0,1-2.46.4c-4.32,0-6.47-3.06-6.47-6.78v-2.46c0-3.72,2.15-6.78,6.47-6.78s6.46,3.06,6.46,6.78V176A6.67,6.67,0,0,1,187.1,181.76Zm-1.78-3.32,1.05,2a5.39,5.39,0,0,0,1.7-4.27v-2.64c0-2.91-1.48-5.26-4.75-5.26s-4.76,2.35-4.76,5.26v2.64c0,2.9,1.48,5.26,4.76,5.26a4.93,4.93,0,0,0,1.76-.27l-1.06-2Z"/>
    <path class="cls-6" d="M205.89,182.51h-1.7l-1.4-3.92h-7.11l-1.39,3.92H192.6l5.78-15.4h1.72Zm-9.73-5.28h6.14l-3.06-8.56Z"/>
    <path class="cls-6" d="M219.68,175.25h-4.16v-1.32h4.16v-4.49h1.5v4.49h4.16v1.32h-4.16v4.49h-1.5Z"/>
    <path class="cls-6" d="M236.14,167.11h6c3.24,0,5.24,2.11,5.24,4.88s-2,4.93-5.24,4.93h-4.31v5.59h-1.71Zm5.87,8.38a3.34,3.34,0,0,0,3.68-3.5c0-1.87-1.15-3.45-3.68-3.45h-4.16v7Z"/>
    <path class="cls-6" d="M261.57,172.17c-.07-2.16-1.65-3.94-4.42-3.94-3.17,0-4.6,2.18-4.6,5.26V176c0,3,1.36,5.39,4.71,5.39,2.75,0,4.44-1.56,4.44-4.53v-.4h-4.31v-1.43h6v1.63c0,3.54-2.18,6.12-6.12,6.12-4.29,0-6.4-3.06-6.4-6.82v-2.45c0-3.93,2.22-6.75,6.29-6.75,3.77,0,6,2.33,6.08,5.37Z"/>
    <path class="cls-6" d="M268,167.11h1.61l8.47,12.65V167.11h1.67v15.4h-1.61l-8.47-12.65v12.65H268Z"/>
    <path class="cls-6" d="M284.07,177.87v-1.81c0-3.06,1.74-5.08,4.91-5.08s4.77,2.13,4.77,4.91v1.67h-8.07V178c0,2,1,3.55,3.37,3.55a3,3,0,0,0,3.1-2.18h1.49a4.44,4.44,0,0,1-4.59,3.45A4.65,4.65,0,0,1,284.07,177.87Zm1.61-1.59h6.51v-.53c0-2-1-3.5-3.21-3.5-2.42,0-3.3,1.61-3.3,3.68Z"/>
    <path class="cls-6" d="M301.83,182.51c-2.16,0-3.06-1.08-3.06-3v-6.91h-1.92v-1.37h1.92V168h1.67v3.23h2.88v1.37h-2.88v6.91c0,1.14.42,1.62,1.67,1.62h1.13v1.37Z"/>
  </g>
  <g>
    <path class="cls-6" d="M157.75,248.54c3.92,0,6.07,2.48,6.07,5.91V258c0,3.43-2.15,5.92-6.07,5.92H152v-15.4Zm4.38,9.48v-3.57c0-2.68-1.58-4.51-4.62-4.51h-3.85v12.59h3.85C160.55,262.53,162.13,260.7,162.13,258Z"/>
    <path class="cls-6" d="M168.22,252.67h1.56v2.6c.42-1.74,1.63-2.66,3.68-2.66h.26v1.56h-.33c-2.13,0-3.5,1.41-3.5,4.25v5.52h-1.67Z"/>
    <path class="cls-6" d="M187.1,263.19l1.1,2-1.32.69-1.1-2a7.88,7.88,0,0,1-2.46.4c-4.32,0-6.47-3.06-6.47-6.78V255c0-3.71,2.15-6.77,6.47-6.77s6.46,3.06,6.46,6.77v2.47A6.67,6.67,0,0,1,187.1,263.19Zm-1.78-3.32,1.05,2a5.39,5.39,0,0,0,1.7-4.27v-2.64c0-2.91-1.48-5.26-4.75-5.26s-4.76,2.35-4.76,5.26v2.64c0,2.9,1.48,5.26,4.76,5.26a4.93,4.93,0,0,0,1.76-.27l-1.06-2Z"/>
    <path class="cls-6" d="M205.89,263.94h-1.7l-1.4-3.92h-7.11l-1.39,3.92H192.6l5.78-15.4h1.72Zm-9.73-5.28h6.14l-3.06-8.56Z"/>
  </g>
  <g>
    <path class="cls-6" d="M152,314.39h6c3.24,0,5.24,2.11,5.24,4.88s-2,4.93-5.24,4.93h-4.31v5.59H152Zm5.88,8.38a3.34,3.34,0,0,0,3.67-3.5,3.3,3.3,0,0,0-3.67-3.45h-4.16v6.95Z"/>
    <path class="cls-6" d="M177.4,319.45c-.07-2.16-1.65-3.94-4.43-3.94-3.16,0-4.59,2.18-4.59,5.26v2.55c0,3,1.36,5.39,4.7,5.39,2.75,0,4.45-1.56,4.45-4.53v-.4h-4.31v-1.43h6V324c0,3.54-2.18,6.12-6.12,6.12-4.29,0-6.4-3.06-6.4-6.82v-2.45c0-3.93,2.22-6.75,6.29-6.75,3.77,0,6,2.33,6.08,5.37Z"/>
    <path class="cls-6" d="M183.82,314.39h1.61L193.9,327V314.39h1.67v15.4H194l-8.47-12.65v12.65h-1.67Z"/>
    <path class="cls-6" d="M199.9,325.15v-1.81c0-3.06,1.74-5.08,4.91-5.08s4.77,2.13,4.77,4.91v1.67h-8.07v.4c0,1.95,1,3.54,3.36,3.54A3,3,0,0,0,208,326.6h1.49a4.44,4.44,0,0,1-4.6,3.45A4.65,4.65,0,0,1,199.9,325.15Zm1.61-1.59H208V323c0-2-1-3.49-3.21-3.49-2.42,0-3.3,1.6-3.3,3.67Z"/>
    <path class="cls-6" d="M217.66,329.79c-2.16,0-3.06-1.08-3.06-3v-6.91h-1.92v-1.37h1.92v-3.23h1.67v3.23h2.88v1.37h-2.88v6.91c0,1.14.42,1.62,1.67,1.62h1.12v1.37Z"/>
  </g>
  <g>
    <path class="cls-6" d="M715.29,452.27v-.4h1.63v.35c0,1.94,1.56,3.26,4.12,3.26s4.07-1.1,4.07-3.06a2.55,2.55,0,0,0-2.2-2.51l-4.36-1.14c-2.22-.57-3.06-1.87-3.06-3.63,0-2.73,2.16-4.31,5.32-4.31s5.4,1.78,5.4,4.4v.37H724.6v-.33c0-1.83-1.41-3.08-3.79-3.08-2.15,0-3.67,1-3.67,2.82a2.2,2.2,0,0,0,1.91,2.35l4.47,1.19c1.89.5,3.24,1.76,3.24,3.74,0,2.81-2.45,4.55-5.72,4.55S715.29,455.08,715.29,452.27Z"/>
    <path class="cls-6" d="M730.43,451.89v-1.8c0-3.06,1.74-5.08,4.9-5.08s4.78,2.13,4.78,4.9v1.67H732v.4c0,2,1,3.54,3.37,3.54a3,3,0,0,0,3.1-2.18H740a4.45,4.45,0,0,1-4.6,3.46A4.65,4.65,0,0,1,730.43,451.89Zm1.6-1.58h6.52v-.53c0-2-1-3.5-3.22-3.5-2.42,0-3.3,1.61-3.3,3.68Z"/>
    <path class="cls-6" d="M752.14,460.36v-5.5a4.2,4.2,0,0,1-3.76,1.94c-2.84,0-4.66-2.11-4.66-5V450c0-2.86,1.76-5,4.7-5a4.21,4.21,0,0,1,3.81,2v-1.76h1.58v15.09Zm-6.75-8.67c0,2.07,1.16,3.74,3.3,3.74a3.48,3.48,0,0,0,3.45-3.74v-1.45c0-2.18-1.21-3.87-3.43-3.87s-3.32,1.67-3.32,3.74Z"/>
    <path class="cls-6" d="M758.23,455.21l6.52-6.84a4.84,4.84,0,0,0,1.71-3.32,2.87,2.87,0,0,0-3.14-2.84,2.93,2.93,0,0,0-3.24,3.1v.36h-1.6v-.42c0-2.82,2-4.42,4.84-4.42s4.84,1.65,4.84,4.22c0,1.87-1.3,3.3-2.53,4.55l-5.44,5.55h8v1.39h-9.95Z"/>
    <path class="cls-6" d="M772.18,453.26v-.11h1.52v.06c0,1.41,1.32,2.33,3.17,2.33s3-.68,3-2.13a1.57,1.57,0,0,0-1.41-1.56l-3.34-.77c-1.67-.38-2.64-1.39-2.64-2.86,0-2.11,1.78-3.21,4.27-3.21s4.18,1.43,4.18,3.52v.11H779.4v-.07c0-1.39-1-2.31-2.68-2.31s-2.71.66-2.71,1.91a1.37,1.37,0,0,0,1.19,1.46l3.45.81c1.74.42,2.77,1.28,2.77,2.9,0,2-1.93,3.46-4.57,3.46S772.18,455.43,772.18,453.26Z"/>
    <path class="cls-6" d="M784.83,451.89v-1.8c0-3.06,1.74-5.08,4.91-5.08s4.77,2.13,4.77,4.9v1.67h-8.07v.4c0,2,1,3.54,3.37,3.54a3,3,0,0,0,3.1-2.18h1.49a4.44,4.44,0,0,1-4.59,3.46A4.65,4.65,0,0,1,784.83,451.89Zm1.61-1.58H793v-.53c0-2-1-3.5-3.21-3.5-2.42,0-3.3,1.61-3.3,3.68Z"/>
    <path class="cls-6" d="M806.55,460.36v-5.5a4.2,4.2,0,0,1-3.76,1.94c-2.84,0-4.67-2.11-4.67-5V450c0-2.86,1.76-5,4.71-5a4.22,4.22,0,0,1,3.81,2v-1.76h1.58v15.09Zm-6.76-8.67c0,2.07,1.17,3.74,3.3,3.74a3.49,3.49,0,0,0,3.46-3.74v-1.45c0-2.18-1.21-3.87-3.43-3.87s-3.33,1.67-3.33,3.74Z"/>
  </g>
  <g>
    <path class="cls-7" d="M140,466.54H820"/>
    <path class="cls-7" d="M140,339.79H820"/>
    <path class="cls-7" d="M140,273.94H820"/>
    <path class="cls-7" d="M140,192.51H820"/>
    <path class="cls-7" d="M140,25.4H820"/>
    <path class="cls-8" d="M425.14,357.53a5,5,0,1,0-3.54-1.46A5,5,0,0,0,425.14,357.53Z"/>
    <path class="cls-8" d="M140,482.16a5,5,0,1,0-3.53-1.47A5,5,0,0,0,140,482.16Z"/>
    <path class="cls-8" d="M634.11,312.93a5,5,0,1,0-3.54-8.54,5,5,0,0,0,3.54,8.54Z"/>
    <path class="cls-8" d="M820,276.81a5,5,0,1,0-3.54-1.46A5,5,0,0,0,820,276.81Z"/>
    <path class="cls-9" d="M140,477.16,425.14,352.53l209-44.6L820,271.81"/>
  </g>
</svg>
