<svg id="Layer_1" data-name="Layer 1" xmlns="http://www.w3.org/2000/svg" viewBox="0 0 870 620">
  <defs>
    <style>
      .cls-1, .cls-3, .cls-4, .cls-5, .cls-7, .cls-8 {
        fill: none;
      }

      .cls-1 {
        stroke: #6e6e80;
        stroke-width: 1.25px;
        opacity: 0.3;
      }

      .cls-1, .cls-3, .cls-4, .cls-5 {
        stroke-miterlimit: 10;
      }

      .cls-2 {
        fill: #e6f3f3;
      }

      .cls-3, .cls-4, .cls-5 {
        stroke: #e6f3f3;
      }

      .cls-3 {
        stroke-width: 1.34px;
      }

      .cls-4 {
        stroke-width: 1.34px;
      }

      .cls-5 {
        stroke-width: 1.25px;
      }

      .cls-6 {
        fill: #68de7a;
      }

      .cls-7 {
        stroke: #68de7a;
        stroke-linecap: round;
        stroke-width: 1.5px;
        stroke-dasharray: 5 5;
        opacity: 0.75;
        isolation: isolate;
      }

      .cls-7, .cls-8 {
        stroke-linejoin: round;
      }

      .cls-8 {
        stroke: #27b5ea;
        stroke-linecap: square;
        stroke-width: 2px;
      }

      .cls-9 {
        fill: #27b5ea;
      }
    </style>
  </defs>
  <title>openai-spinning-up-black-summarization</title>
  <g>
    <line class="cls-1" x1="139.96" y1="141.62" x2="819.96" y2="141.62"/>
    <line class="cls-1" x1="139.96" y1="28.32" x2="819.96" y2="28.32"/>
    <line class="cls-1" x1="139.96" y1="84.97" x2="819.96" y2="84.97"/>
    <line class="cls-1" x1="139.96" y1="368.2" x2="819.96" y2="368.2"/>
    <line class="cls-1" x1="139.96" y1="424.85" x2="819.96" y2="424.85"/>
    <line class="cls-1" x1="139.96" y1="311.55" x2="819.96" y2="311.55"/>
    <line class="cls-1" x1="139.96" y1="198.26" x2="819.96" y2="198.26"/>
    <line class="cls-1" x1="281.34" y1="481.49" x2="281.34"/>
    <line class="cls-1" x1="388.27" y1="481.49" x2="388.27"/>
    <line class="cls-1" x1="425.45" y1="481.49" x2="425.45"/>
    <line class="cls-1" x1="464.13" y1="481.49" x2="464.13"/>
    <line class="cls-1" x1="522.97" y1="481.49" x2="522.97"/>
    <line class="cls-1" x1="571.05" y1="481.49" x2="571.05"/>
    <line class="cls-1" x1="611.7" y1="481.49" x2="611.7"/>
    <line class="cls-1" x1="633.88" y1="481.49" x2="633.88"/>
    <line class="cls-1" x1="646.91" y1="481.49" x2="646.91"/>
    <line class="cls-1" x1="677.97" y1="481.49" x2="677.97"/>
    <line class="cls-1" x1="819.96" y1="481.49" x2="819.96"/>
  </g>
  <g>
    <path class="cls-2" d="M60,384.15v2.08L55.16,388v8.72l4.81,1.7v2.08l-18.9-7.1v-2.11Zm-6.48,11.93v-7.53L43,392.3Z"/>
    <path class="cls-2" d="M60,374.92v2.16l-13.82,5.07v-2L57.91,376l-11.76-4.13v-2Z"/>
    <path class="cls-2" d="M54.27,366.6H52.06c-3.76,0-6.24-2.13-6.24-6s2.62-5.86,6-5.86h2v9.91h.49c2.4,0,4.34-1.24,4.34-4.13a3.66,3.66,0,0,0-2.67-3.81v-1.84a5.46,5.46,0,0,1,4.24,5.65C60.29,364.09,58,366.6,54.27,366.6Zm-1.94-2v-8h-.65c-2.46,0-4.29,1.24-4.29,3.94,0,3,2,4.05,4.51,4.05Z"/>
    <path class="cls-2" d="M46.15,349.61V347.7h3.18c-2.13-.52-3.27-2-3.27-4.51v-.32H48v.4c0,2.62,1.73,4.29,5.21,4.29H60v2.05Z"/>
    <path class="cls-2" d="M60,330.18H58.24a5.83,5.83,0,0,1,2,4.75c0,3.26-1.84,5.24-4.35,5.24-2.67,0-4.32-2.19-4.32-5.49a6,6,0,0,1,1.73-4.42H50.79a3.2,3.2,0,0,0-3.35,3.45,3.5,3.5,0,0,0,2.08,3.46v1.89a5.24,5.24,0,0,1-3.7-5.37c0-3.43,2.24-5.48,5-5.48H60Zm-4,.08c-1.73,0-3,2.05-3,4.13,0,2.29,1.08,3.83,3,3.83s3-1.59,3-3.72S57.7,330.26,55.92,330.26Z"/>
    <path class="cls-2" d="M61.45,323.07v-2c1.32-.76,1.92-2.08,1.92-4,0-2.4-1.35-4.05-3.46-4.05H56.78c1.27.43,2.62,2.32,2.62,4.64a5.39,5.39,0,0,1-5.64,5.65h-2.3a5.35,5.35,0,0,1-5.64-5.67,5,5,0,0,1,2.62-4.7H46.15v-2H60c2.86,0,5,2.59,5,6.1C65,319.84,63.72,322.32,61.45,323.07Zm-7.91-10H51.76a4.16,4.16,0,0,0-4.26,4.16c0,2.7,1.48,4.1,4.12,4.1h2c2.59,0,4.13-1.37,4.13-4A4,4,0,0,0,53.54,313Z"/>
    <path class="cls-2" d="M54.27,305.93H52.06c-3.76,0-6.24-2.13-6.24-6s2.62-5.86,6-5.86h2V304h.49c2.4,0,4.34-1.24,4.34-4.13A3.66,3.66,0,0,0,56.05,296v-1.83a5.45,5.45,0,0,1,4.24,5.64C60.29,303.42,58,305.93,54.27,305.93Zm-1.94-2v-8h-.65c-2.46,0-4.29,1.24-4.29,3.94,0,3,2,4,4.51,4Z"/>
    <path class="cls-2" d="M54.19,282.33H51.92a6.17,6.17,0,0,1,0-12.33h2.27a6.17,6.17,0,0,1,0,12.33Zm-6.72-6.18c0,2.73,1.86,4.19,4.48,4.19h2.21c2.62,0,4.48-1.46,4.48-4.19S56.78,272,54.16,272H52C49.33,272,47.47,273.42,47.47,276.15Z"/>
    <path class="cls-2" d="M47.82,264.11v2H46.15v-2H44.31c-2.67,0-4.05-1.19-4.05-4v-1.94h1.67V260c0,1.46.68,2.11,2.22,2.11h2v-3.4h1.67v3.4H60v2.05Z"/>
    <path class="cls-2" d="M41.07,246.67v-7.8c0-4.16,2.67-6.35,6-6.35a5.73,5.73,0,0,1,5.64,4.08L60,232.5v2.4l-6.91,3.83v5.83H60v2.11Zm10.31-7.53c0-3-1.83-4.51-4.29-4.51s-4.32,1.56-4.32,4.51v5.42h8.61Z"/>
    <path class="cls-2" d="M60.34,219.77c0,5.3-3.75,7.94-8.31,7.94H49c-4.57,0-8.32-2.64-8.32-7.94s3.75-7.93,8.32-7.93h3C56.59,211.84,60.34,214.48,60.34,219.77Zm-8.2-5.83H48.9c-3.56,0-6.45,1.81-6.45,5.83s2.89,5.83,6.45,5.83h3.24c3.56,0,6.45-1.8,6.45-5.83S55.7,213.94,52.14,213.94Z"/>
    <path class="cls-2" d="M53.6,206.3H41.07v-2.11H53.78c2.95,0,4.81-2,4.81-5.15s-1.86-5.16-4.81-5.16H41.07v-2.1H53.6c3.91,0,6.74,2.78,6.74,7.26S57.51,206.3,53.6,206.3Z"/>
    <path class="cls-2" d="M47.28,173.07c-2.65.08-4.83,2-4.83,5.42,0,3.89,2.67,5.64,6.45,5.64H52c3.72,0,6.61-1.67,6.61-5.77,0-3.38-1.91-5.46-5.56-5.46H52.6v5.29H50.84v-7.31h2c4.35,0,7.5,2.67,7.5,7.5,0,5.27-3.75,7.86-8.36,7.86H49c-4.83,0-8.29-2.73-8.29-7.72,0-4.62,2.86-7.37,6.59-7.45Z"/>
    <path class="cls-2" d="M41.07,165.18V152.71h1.76v10.36h6.69v-9.58h1.75v9.58h6.94V152.68H60v12.5Z"/>
    <path class="cls-2" d="M43.2,137.78l1.87,3.94H43.18l-2.11-4.3V135.7H60v2.08Z"/>
    <path class="cls-2" d="M57,129.51v-2.29l6,1.86v1.73Z"/>
    <path class="cls-2" d="M58.35,122.09l-8.4-8c-1.38-1.33-2.62-2.11-4.07-2.11-2.11,0-3.49,1.65-3.49,3.86,0,2.41,1.38,4,3.81,4h.43v2h-.51c-3.46,0-5.43-2.43-5.43-5.94s2-5.94,5.19-5.94c2.29,0,4,1.6,5.58,3.11l6.81,6.66v-9.79H60v12.2Z"/>
    <path class="cls-2" d="M57,104.4v-2.29L63,104v1.73Z"/>
    <path class="cls-2" d="M41.07,96.41v-2.1H58.21V84.62H60V96.41Z"/>
  </g>
  <g>
    <path class="cls-2" d="M121.35,516.34l-3.21,1.51v-1.54l3.49-1.71H123V530h-1.69Z"/>
    <path class="cls-2" d="M129.6,516.34l-3.21,1.51v-1.54l3.49-1.71h1.41V530H129.6Z"/>
    <path class="cls-2" d="M143.3,516h-7.92V514.6H145v1.19L138.24,530h-1.69Z"/>
    <path class="cls-2" d="M162.18,530h-1.63V517.9l-4.24,8.38h-1.63l-4.25-8.38V530H148.8V514.6h1.61l5.08,10.16,5.08-10.16h1.61Z"/>
  </g>
  <g>
    <path class="cls-2" d="M398.18,514.6h9V516l-4.93,5.4h.6c2.84,0,4.84,1.71,4.84,4.33s-2.42,4.6-5.35,4.6c-2.64,0-5.08-1.59-5.19-4.51h1.56a3.35,3.35,0,0,0,3.65,3.14c2.22,0,3.68-1.36,3.68-3.19s-1.39-3.12-3.57-3.12h-2.09v-1.32l4.76-5.35h-6.94Z"/>
    <path class="cls-2" d="M418.34,526.33H411v-1.26l5.13-10.47h1.54l-5,10.45h5.66V521.4h1.56v3.65H422v1.28H419.9V530h-1.56Z"/>
    <path class="cls-2" d="M425.09,526.22h1.61a3.53,3.53,0,0,0,3.6,2.7,3.65,3.65,0,0,0,3.9-3.78,3.62,3.62,0,0,0-3.68-3.74,4.23,4.23,0,0,0-3.49,1.8h-1.61l1.45-8.6h7.68V516h-6.34l-1,5.53a4.77,4.77,0,0,1,3.6-1.5,4.92,4.92,0,0,1,5,5.08,5.26,5.26,0,0,1-5.55,5.22A5,5,0,0,1,425.09,526.22Z"/>
    <path class="cls-2" d="M453.14,530h-1.63V517.9l-4.24,8.38h-1.63l-4.25-8.38V530h-1.63V514.6h1.61l5.08,10.16,5.09-10.16h1.6Z"/>
  </g>
  <g>
    <path class="cls-2" d="M615.16,516h-7.93V514.6h9.66v1.19L610.09,530H608.4Z"/>
    <path class="cls-2" d="M625.83,514.6l-4.47,6.8v0a3.83,3.83,0,0,1,3.1-1.37,4.81,4.81,0,0,1,4.84,5.07,5.24,5.24,0,0,1-5.37,5.19,5.08,5.08,0,0,1-5.37-5.13,8.54,8.54,0,0,1,1.63-4.53l3.83-6ZM623.91,529a3.63,3.63,0,0,0,3.74-3.81,3.55,3.55,0,0,0-3.65-3.81,3.72,3.72,0,0,0-3.79,3.85A3.56,3.56,0,0,0,623.91,529Z"/>
    <path class="cls-2" d="M632.45,528.68l6.51-6.84a4.87,4.87,0,0,0,1.72-3.33,2.88,2.88,0,0,0-3.15-2.83,2.93,2.93,0,0,0-3.24,3.1v.35h-1.6v-.42c0-2.81,2-4.42,4.84-4.42s4.84,1.65,4.84,4.22c0,1.87-1.3,3.3-2.53,4.56l-5.44,5.54h8V530h-9.94Z"/>
    <path class="cls-2" d="M660,530h-1.63V517.9l-4.24,8.38h-1.63l-4.25-8.38V530h-1.63V514.6h1.61l5.08,10.16,5.08-10.16H660Z"/>
  </g>
  <g>
    <path class="cls-2" d="M789.37,516.34l-3.21,1.51v-1.54l3.5-1.71h1.4V530h-1.69Z"/>
    <path class="cls-2" d="M795.33,526.22h1.61a3.53,3.53,0,0,0,3.61,2.7,3.65,3.65,0,0,0,3.89-3.78,3.61,3.61,0,0,0-3.67-3.74,4.24,4.24,0,0,0-3.5,1.8h-1.61l1.45-8.6h7.68V516h-6.33l-1,5.53a4.77,4.77,0,0,1,3.61-1.5,4.91,4.91,0,0,1,5,5.08,5.25,5.25,0,0,1-5.54,5.22A5,5,0,0,1,795.33,526.22Z"/>
    <path class="cls-2" d="M816.65,526.33h-7.3v-1.26l5.12-10.47H816l-5,10.45h5.65V521.4h1.56v3.65h2.14v1.28h-2.14V530h-1.56Z"/>
    <path class="cls-2" d="M823.49,528.68l6.51-6.84a4.87,4.87,0,0,0,1.72-3.33,2.87,2.87,0,0,0-3.15-2.83,2.93,2.93,0,0,0-3.23,3.1v.35h-1.61v-.42c0-2.81,2-4.42,4.84-4.42s4.84,1.65,4.84,4.22c0,1.87-1.29,3.3-2.53,4.56l-5.43,5.54h8V530h-10Z"/>
    <path class="cls-2" d="M851,530h-1.63V517.9l-4.25,8.38h-1.63l-4.24-8.38V530h-1.63V514.6h1.6l5.09,10.16,5.08-10.16H851Z"/>
  </g>
  <line class="cls-3" x1="139.96" y1="481.49" x2="139.96" y2="495.65"/>
  <line class="cls-3" x1="139.96" y1="481.49" x2="139.96" y2="500"/>
  <line class="cls-3" x1="425.12" y1="481.49" x2="425.12" y2="495.65"/>
  <line class="cls-3" x1="425.12" y1="481.49" x2="425.12" y2="500"/>
  <line class="cls-3" x1="388.27" y1="481.49" x2="388.27" y2="490"/>
  <line class="cls-3" x1="281.34" y1="481.49" x2="281.34" y2="490"/>
  <line class="cls-3" x1="464.13" y1="481.49" x2="464.13" y2="490"/>
  <line class="cls-3" x1="522.97" y1="481.49" x2="522.97" y2="490"/>
  <line class="cls-3" x1="571.05" y1="481.49" x2="571.05" y2="490"/>
  <line class="cls-3" x1="611.7" y1="481.49" x2="611.7" y2="490"/>
  <line class="cls-3" x1="646.91" y1="481.49" x2="646.91" y2="490"/>
  <line class="cls-3" x1="677.97" y1="481.49" x2="677.97" y2="490"/>
  <line class="cls-3" x1="634.08" y1="481.49" x2="634.08" y2="500"/>
  <line class="cls-3" x1="819.96" y1="481.49" x2="819.96" y2="495.65"/>
  <line class="cls-3" x1="819.96" y1="481.49" x2="819.96" y2="500"/>
  <line class="cls-4" x1="139.96" y1="424.85" x2="119.96" y2="424.85"/>
  <line class="cls-4" x1="139.96" y1="368.2" x2="119.96" y2="368.2"/>
  <line class="cls-4" x1="139.96" y1="254.87" x2="119.96" y2="254.87"/>
  <line class="cls-4" x1="139.96" y1="141.62" x2="119.96" y2="141.62"/>
  <line class="cls-4" x1="139.96" y1="28.32" x2="119.96" y2="28.32"/>
  <polyline class="cls-5" points="819.96 481.49 139.96 481.49 139.96 0"/>
  <g>
    <path class="cls-2" d="M85.46,21.13h9v1.39l-4.93,5.39h.59C93,27.91,95,29.63,95,32.25s-2.42,4.59-5.35,4.59c-2.64,0-5.08-1.58-5.19-4.51H86a3.36,3.36,0,0,0,3.65,3.15c2.23,0,3.68-1.36,3.68-3.19s-1.38-3.12-3.56-3.12h-2.1V27.84L92.4,22.5H85.46Z"/>
    <path class="cls-2" d="M98.36,35.22l6.52-6.85a4.85,4.85,0,0,0,1.72-3.32,2.88,2.88,0,0,0-3.15-2.84,2.93,2.93,0,0,0-3.24,3.1v.36h-1.6v-.42c0-2.82,2-4.42,4.84-4.42s4.84,1.65,4.84,4.22c0,1.87-1.3,3.3-2.53,4.56l-5.44,5.54h8v1.39h-10Z"/>
  </g>
  <line class="cls-4" x1="139.96" y1="84.97" x2="119.96" y2="84.97"/>
  <g>
    <path class="cls-2" d="M84.58,77.78h9v1.39l-4.94,5.39h.6c2.84,0,4.84,1.71,4.84,4.33s-2.42,4.6-5.35,4.6c-2.64,0-5.08-1.58-5.19-4.51h1.56a3.36,3.36,0,0,0,3.65,3.15c2.23,0,3.68-1.37,3.68-3.19S91,85.81,88.85,85.81H86.76V84.49l4.76-5.34H84.58Z"/>
    <path class="cls-2" d="M97.64,88.36V82.6c0-2.93,2-5.13,5.39-5.13s5.4,2.2,5.4,5.13v5.76c0,2.93-2,5.13-5.4,5.13S97.64,91.29,97.64,88.36Zm9.09.07v-5.9a3.7,3.7,0,0,0-7.4,0v5.9a3.7,3.7,0,0,0,7.4,0Z"/>
  </g>
  <g>
    <path class="cls-2" d="M83.94,148.51l6.52-6.84a4.87,4.87,0,0,0,1.72-3.33A2.87,2.87,0,0,0,89,135.51a2.93,2.93,0,0,0-3.24,3.1V139h-1.6v-.42c0-2.81,2-4.42,4.84-4.42s4.85,1.65,4.85,4.22c0,1.88-1.3,3.3-2.54,4.56l-5.44,5.54h8v1.39h-10Z"/>
    <path class="cls-2" d="M97.68,145.74a3.87,3.87,0,0,1,3.11-3.92,3.82,3.82,0,0,1-2.47-3.59c0-2.55,2-4.11,4.71-4.11s4.71,1.56,4.71,4.11a3.82,3.82,0,0,1-2.46,3.59,3.88,3.88,0,0,1,3.1,3.92c0,2.62-2.22,4.4-5.35,4.4S97.68,148.36,97.68,145.74Zm9.07,0c0-2-1.52-3.19-3.72-3.19s-3.72,1.19-3.72,3.19,1.61,3.12,3.72,3.12S106.75,147.61,106.75,145.74ZM103,141.27a3,3,0,0,0,3.13-2.93,3.14,3.14,0,0,0-6.26,0A3,3,0,0,0,103,141.27Z"/>
  </g>
  <line class="cls-4" x1="139.96" y1="198.26" x2="119.96" y2="198.26"/>
  <g>
    <path class="cls-2" d="M84.87,205.16l6.52-6.85A4.84,4.84,0,0,0,93.1,195,2.87,2.87,0,0,0,90,192.15a2.93,2.93,0,0,0-3.24,3.11v.35H85.11v-.42c0-2.82,2-4.42,4.85-4.42s4.84,1.65,4.84,4.22c0,1.87-1.3,3.3-2.53,4.56l-5.44,5.54h8v1.39H84.87Z"/>
    <path class="cls-2" d="M105.32,191.07l-4.47,6.8v0a3.81,3.81,0,0,1,3.11-1.37,4.8,4.8,0,0,1,4.84,5.06,5.25,5.25,0,0,1-5.37,5.19,5.07,5.07,0,0,1-5.38-5.12,8.57,8.57,0,0,1,1.63-4.54l3.84-6.05Zm-1.92,14.37a3.64,3.64,0,0,0,3.75-3.8,3.56,3.56,0,0,0-3.66-3.81,3.71,3.71,0,0,0-3.78,3.85A3.55,3.55,0,0,0,103.4,205.44Z"/>
  </g>
  <g>
    <path class="cls-2" d="M84.78,261.76l6.52-6.84A4.85,4.85,0,0,0,93,251.6a2.88,2.88,0,0,0-3.15-2.84,2.93,2.93,0,0,0-3.24,3.1v.35H85v-.41c0-2.82,2-4.43,4.85-4.43s4.84,1.65,4.84,4.23c0,1.87-1.3,3.3-2.53,4.55l-5.44,5.55h8v1.38h-10Z"/>
    <path class="cls-2" d="M105.14,259.41H97.83v-1.26L103,247.68h1.55l-5,10.45h5.65v-3.65h1.57v3.65h2.13v1.28h-2.13v3.67h-1.57Z"/>
  </g>
  <g>
    <path class="cls-2" d="M84.08,375.09l6.51-6.84a4.85,4.85,0,0,0,1.72-3.32,2.87,2.87,0,0,0-3.15-2.84,2.92,2.92,0,0,0-3.23,3.1v.35H84.32v-.41c0-2.82,2-4.43,4.84-4.43S94,362.35,94,364.93c0,1.87-1.3,3.3-2.54,4.55L86,375h8v1.38h-10Z"/>
    <path class="cls-2" d="M97.64,371.59v-5.76c0-2.93,2-5.13,5.39-5.13s5.4,2.2,5.4,5.13v5.76c0,2.93-2,5.13-5.4,5.13S97.64,374.52,97.64,371.59Zm9.09.07v-5.9a3.7,3.7,0,0,0-7.4,0v5.9a3.7,3.7,0,0,0,7.4,0Z"/>
  </g>
  <line class="cls-4" x1="139.96" y1="311.55" x2="119.96" y2="311.55"/>
  <g>
    <path class="cls-2" d="M84.85,318.45l6.51-6.85a4.85,4.85,0,0,0,1.72-3.32,2.88,2.88,0,0,0-3.15-2.84,2.93,2.93,0,0,0-3.23,3.11v.35H85.09v-.42c0-2.82,2-4.42,4.84-4.42s4.85,1.65,4.85,4.22c0,1.87-1.3,3.3-2.53,4.56l-5.44,5.54h8v1.39h-10Z"/>
    <path class="cls-2" d="M98.36,318.45l6.52-6.85a4.85,4.85,0,0,0,1.72-3.32,2.88,2.88,0,0,0-3.15-2.84,2.94,2.94,0,0,0-3.24,3.11v.35h-1.6v-.42c0-2.82,2-4.42,4.84-4.42s4.84,1.65,4.84,4.22c0,1.87-1.3,3.3-2.53,4.56l-5.44,5.54h8v1.39h-10Z"/>
  </g>
  <g>
    <path class="cls-2" d="M91.74,419.4l-3.22,1.52v-1.54l3.5-1.72h1.41v15.4H91.74Z"/>
    <path class="cls-2" d="M97.68,429a3.88,3.88,0,0,1,3.1-3.92,3.82,3.82,0,0,1-2.46-3.58c0-2.56,2-4.12,4.71-4.12s4.71,1.56,4.71,4.12a3.82,3.82,0,0,1-2.46,3.58,3.88,3.88,0,0,1,3.1,3.92c0,2.62-2.22,4.4-5.35,4.4S97.68,431.59,97.68,429Zm9.07,0c0-2-1.52-3.19-3.72-3.19S99.31,427,99.31,429s1.61,3.12,3.72,3.12S106.75,430.84,106.75,429ZM103,424.5a3,3,0,0,0,3.13-2.92,3.14,3.14,0,0,0-6.26,0A3,3,0,0,0,103,424.5Z"/>
  </g>
  <line class="cls-4" x1="139.96" y1="481.49" x2="119.96" y2="481.49"/>
  <g>
    <path class="cls-2" d="M92.4,476l-3.22,1.52V476l3.5-1.72h1.41v15.41H92.4Z"/>
    <path class="cls-2" d="M105.32,474.3l-4.47,6.8v0a3.81,3.81,0,0,1,3.11-1.37,4.8,4.8,0,0,1,4.84,5.06,5.25,5.25,0,0,1-5.37,5.19,5.07,5.07,0,0,1-5.38-5.12,8.54,8.54,0,0,1,1.63-4.53l3.83-6.06Zm-1.92,14.37a3.64,3.64,0,0,0,3.75-3.8,3.56,3.56,0,0,0-3.66-3.81,3.71,3.71,0,0,0-3.78,3.85A3.55,3.55,0,0,0,103.4,488.67Z"/>
  </g>
  <g>
    <path class="cls-2" d="M328.38,551.1h2l10.39,15.53V551.1h2.05V570h-2l-10.39-15.52V570h-2.05Z"/>
    <path class="cls-2" d="M360.15,570h-1.94v-2.35c-.65,1.57-2.21,2.67-4.62,2.67-3,0-4.94-2.1-4.94-5.42v-8.72h2.05v8.42c0,2.35,1,4,3.41,4s4-1.43,4-4.3v-8.12h2Z"/>
    <path class="cls-2" d="M365.88,556.18h1.94v2.35a4.55,4.55,0,0,1,4.56-2.68,4.63,4.63,0,0,1,4.4,2.7,5.5,5.5,0,0,1,5-2.7c3,0,5,2.16,5,5.43V570h-2v-8.42c0-2.35-1.16-3.94-3.43-3.94s-3.94,1.37-3.94,4.23V570H375.3v-8.42c0-2.35-1.16-3.94-3.43-3.94s-3.94,1.37-3.94,4.23V570h-2.05Z"/>
    <path class="cls-2" d="M394.42,550.29v7.94a5.16,5.16,0,0,1,4.61-2.38c3.49,0,5.73,2.6,5.73,6.19v2.1c0,3.46-2.14,6.18-5.78,6.18a5.14,5.14,0,0,1-4.67-2.48V570h-1.94V550.29Zm8.28,11.83c0-2.54-1.43-4.59-4.05-4.59a4.27,4.27,0,0,0-4.23,4.59v1.78c0,2.67,1.48,4.75,4.21,4.75s4.07-2,4.07-4.59Z"/>
    <path class="cls-2" d="M409.13,564.3v-2.21c0-3.75,2.14-6.24,6-6.24s5.86,2.62,5.86,6v2.06H411.1v.48c0,2.4,1.24,4.35,4.13,4.35a3.67,3.67,0,0,0,3.81-2.67h1.83a5.44,5.44,0,0,1-5.64,4.23C411.64,570.32,409.13,568,409.13,564.3Zm2-1.94h8v-.65c0-2.45-1.24-4.29-3.94-4.29-3,0-4,2-4,4.51Z"/>
    <path class="cls-2" d="M426.12,556.18H428v3.18c.51-2.13,2-3.26,4.51-3.26h.32V558h-.4c-2.62,0-4.29,1.73-4.29,5.21V570h-2.05Z"/>
    <path class="cls-2" d="M443.61,564.22V562A6.17,6.17,0,0,1,456,562v2.26a6.17,6.17,0,0,1-12.34,0Zm6.18-6.72c-2.72,0-4.18,1.86-4.18,4.48v2.22c0,2.61,1.46,4.48,4.18,4.48s4.19-1.87,4.19-4.48V562C454,559.36,452.52,557.5,449.79,557.5Z"/>
    <path class="cls-2" d="M461.83,557.85h-2v-1.67h2v-1.84c0-2.67,1.19-4.05,4-4.05h1.94V552H466c-1.46,0-2.1.67-2.1,2.21v2h3.4v1.67h-3.4V570h-2.06Z"/>
    <path class="cls-2" d="M479.28,551.1h7.39c4,0,6.43,2.6,6.43,6s-2.46,6-6.43,6h-5.29V570h-2.1Zm7.2,10.29c3.11,0,4.51-2,4.51-4.29s-1.4-4.24-4.51-4.24h-5.1v8.53Z"/>
    <path class="cls-2" d="M506.44,570v-1.73a5.86,5.86,0,0,1-4.75,2.05c-3.27,0-5.24-1.83-5.24-4.34,0-2.68,2.19-4.32,5.48-4.32a6.06,6.06,0,0,1,4.43,1.73v-2.57a3.21,3.21,0,0,0-3.46-3.35,3.49,3.49,0,0,0-3.45,2.08h-1.89a5.23,5.23,0,0,1,5.37-3.7c3.43,0,5.48,2.24,5.48,5V570Zm-.08-4c0-1.73-2.06-2.94-4.13-2.94-2.3,0-3.84,1.08-3.84,3s1.6,3,3.73,3S506.36,567.73,506.36,566Z"/>
    <path class="cls-2" d="M514,556.18h1.92v3.18c.51-2.13,2-3.26,4.51-3.26h.32V558h-.4c-2.62,0-4.3,1.73-4.3,5.21V570h-2Z"/>
    <path class="cls-2" d="M533.41,570v-1.73a5.86,5.86,0,0,1-4.75,2.05c-3.27,0-5.24-1.83-5.24-4.34,0-2.68,2.19-4.32,5.48-4.32a6.06,6.06,0,0,1,4.43,1.73v-2.57a3.2,3.2,0,0,0-3.46-3.35,3.49,3.49,0,0,0-3.45,2.08h-1.89a5.23,5.23,0,0,1,5.37-3.7c3.43,0,5.48,2.24,5.48,5V570Zm-.08-4c0-1.73-2.05-2.94-4.13-2.94-2.3,0-3.83,1.08-3.83,3s1.59,3,3.72,3S533.33,567.73,533.33,566Z"/>
    <path class="cls-2" d="M540.94,556.18h1.95v2.35a4.55,4.55,0,0,1,4.56-2.68,4.64,4.64,0,0,1,4.4,2.7,5.49,5.49,0,0,1,5-2.7c3,0,5,2.16,5,5.43V570h-2.05v-8.42c0-2.35-1.17-3.94-3.43-3.94s-3.94,1.37-3.94,4.23V570h-2.06v-8.42c0-2.35-1.16-3.94-3.42-3.94S543,559,543,561.87V570h-2.06Z"/>
    <path class="cls-2" d="M566.76,564.3v-2.21c0-3.75,2.13-6.24,6-6.24s5.85,2.62,5.85,6v2.06h-9.9v.48c0,2.4,1.24,4.35,4.13,4.35a3.66,3.66,0,0,0,3.8-2.67h1.84a5.45,5.45,0,0,1-5.64,4.23C569.27,570.32,566.76,568,566.76,564.3Zm2-1.94h8v-.65c0-2.45-1.24-4.29-3.94-4.29-3,0-4,2-4,4.51Z"/>
    <path class="cls-2" d="M588.54,570c-2.64,0-3.75-1.32-3.75-3.67v-8.48h-2.35v-1.67h2.35v-4h2.05v4h3.54v1.67h-3.54v8.48c0,1.4.52,2,2.06,2h1.37V570Z"/>
    <path class="cls-2" d="M594.27,564.3v-2.21c0-3.75,2.13-6.24,6-6.24s5.86,2.62,5.86,6v2.06h-9.91v.48c0,2.4,1.24,4.35,4.13,4.35a3.67,3.67,0,0,0,3.81-2.67H606a5.45,5.45,0,0,1-5.64,4.23C596.78,570.32,594.27,568,594.27,564.3Zm2-1.94h8v-.65c0-2.45-1.24-4.29-3.94-4.29-3,0-4,2-4,4.51Z"/>
    <path class="cls-2" d="M611.25,556.18h1.92v3.18c.51-2.13,2-3.26,4.51-3.26H618V558h-.4c-2.62,0-4.3,1.73-4.3,5.21V570h-2Z"/>
    <path class="cls-2" d="M621.35,566v-.14h1.86v.08c0,1.73,1.62,2.86,3.89,2.86s3.67-.83,3.67-2.61a1.93,1.93,0,0,0-1.73-1.92l-4.1-1c-2.05-.45-3.24-1.7-3.24-3.5,0-2.6,2.19-3.95,5.24-3.95,2.89,0,5.13,1.76,5.13,4.32v.14H630.2v-.08c0-1.7-1.24-2.84-3.29-2.84s-3.32.81-3.32,2.35a1.67,1.67,0,0,0,1.46,1.78l4.24,1c2.13.52,3.4,1.57,3.4,3.57,0,2.45-2.38,4.23-5.62,4.23S621.35,568.65,621.35,566Z"/>
  </g>
  <g>
    <path class="cls-6" d="M152,315h6.36c3.39,0,5.17,2.18,5.17,4.91a4.68,4.68,0,0,1-3.32,4.6l3.35,5.89h-2l-3.13-5.63h-4.75v5.63H152Zm6.14,8.41a3.31,3.31,0,0,0,3.68-3.5,3.36,3.36,0,0,0-3.68-3.52h-4.42v7Z"/>
    <path class="cls-6" d="M175.13,330.44V329a4.76,4.76,0,0,1-3.87,1.67c-2.66,0-4.27-1.5-4.27-3.54s1.78-3.53,4.47-3.53a4.94,4.94,0,0,1,3.61,1.41V323a2.62,2.62,0,0,0-2.82-2.73,2.86,2.86,0,0,0-2.82,1.7h-1.54a4.27,4.27,0,0,1,4.38-3c2.8,0,4.47,1.83,4.47,4v7.48Zm-.06-3.3c0-1.41-1.68-2.4-3.37-2.4-1.87,0-3.13.89-3.13,2.45s1.3,2.44,3,2.44S175.07,328.59,175.07,327.14Z"/>
    <path class="cls-6" d="M181.27,319.18h1.58v1.91a3.79,3.79,0,0,1,3.77-2.18c2.53,0,4.13,1.72,4.13,4.43v7.1h-1.67v-6.86c0-1.92-.86-3.21-2.88-3.21a3.1,3.1,0,0,0-3.26,3.45v6.62h-1.67Z"/>
    <path class="cls-6" d="M204.85,314.38v16.06h-1.58v-1.76a4.19,4.19,0,0,1-3.81,2c-3,0-4.71-2.22-4.71-5V324c0-2.92,1.83-5,4.67-5a4.22,4.22,0,0,1,3.76,1.94v-6.47Zm-8.42,11.22c0,2.07,1,3.74,3.32,3.74s3.43-1.69,3.43-3.87V324a3.48,3.48,0,0,0-3.45-3.74c-2.14,0-3.3,1.67-3.3,3.74Z"/>
    <path class="cls-6" d="M209,325.73v-1.84a5,5,0,0,1,10.05,0v1.84a5,5,0,0,1-10.05,0Zm5-5.47c-2.22,0-3.41,1.51-3.41,3.65v1.8c0,2.14,1.19,3.66,3.41,3.66s3.42-1.52,3.42-3.66v-1.8C217.42,321.77,216.23,320.26,214,320.26Z"/>
    <path class="cls-6" d="M223.13,319.18h1.59v1.91a3.72,3.72,0,0,1,3.72-2.18,3.78,3.78,0,0,1,3.58,2.2,4.49,4.49,0,0,1,4.1-2.2c2.46,0,4,1.76,4,4.43v7.1h-1.67v-6.86c0-1.92-.94-3.21-2.79-3.21s-3.21,1.12-3.21,3.45v6.62h-1.68v-6.86c0-1.92-.94-3.21-2.79-3.21s-3.21,1.12-3.21,3.45v6.62h-1.68Z"/>
    <path class="cls-6" d="M244.41,322.83h6.14v1.47h-6.14Z"/>
    <path class="cls-6" d="M255.36,315h9v1.39l-4.93,5.39h.6c2.83,0,4.84,1.71,4.84,4.33s-2.42,4.6-5.35,4.6c-2.64,0-5.08-1.58-5.19-4.51h1.56a3.36,3.36,0,0,0,3.65,3.15c2.22,0,3.68-1.37,3.68-3.19s-1.39-3.13-3.57-3.13h-2.09v-1.32l4.75-5.34h-6.93Z"/>
  </g>
  <g>
    <path class="cls-6" d="M151.48,240.92v-.39h1.63v.35c0,1.94,1.56,3.25,4.11,3.25s4.07-1.09,4.07-3a2.54,2.54,0,0,0-2.2-2.51l-4.35-1.15c-2.23-.57-3.06-1.87-3.06-3.63,0-2.72,2.15-4.31,5.32-4.31s5.39,1.78,5.39,4.4v.38h-1.6v-.33c0-1.83-1.41-3.08-3.79-3.08-2.15,0-3.67,1-3.67,2.81a2.21,2.21,0,0,0,1.91,2.36l4.47,1.18c1.89.51,3.23,1.77,3.23,3.74,0,2.82-2.44,4.56-5.72,4.56S151.48,243.74,151.48,240.92Z"/>
    <path class="cls-6" d="M166.62,240.55v-1.81c0-3.05,1.73-5.08,4.9-5.08s4.78,2.14,4.78,4.91v1.67h-8.08v.4c0,2,1,3.54,3.37,3.54a3,3,0,0,0,3.1-2.18h1.5a4.45,4.45,0,0,1-4.6,3.46A4.65,4.65,0,0,1,166.62,240.55Zm1.6-1.58h6.52v-.53c0-2-1-3.5-3.22-3.5-2.42,0-3.3,1.6-3.3,3.67Z"/>
    <path class="cls-6" d="M188.33,249v-5.5a4.22,4.22,0,0,1-3.76,1.94c-2.84,0-4.67-2.12-4.67-5V238.7c0-2.86,1.76-5,4.71-5a4.2,4.2,0,0,1,3.81,2v-1.76H190V249Zm-6.75-8.67c0,2.07,1.16,3.74,3.3,3.74a3.48,3.48,0,0,0,3.45-3.74V238.9c0-2.18-1.21-3.87-3.43-3.87s-3.32,1.67-3.32,3.74Z"/>
    <path class="cls-6" d="M194.42,243.87l6.52-6.84a4.9,4.9,0,0,0,1.71-3.32,2.87,2.87,0,0,0-3.14-2.84,2.93,2.93,0,0,0-3.24,3.1v.35h-1.6v-.42c0-2.81,2-4.42,4.84-4.42s4.84,1.65,4.84,4.23c0,1.87-1.3,3.3-2.53,4.55l-5.44,5.55h8v1.38h-10Z"/>
    <path class="cls-6" d="M208.37,241.91v-.11h1.52v.07c0,1.41,1.32,2.33,3.17,2.33s3-.68,3-2.13a1.57,1.57,0,0,0-1.41-1.56l-3.34-.78c-1.68-.37-2.64-1.38-2.64-2.86,0-2.11,1.78-3.21,4.27-3.21s4.18,1.43,4.18,3.52v.11h-1.52v-.06c0-1.39-1-2.31-2.69-2.31s-2.7.66-2.7,1.91a1.36,1.36,0,0,0,1.19,1.45l3.45.82c1.74.41,2.77,1.27,2.77,2.9,0,2-1.93,3.46-4.57,3.46S208.37,244.09,208.37,241.91Z"/>
    <path class="cls-6" d="M221,240.55v-1.81c0-3.05,1.74-5.08,4.91-5.08s4.77,2.14,4.77,4.91v1.67h-8.07v.4c0,2,1,3.54,3.36,3.54A3,3,0,0,0,229.1,242h1.49a4.44,4.44,0,0,1-4.6,3.46A4.65,4.65,0,0,1,221,240.55Zm1.61-1.58h6.51v-.53c0-2-1-3.5-3.21-3.5-2.42,0-3.3,1.6-3.3,3.67Z"/>
    <path class="cls-6" d="M242.74,249v-5.5a4.25,4.25,0,0,1-3.77,1.94c-2.84,0-4.66-2.12-4.66-5V238.7c0-2.86,1.76-5,4.71-5a4.17,4.17,0,0,1,3.8,2v-1.76h1.59V249ZM236,240.35c0,2.07,1.17,3.74,3.3,3.74a3.49,3.49,0,0,0,3.46-3.74V238.9c0-2.18-1.21-3.87-3.44-3.87S236,236.7,236,238.77Z"/>
    <path class="cls-6" d="M259.15,237.93H255v-1.32h4.16v-4.49h1.49v4.49h4.16v1.32h-4.16v4.49h-1.49Z"/>
    <path class="cls-6" d="M287.73,245.19H286l-1.41-3.92h-7.1l-1.39,3.92h-1.69l5.78-15.4h1.72ZM278,239.91h6.14l-3.06-8.56Z"/>
    <path class="cls-6" d="M294.76,245.19c-2.15,0-3.05-1.08-3.05-3v-6.91h-1.92v-1.36h1.92v-3.24h1.67v3.24h2.88v1.36h-2.88v6.91c0,1.14.42,1.63,1.67,1.63h1.12v1.36Z"/>
    <path class="cls-6" d="M303.92,245.19c-2.16,0-3.06-1.08-3.06-3v-6.91h-1.92v-1.36h1.92v-3.24h1.67v3.24h2.88v1.36h-2.88v6.91c0,1.14.42,1.63,1.67,1.63h1.12v1.36Z"/>
    <path class="cls-6" d="M309.24,233.93h1.58v1.91a3.77,3.77,0,0,1,3.76-2.18c2.54,0,4.14,1.72,4.14,4.42v7.11h-1.67v-6.86c0-1.92-.86-3.22-2.88-3.22a3.1,3.1,0,0,0-3.26,3.46v6.62h-1.67Z"/>
  </g>
  <g>
    <path class="cls-6" d="M152,101.86h6c3.24,0,5.24,2.12,5.24,4.89s-2,4.93-5.24,4.93h-4.31v5.58H152Zm5.88,8.39a3.48,3.48,0,1,0,0-7h-4.16v7Z"/>
    <path class="cls-6" d="M177.4,106.92c-.07-2.15-1.65-3.93-4.43-3.93-3.16,0-4.59,2.17-4.59,5.25v2.56c0,3,1.36,5.39,4.7,5.39,2.75,0,4.45-1.57,4.45-4.53v-.4h-4.31v-1.43h6v1.63c0,3.54-2.18,6.11-6.12,6.11-4.29,0-6.4-3.06-6.4-6.82v-2.44c0-3.94,2.22-6.75,6.29-6.75,3.77,0,6,2.33,6.08,5.36Z"/>
    <path class="cls-6" d="M183.82,101.86h1.61l8.47,12.65V101.86h1.67v15.4H194l-8.47-12.65v12.65h-1.67Z"/>
    <path class="cls-6" d="M199.9,112.62v-1.8c0-3.06,1.74-5.08,4.91-5.08s4.77,2.13,4.77,4.9v1.67h-8.07v.4c0,2,1,3.54,3.36,3.54a3,3,0,0,0,3.11-2.17h1.49a4.44,4.44,0,0,1-4.6,3.45A4.65,4.65,0,0,1,199.9,112.62Zm1.61-1.58H208v-.53c0-2-1-3.5-3.21-3.5-2.42,0-3.3,1.61-3.3,3.68Z"/>
    <path class="cls-6" d="M217.66,117.26c-2.16,0-3.06-1.07-3.06-3v-6.91h-1.92V106h1.92v-3.24h1.67V106h2.88v1.36h-2.88v6.91c0,1.15.42,1.63,1.67,1.63h1.12v1.36Z"/>
  </g>
  <g>
    <path class="cls-6" d="M152,12.79h1.72v14h7.9v1.43H152Z"/>
    <path class="cls-6" d="M164.39,23.55V21.74c0-3.06,1.74-5.08,4.91-5.08s4.78,2.13,4.78,4.91v1.67H166v.39c0,2,1,3.55,3.37,3.55a3,3,0,0,0,3.1-2.18H174a4.46,4.46,0,0,1-4.6,3.45A4.65,4.65,0,0,1,164.39,23.55ZM166,22h6.51v-.53c0-2-1-3.49-3.21-3.49-2.42,0-3.3,1.6-3.3,3.67Z"/>
    <path class="cls-6" d="M187.78,12.13V28.19H186.2V26.43a4.22,4.22,0,0,1-3.81,2c-3,0-4.71-2.22-4.71-5V21.7c0-2.93,1.83-5,4.67-5a4.2,4.2,0,0,1,3.76,1.94V12.13Zm-8.43,11.22c0,2.07,1,3.74,3.33,3.74s3.43-1.69,3.43-3.87V21.76A3.49,3.49,0,0,0,182.65,18c-2.13,0-3.3,1.68-3.3,3.74Z"/>
    <path class="cls-6" d="M191.89,23.55V21.74c0-3.06,1.74-5.08,4.91-5.08s4.77,2.13,4.77,4.91v1.67H193.5v.39c0,2,1,3.55,3.37,3.55A3,3,0,0,0,200,25h1.49a4.44,4.44,0,0,1-4.59,3.45A4.65,4.65,0,0,1,191.89,23.55ZM193.5,22H200v-.53c0-2-1-3.49-3.21-3.49-2.42,0-3.3,1.6-3.3,3.67Z"/>
    <path class="cls-6" d="M205.42,20.58h6.14v1.47h-6.14Z"/>
    <path class="cls-6" d="M216.38,12.79h9v1.38l-4.93,5.39H221c2.84,0,4.84,1.72,4.84,4.34s-2.42,4.6-5.34,4.6c-2.64,0-5.09-1.59-5.2-4.51h1.56a3.36,3.36,0,0,0,3.66,3.14c2.22,0,3.67-1.36,3.67-3.19s-1.38-3.12-3.56-3.12h-2.09V19.5l4.75-5.35h-6.93Z"/>
  </g>
  <g>
    <path class="cls-7" d="M140,38.19H820"/>
    <path class="cls-7" d="M140,340.44H820"/>
    <path class="cls-7" d="M140,255.19H820"/>
    <path class="cls-7" d="M140,127.27H820"/>
    <path class="cls-8" d="M140,455.35,425.12,346.7l209-21.64L820,328.6"/>
    <path class="cls-9" d="M425.12,351.7a5,5,0,1,0-3.53-1.46A5,5,0,0,0,425.12,351.7Z"/>
    <path class="cls-9" d="M140,460.35a5,5,0,0,0,5-5,5,5,0,0,0-1.46-3.53,5,5,0,1,0-3.54,8.53Z"/>
    <path class="cls-9" d="M634.08,330.06a5,5,0,1,0-3.53-1.46A5,5,0,0,0,634.08,330.06Z"/>
    <path class="cls-9" d="M820,333.6a5,5,0,1,0-3.53-1.46A5,5,0,0,0,820,333.6Z"/>
  </g>
</svg>
