<svg id="Layer_1" data-name="Layer 1" xmlns="http://www.w3.org/2000/svg" viewBox="0 0 870 627.5">
  <defs>
    <style>
      .cls-1, .cls-3, .cls-4, .cls-5, .cls-7, .cls-8 {
        fill: none;
      }

      .cls-1 {
        stroke: #6e6e80;
        stroke-width: 1.25px;
        opacity: 0.3;
      }

      .cls-1, .cls-3, .cls-4, .cls-5 {
        stroke-miterlimit: 10;
      }

      .cls-2 {
        fill: #e6f3f3;
      }

      .cls-3, .cls-4, .cls-5 {
        stroke: #e6f3f3;
      }

      .cls-3 {
        stroke-width: 1.34px;
      }

      .cls-4 {
        stroke-width: 1.34px;
      }

      .cls-5 {
        stroke-width: 1.25px;
      }

      .cls-6 {
        fill: #68de7a;
      }

      .cls-7 {
        stroke: #68de7a;
        stroke-linecap: round;
        stroke-dasharray: 5 5;
        opacity: 0.75;
        isolation: isolate;
      }

      .cls-7, .cls-8 {
        stroke-linejoin: round;
        stroke-width: 1.5px;
      }

      .cls-8 {
        stroke: #27b5ea;
        stroke-linecap: square;
      }

      .cls-9 {
        fill: #27b5ea;
      }
    </style>
  </defs>
  <title>openai-spinning-up-black-winograd</title>
  <g>
    <line class="cls-1" x1="160" y1="127.87" x2="819.96" y2="127.87"/>
    <line class="cls-1" x1="160" y1="7.5" x2="819.96" y2="7.5"/>
    <line class="cls-1" x1="160" y1="67.68" x2="819.96" y2="67.68"/>
    <line class="cls-1" x1="160" y1="368.62" x2="819.96" y2="368.62"/>
    <line class="cls-1" x1="160" y1="428.8" x2="819.96" y2="428.8"/>
    <line class="cls-1" x1="160" y1="248.24" x2="819.96" y2="248.24"/>
    <line class="cls-1" x1="160" y1="308.43" x2="819.96" y2="308.43"/>
    <line class="cls-1" x1="160" y1="188.06" x2="819.96" y2="188.06"/>
    <line class="cls-1" x1="297.22" y1="488.99" x2="297.22" y2="7.5"/>
    <line class="cls-1" x1="400.99" y1="488.99" x2="400.99" y2="7.5"/>
    <line class="cls-1" x1="437.07" y1="488.99" x2="437.07" y2="7.5"/>
    <line class="cls-1" x1="474.61" y1="488.99" x2="474.61" y2="7.5"/>
    <line class="cls-1" x1="531.72" y1="488.99" x2="531.72" y2="7.5"/>
    <line class="cls-1" x1="578.39" y1="488.99" x2="578.39" y2="7.5"/>
    <line class="cls-1" x1="617.84" y1="488.99" x2="617.84" y2="7.5"/>
    <line class="cls-1" x1="639.37" y1="488.99" x2="639.37" y2="7.5"/>
    <line class="cls-1" x1="652.01" y1="488.99" x2="652.01" y2="7.5"/>
    <line class="cls-1" x1="682.16" y1="488.99" x2="682.16" y2="7.5"/>
    <line class="cls-1" x1="819.96" y1="488.99" x2="819.96" y2="7.5"/>
  </g>
  <g>
    <path class="cls-2" d="M60,295.91V298l-4.81,1.72v8.72l4.81,1.7v2.08l-18.9-7.1V303Zm-6.48,11.93v-7.53L43,304.06Z"/>
    <path class="cls-2" d="M54.22,292.21H51.9a5.77,5.77,0,0,1-6.08-6.13c0-3.48,2.27-5.75,5.18-5.91V282a3.83,3.83,0,0,0-3.56,4.05c0,2.84,1.84,4.16,4.43,4.16h2.37c2.59,0,4.43-1.32,4.43-4.16A3.83,3.83,0,0,0,55.11,282v-1.83c2.91.16,5.18,2.43,5.18,5.91A5.77,5.77,0,0,1,54.22,292.21Z"/>
    <path class="cls-2" d="M54.22,275.74H51.9a5.77,5.77,0,0,1-6.08-6.13c0-3.48,2.27-5.75,5.18-5.91v1.83a3.83,3.83,0,0,0-3.56,4.05c0,2.84,1.84,4.16,4.43,4.16h2.37c2.59,0,4.43-1.32,4.43-4.16a3.83,3.83,0,0,0-3.56-4.05V263.7c2.91.16,5.18,2.43,5.18,5.91A5.77,5.77,0,0,1,54.22,275.74Z"/>
    <path class="cls-2" d="M60,247.23v1.94H57.62c1.56.65,2.67,2.21,2.67,4.62,0,3-2.11,4.94-5.43,4.94H46.15v-2.06h8.42c2.35,0,4-1,4-3.4s-1.43-4-4.29-4H46.15v-2.05Z"/>
    <path class="cls-2" d="M46.15,241.5v-1.92h3.18c-2.13-.51-3.27-2-3.27-4.5v-.33H48v.41c0,2.61,1.73,4.29,5.21,4.29H60v2.05Z"/>
    <path class="cls-2" d="M60,222.06H58.24a5.86,5.86,0,0,1,2,4.75c0,3.27-1.84,5.24-4.35,5.24-2.67,0-4.32-2.19-4.32-5.48a6.06,6.06,0,0,1,1.73-4.43H50.79a3.2,3.2,0,0,0-3.35,3.46,3.49,3.49,0,0,0,2.08,3.45v1.89a5.23,5.23,0,0,1-3.7-5.37c0-3.43,2.24-5.48,5-5.48H60Zm-4,.08c-1.73,0-3,2.05-3,4.13,0,2.3,1.08,3.84,3,3.84s3-1.6,3-3.73S57.7,222.14,55.92,222.14Z"/>
    <path class="cls-2" d="M54.22,215.2H51.9a5.76,5.76,0,0,1-6.08-6.12c0-3.49,2.27-5.75,5.18-5.92V205a3.83,3.83,0,0,0-3.56,4.05c0,2.83,1.84,4.16,4.43,4.16h2.37c2.59,0,4.43-1.33,4.43-4.16A3.83,3.83,0,0,0,55.11,205v-1.84c2.91.17,5.18,2.43,5.18,5.92A5.76,5.76,0,0,1,54.22,215.2Z"/>
    <path class="cls-2" d="M64.66,196.36,60,194.6l-13.82,5.16v-2l11.74-4.21-11.74-4.05v-2L60,192.55l4.69,1.81Z"/>
  </g>
  <g>
    <path class="cls-2" d="M140.53,523.83l-3.21,1.52v-1.54l3.5-1.72h1.41V537.5h-1.7Z"/>
    <path class="cls-2" d="M148.78,523.83l-3.21,1.52v-1.54l3.5-1.72h1.4V537.5h-1.69Z"/>
    <path class="cls-2" d="M162.49,523.48h-7.92v-1.39h9.66v1.19l-6.8,14.22h-1.7Z"/>
    <path class="cls-2" d="M181.36,537.5h-1.62V525.4l-4.25,8.38h-1.63l-4.25-8.38v12.1H168V522.09h1.6l5.08,10.17,5.09-10.17h1.6Z"/>
  </g>
  <g>
    <path class="cls-2" d="M409.81,522.09h9v1.39l-4.93,5.39h.6c2.84,0,4.84,1.72,4.84,4.34s-2.42,4.59-5.35,4.59c-2.64,0-5.08-1.58-5.19-4.51h1.56a3.36,3.36,0,0,0,3.65,3.15c2.23,0,3.68-1.36,3.68-3.19s-1.39-3.12-3.57-3.12H412v-1.32l4.76-5.35h-6.93Z"/>
    <path class="cls-2" d="M430,533.82h-7.31v-1.25l5.13-10.48h1.54l-5,10.46H430v-3.66h1.56v3.66h2.13v1.27h-2.13v3.68H430Z"/>
    <path class="cls-2" d="M436.71,533.71h1.61a3.53,3.53,0,0,0,3.61,2.71,3.66,3.66,0,0,0,3.89-3.79,3.62,3.62,0,0,0-3.67-3.74,4.24,4.24,0,0,0-3.5,1.81H437l1.45-8.61h7.68v1.39h-6.33l-1,5.52a4.8,4.8,0,0,1,3.61-1.49,4.91,4.91,0,0,1,5,5.08,5.25,5.25,0,0,1-5.54,5.21A5,5,0,0,1,436.71,533.71Z"/>
    <path class="cls-2" d="M464.76,537.5h-1.62V525.4l-4.25,8.38h-1.63L453,525.4v12.1h-1.62V522.09H453l5.08,10.17,5.09-10.17h1.6Z"/>
  </g>
  <g>
    <path class="cls-2" d="M620.83,523.48h-7.92v-1.39h9.65v1.19l-6.79,14.22h-1.7Z"/>
    <path class="cls-2" d="M631.5,522.09l-4.47,6.8v0a3.8,3.8,0,0,1,3.1-1.37,4.8,4.8,0,0,1,4.84,5.06,5.24,5.24,0,0,1-5.37,5.19,5.06,5.06,0,0,1-5.36-5.12,8.53,8.53,0,0,1,1.62-4.53l3.83-6.06Zm-1.92,14.37a3.63,3.63,0,0,0,3.74-3.8,3.55,3.55,0,0,0-3.65-3.81,3.71,3.71,0,0,0-3.78,3.85A3.55,3.55,0,0,0,629.58,536.46Z"/>
    <path class="cls-2" d="M638.12,536.18l6.51-6.85a4.85,4.85,0,0,0,1.72-3.32,2.88,2.88,0,0,0-3.15-2.84,2.92,2.92,0,0,0-3.23,3.11v.35h-1.61v-.42c0-2.82,2-4.42,4.84-4.42S648,523.44,648,526c0,1.87-1.3,3.3-2.53,4.56l-5.43,5.54h8v1.39h-9.94Z"/>
    <path class="cls-2" d="M665.64,537.5H664V525.4l-4.24,8.38h-1.63l-4.25-8.38v12.1h-1.63V522.09h1.61L659,532.26,664,522.09h1.61Z"/>
  </g>
  <g>
    <path class="cls-2" d="M789.37,523.83l-3.21,1.52v-1.54l3.5-1.72h1.4V537.5h-1.69Z"/>
    <path class="cls-2" d="M795.33,533.71h1.61a3.53,3.53,0,0,0,3.61,2.71,3.66,3.66,0,0,0,3.89-3.79,3.62,3.62,0,0,0-3.67-3.74,4.24,4.24,0,0,0-3.5,1.81h-1.61l1.45-8.61h7.68v1.39h-6.33l-1,5.52a4.8,4.8,0,0,1,3.61-1.49,4.91,4.91,0,0,1,5,5.08,5.25,5.25,0,0,1-5.54,5.21A5,5,0,0,1,795.33,533.71Z"/>
    <path class="cls-2" d="M816.65,533.82h-7.3v-1.25l5.12-10.48H816l-5,10.46h5.65v-3.66h1.56v3.66h2.14v1.27h-2.14v3.68h-1.56Z"/>
    <path class="cls-2" d="M823.49,536.18l6.51-6.85a4.85,4.85,0,0,0,1.72-3.32,2.87,2.87,0,0,0-3.15-2.84,2.93,2.93,0,0,0-3.23,3.11v.35h-1.61v-.42c0-2.82,2-4.42,4.84-4.42s4.84,1.65,4.84,4.22c0,1.87-1.29,3.3-2.53,4.56l-5.43,5.54h8v1.39h-10Z"/>
    <path class="cls-2" d="M851,537.5h-1.63V525.4l-4.25,8.38h-1.63l-4.24-8.38v12.1h-1.63V522.09h1.6l5.09,10.17,5.08-10.17H851Z"/>
  </g>
  <line class="cls-3" x1="160" y1="488.99" x2="160" y2="503.15"/>
  <line class="cls-3" x1="160" y1="488.99" x2="160" y2="507.5"/>
  <line class="cls-3" x1="436.76" y1="488.99" x2="436.76" y2="503.15"/>
  <line class="cls-3" x1="436.76" y1="488.99" x2="436.76" y2="507.5"/>
  <line class="cls-3" x1="400.99" y1="488.99" x2="400.99" y2="497.5"/>
  <line class="cls-3" x1="297.22" y1="488.99" x2="297.22" y2="497.5"/>
  <line class="cls-3" x1="474.61" y1="488.99" x2="474.61" y2="497.5"/>
  <line class="cls-3" x1="531.72" y1="488.99" x2="531.72" y2="497.5"/>
  <line class="cls-3" x1="578.39" y1="488.99" x2="578.39" y2="497.5"/>
  <line class="cls-3" x1="617.84" y1="488.99" x2="617.84" y2="497.5"/>
  <line class="cls-3" x1="652.01" y1="488.99" x2="652.01" y2="497.5"/>
  <line class="cls-3" x1="682.16" y1="488.99" x2="682.16" y2="497.5"/>
  <line class="cls-3" x1="639.56" y1="488.99" x2="639.56" y2="507.5"/>
  <line class="cls-3" x1="819.96" y1="488.99" x2="819.96" y2="503.15"/>
  <line class="cls-3" x1="819.96" y1="488.99" x2="819.96" y2="507.5"/>
  <line class="cls-4" x1="160" y1="428.8" x2="140" y2="428.8"/>
  <line class="cls-4" x1="160" y1="368.62" x2="140" y2="368.62"/>
  <line class="cls-4" x1="160" y1="248.24" x2="140" y2="248.24"/>
  <line class="cls-4" x1="160" y1="127.87" x2="140" y2="127.87"/>
  <line class="cls-4" x1="160" y1="7.5" x2="140" y2="7.5"/>
  <polyline class="cls-5" points="819.96 488.99 160 488.99 160 7.5"/>
  <g>
    <path class="cls-2" d="M93.62,1.69H85.69V.31h9.66V1.5l-6.8,14.21H86.86Z"/>
    <path class="cls-2" d="M98,11.93h1.61a3.53,3.53,0,0,0,3.61,2.7,3.65,3.65,0,0,0,3.9-3.78,3.62,3.62,0,0,0-3.68-3.74,4.24,4.24,0,0,0-3.5,1.8H98.28L99.73.31h7.69V1.69h-6.34l-1,5.53a4.77,4.77,0,0,1,3.61-1.5,4.92,4.92,0,0,1,5,5.08A5.26,5.26,0,0,1,103.17,16,5,5,0,0,1,98,11.93Z"/>
    <path class="cls-2" d="M113.07,13.69a1.06,1.06,0,0,1,1.13,1.07,1.13,1.13,0,0,1-2.25,0A1,1,0,0,1,113.07,13.69Z"/>
    <path class="cls-2" d="M117.67,10.89V5.13c0-2.93,2-5.13,5.4-5.13s5.39,2.2,5.39,5.13v5.76c0,2.93-2,5.13-5.39,5.13S117.67,13.82,117.67,10.89Zm9.1.07V5.06a3.7,3.7,0,0,0-7.4,0V11a3.7,3.7,0,0,0,7.4,0Z"/>
  </g>
  <line class="cls-4" x1="160" y1="67.68" x2="140" y2="67.68"/>
  <g>
    <path class="cls-2" d="M94.14,61.88H86.22V60.5h9.66v1.18L89.08,75.9h-1.7Z"/>
    <path class="cls-2" d="M98.54,74.58l6.52-6.85a4.85,4.85,0,0,0,1.72-3.32,2.88,2.88,0,0,0-3.15-2.84,2.94,2.94,0,0,0-3.24,3.11V65h-1.6v-.42c0-2.82,2-4.42,4.84-4.42s4.85,1.65,4.85,4.22c0,1.87-1.3,3.3-2.54,4.56l-5.44,5.54h8V75.9h-10Z"/>
    <path class="cls-2" d="M113.32,73.87A1.05,1.05,0,0,1,114.44,75a1.13,1.13,0,0,1-2.25,0A1.05,1.05,0,0,1,113.32,73.87Z"/>
    <path class="cls-2" d="M117.87,72.11h1.61a3.53,3.53,0,0,0,3.61,2.71,3.77,3.77,0,1,0,.22-7.53,4.26,4.26,0,0,0-3.5,1.81H118.2l1.45-8.6h7.69v1.38H121l-1,5.52a4.8,4.8,0,0,1,3.61-1.49,4.92,4.92,0,0,1,5,5.08,5.26,5.26,0,0,1-5.55,5.22A5,5,0,0,1,117.87,72.11Z"/>
  </g>
  <g>
    <path class="cls-2" d="M93.31,122.07H85.38v-1.39h9.67v1.19l-6.81,14.21H86.55Z"/>
    <path class="cls-2" d="M97.69,131.27V125.5c0-2.92,2-5.12,5.39-5.12s5.39,2.2,5.39,5.12v5.77c0,2.92-2,5.12-5.39,5.12S97.69,134.19,97.69,131.27Zm9.09.06v-5.89a3.7,3.7,0,0,0-7.4,0v5.89a3.7,3.7,0,0,0,7.4,0Z"/>
    <path class="cls-2" d="M113.07,134.06a1.06,1.06,0,0,1,1.13,1.08,1.13,1.13,0,0,1-2.25,0A1.05,1.05,0,0,1,113.07,134.06Z"/>
    <path class="cls-2" d="M117.67,131.27V125.5c0-2.92,2-5.12,5.4-5.12s5.39,2.2,5.39,5.12v5.77c0,2.92-2,5.12-5.39,5.12S117.67,134.19,117.67,131.27Zm9.1.06v-5.89a3.7,3.7,0,0,0-7.4,0v5.89a3.7,3.7,0,0,0,7.4,0Z"/>
  </g>
  <line class="cls-4" x1="160" y1="188.06" x2="140" y2="188.06"/>
  <g>
    <path class="cls-2" d="M96.1,180.87l-4.47,6.8v0a3.84,3.84,0,0,1,3.11-1.36,4.8,4.8,0,0,1,4.84,5.06,5.24,5.24,0,0,1-5.37,5.19,5.07,5.07,0,0,1-5.37-5.13,8.46,8.46,0,0,1,1.63-4.53l3.83-6Zm-1.91,14.37a3.64,3.64,0,0,0,3.74-3.81,3.55,3.55,0,0,0-3.65-3.81,3.72,3.72,0,0,0-3.79,3.85A3.56,3.56,0,0,0,94.19,195.24Z"/>
    <path class="cls-2" d="M110.32,182.26H102.4v-1.39h9.66v1.19l-6.8,14.21h-1.7Z"/>
    <path class="cls-2" d="M113.31,194.25a1.05,1.05,0,0,1,1.13,1.08,1.13,1.13,0,0,1-2.25,0A1.05,1.05,0,0,1,113.31,194.25Z"/>
    <path class="cls-2" d="M117.87,192.49h1.61a3.53,3.53,0,0,0,3.61,2.7,3.65,3.65,0,0,0,3.9-3.78,3.62,3.62,0,0,0-3.68-3.74,4.25,4.25,0,0,0-3.5,1.8H118.2l1.45-8.6h7.69v1.39H121l-1,5.52a4.77,4.77,0,0,1,3.61-1.5,4.92,4.92,0,0,1,5,5.09,5.26,5.26,0,0,1-5.55,5.21A5.05,5.05,0,0,1,117.87,192.49Z"/>
  </g>
  <g>
    <path class="cls-2" d="M91.15,241.06l-4.47,6.8v0a3.8,3.8,0,0,1,3.1-1.37,4.8,4.8,0,0,1,4.85,5.06,5.25,5.25,0,0,1-5.37,5.2,5.08,5.08,0,0,1-5.38-5.13,8.54,8.54,0,0,1,1.63-4.53l3.83-6.05Zm-1.92,14.36a3.64,3.64,0,0,0,3.75-3.8,3.56,3.56,0,0,0-3.66-3.81,3.71,3.71,0,0,0-3.78,3.85A3.55,3.55,0,0,0,89.23,255.42Z"/>
    <path class="cls-2" d="M98,252.67h1.61a3.53,3.53,0,0,0,3.61,2.71,3.66,3.66,0,0,0,3.9-3.78,3.62,3.62,0,0,0-3.68-3.74,4.24,4.24,0,0,0-3.5,1.8H98.28l1.45-8.6h7.69v1.38h-6.34l-1,5.52a4.8,4.8,0,0,1,3.61-1.49,4.92,4.92,0,0,1,5,5.08,5.26,5.26,0,0,1-5.55,5.22A5,5,0,0,1,98,252.67Z"/>
    <path class="cls-2" d="M113.07,254.43a1.06,1.06,0,0,1,1.13,1.08,1.13,1.13,0,0,1-2.25,0A1.05,1.05,0,0,1,113.07,254.43Z"/>
    <path class="cls-2" d="M117.67,251.64v-5.76c0-2.93,2-5.13,5.4-5.13s5.39,2.2,5.39,5.13v5.76c0,2.93-2,5.13-5.39,5.13S117.67,254.57,117.67,251.64Zm9.1.07v-5.9a3.7,3.7,0,0,0-7.4,0v5.9a3.7,3.7,0,0,0,7.4,0Z"/>
  </g>
  <g>
    <path class="cls-2" d="M91,361.43l-4.47,6.8v0a3.84,3.84,0,0,1,3.11-1.36A4.8,4.8,0,0,1,94.43,372a5.25,5.25,0,0,1-5.37,5.19A5.07,5.07,0,0,1,83.69,372a8.53,8.53,0,0,1,1.62-4.53l3.84-6.05ZM89,375.8A3.64,3.64,0,0,0,92.78,372a3.56,3.56,0,0,0-3.66-3.81A3.71,3.71,0,0,0,85.34,372,3.56,3.56,0,0,0,89,375.8Z"/>
    <path class="cls-2" d="M97.69,372v-5.76c0-2.93,2-5.13,5.39-5.13s5.39,2.2,5.39,5.13V372c0,2.93-2,5.13-5.39,5.13S97.69,374.94,97.69,372Zm9.09.07v-5.9a3.7,3.7,0,0,0-7.4,0v5.9a3.7,3.7,0,0,0,7.4,0Z"/>
    <path class="cls-2" d="M113.07,374.81a1.06,1.06,0,0,1,1.13,1.07,1.13,1.13,0,0,1-2.25,0A1,1,0,0,1,113.07,374.81Z"/>
    <path class="cls-2" d="M117.67,372v-5.76c0-2.93,2-5.13,5.4-5.13s5.39,2.2,5.39,5.13V372c0,2.93-2,5.13-5.39,5.13S117.67,374.94,117.67,372Zm9.1.07v-5.9a3.7,3.7,0,0,0-7.4,0v5.9a3.7,3.7,0,0,0,7.4,0Z"/>
  </g>
  <line class="cls-4" x1="160" y1="308.43" x2="140" y2="308.43"/>
  <g>
    <path class="cls-2" d="M91.92,301.24,87.45,308v0a3.83,3.83,0,0,1,3.11-1.36,4.8,4.8,0,0,1,4.84,5.06A5.25,5.25,0,0,1,90,317a5.08,5.08,0,0,1-5.38-5.12,8.57,8.57,0,0,1,1.63-4.54l3.83-6.05ZM90,315.61a3.64,3.64,0,0,0,3.75-3.81,3.55,3.55,0,0,0-3.66-3.8,3.71,3.71,0,0,0-3.78,3.85A3.55,3.55,0,0,0,90,315.61Z"/>
    <path class="cls-2" d="M98.54,315.32l6.52-6.84a4.85,4.85,0,0,0,1.72-3.32,2.87,2.87,0,0,0-3.15-2.84,2.93,2.93,0,0,0-3.24,3.1v.35h-1.6v-.41c0-2.82,2-4.43,4.84-4.43s4.84,1.65,4.84,4.23c0,1.87-1.29,3.3-2.53,4.55l-5.44,5.55h8v1.38h-10Z"/>
    <path class="cls-2" d="M113.31,314.62a1.05,1.05,0,0,1,1.13,1.08,1.13,1.13,0,0,1-2.25,0A1.05,1.05,0,0,1,113.31,314.62Z"/>
    <path class="cls-2" d="M117.87,312.86h1.61a3.54,3.54,0,0,0,3.61,2.71,3.66,3.66,0,0,0,3.9-3.79,3.62,3.62,0,0,0-3.68-3.74,4.26,4.26,0,0,0-3.5,1.81H118.2l1.45-8.61h7.69v1.39H121l-1,5.52a4.77,4.77,0,0,1,3.61-1.49,4.92,4.92,0,0,1,5,5.08,5.25,5.25,0,0,1-5.55,5.21A5,5,0,0,1,117.87,312.86Z"/>
  </g>
  <g>
    <path class="cls-2" d="M89.1,433.23h1.61a3.53,3.53,0,0,0,3.61,2.71,3.66,3.66,0,0,0,3.9-3.78,3.62,3.62,0,0,0-3.68-3.74,4.24,4.24,0,0,0-3.5,1.8H89.43l1.45-8.6h7.69V423H92.23l-1,5.52A4.8,4.8,0,0,1,94.87,427a4.92,4.92,0,0,1,5,5.08,5.26,5.26,0,0,1-5.55,5.22A5,5,0,0,1,89.1,433.23Z"/>
    <path class="cls-2" d="M110.32,423H102.4v-1.38h9.66v1.18L105.26,437h-1.7Z"/>
    <path class="cls-2" d="M113.31,435a1.05,1.05,0,0,1,1.13,1.08,1.13,1.13,0,0,1-2.25,0A1.05,1.05,0,0,1,113.31,435Z"/>
    <path class="cls-2" d="M117.87,433.23h1.61a3.53,3.53,0,0,0,3.61,2.71,3.66,3.66,0,0,0,3.9-3.78,3.62,3.62,0,0,0-3.68-3.74,4.25,4.25,0,0,0-3.5,1.8H118.2l1.45-8.6h7.69V423H121l-1,5.52a4.8,4.8,0,0,1,3.61-1.49,4.92,4.92,0,0,1,5,5.08,5.26,5.26,0,0,1-5.55,5.22A5,5,0,0,1,117.87,433.23Z"/>
  </g>
  <line class="cls-4" x1="160" y1="488.99" x2="140" y2="488.99"/>
  <g>
    <path class="cls-2" d="M83.77,493.42h1.61A3.54,3.54,0,0,0,89,496.13a3.66,3.66,0,0,0,3.9-3.79,3.62,3.62,0,0,0-3.68-3.74,4.26,4.26,0,0,0-3.5,1.81H84.1l1.46-8.61h7.68v1.39H86.9l-1,5.52a4.78,4.78,0,0,1,3.61-1.49,4.92,4.92,0,0,1,5,5.08A5.25,5.25,0,0,1,89,497.51,5,5,0,0,1,83.77,493.42Z"/>
    <path class="cls-2" d="M98,493.42h1.61a3.54,3.54,0,0,0,3.61,2.71,3.66,3.66,0,0,0,3.9-3.79,3.62,3.62,0,0,0-3.68-3.74,4.24,4.24,0,0,0-3.5,1.81H98.28l1.45-8.61h7.69v1.39h-6.34l-1,5.52a4.77,4.77,0,0,1,3.61-1.49,4.92,4.92,0,0,1,5,5.08,5.25,5.25,0,0,1-5.55,5.21A5,5,0,0,1,98,493.42Z"/>
    <path class="cls-2" d="M113.07,495.18a1.06,1.06,0,0,1,1.13,1.08,1.13,1.13,0,0,1-2.25,0A1.05,1.05,0,0,1,113.07,495.18Z"/>
    <path class="cls-2" d="M117.67,492.39v-5.77c0-2.92,2-5.13,5.4-5.13s5.39,2.21,5.39,5.13v5.77c0,2.92-2,5.12-5.39,5.12S117.67,495.31,117.67,492.39Zm9.1.06v-5.89a3.7,3.7,0,0,0-7.4,0v5.89a3.7,3.7,0,0,0,7.4,0Z"/>
  </g>
  <g>
    <path class="cls-2" d="M338.4,558.6h2l10.39,15.52V558.6h2.05v18.9h-2L340.45,562V577.5H338.4Z"/>
    <path class="cls-2" d="M370.17,577.5h-1.94v-2.35c-.65,1.56-2.22,2.67-4.62,2.67-3,0-4.94-2.11-4.94-5.43v-8.71h2.05v8.42c0,2.35,1,4,3.4,4s4-1.43,4-4.29v-8.12h2.05Z"/>
    <path class="cls-2" d="M375.9,563.68h1.94V566a4.56,4.56,0,0,1,4.56-2.67,4.64,4.64,0,0,1,4.4,2.7,5.5,5.5,0,0,1,5-2.7c3,0,5,2.16,5,5.43v8.72h-2.05v-8.43c0-2.34-1.16-3.94-3.43-3.94s-3.94,1.38-3.94,4.24v8.13h-2.05v-8.43c0-2.34-1.16-3.94-3.43-3.94s-3.94,1.38-3.94,4.24v8.13H375.9Z"/>
    <path class="cls-2" d="M404.44,557.79v7.94a5.14,5.14,0,0,1,4.61-2.38c3.48,0,5.72,2.59,5.72,6.18v2.11c0,3.45-2.13,6.18-5.77,6.18a5.14,5.14,0,0,1-4.67-2.48v2.16h-1.95V557.79Zm8.28,11.82c0-2.53-1.43-4.58-4.05-4.58a4.26,4.26,0,0,0-4.23,4.58v1.79c0,2.67,1.48,4.75,4.21,4.75s4.07-2.06,4.07-4.59Z"/>
    <path class="cls-2" d="M419.15,571.8v-2.21c0-3.76,2.13-6.24,6-6.24s5.86,2.62,5.86,6v2h-9.91v.49c0,2.4,1.24,4.34,4.13,4.34a3.66,3.66,0,0,0,3.81-2.67h1.83a5.45,5.45,0,0,1-5.64,4.24C421.66,577.82,419.15,575.53,419.15,571.8Zm2-1.94h8v-.65c0-2.46-1.24-4.29-3.94-4.29-3,0-4.05,2-4.05,4.5Z"/>
    <path class="cls-2" d="M436.13,563.68h1.92v3.18c.51-2.13,2-3.27,4.51-3.27h.32v1.92h-.4c-2.62,0-4.29,1.73-4.29,5.21v6.78h-2.06Z"/>
    <path class="cls-2" d="M453.63,571.72v-2.27a6.17,6.17,0,0,1,12.34,0v2.27a6.17,6.17,0,0,1-12.34,0Zm6.18-6.72c-2.73,0-4.18,1.86-4.18,4.48v2.21c0,2.62,1.45,4.48,4.18,4.48s4.19-1.86,4.19-4.48v-2.21C464,566.86,462.54,565,459.81,565Z"/>
    <path class="cls-2" d="M471.85,565.35h-2v-1.67h2v-1.84c0-2.67,1.19-4.05,4-4.05h1.94v1.67H476c-1.46,0-2.1.68-2.1,2.22v2h3.4v1.67h-3.4V577.5h-2.06Z"/>
    <path class="cls-2" d="M489.3,558.6h7.39c4,0,6.43,2.59,6.43,6s-2.46,6-6.43,6H491.4v6.86h-2.1Zm7.2,10.29c3.11,0,4.51-2,4.51-4.3s-1.4-4.23-4.51-4.23h-5.1v8.53Z"/>
    <path class="cls-2" d="M516.46,577.5v-1.73a5.86,5.86,0,0,1-4.75,2.05c-3.27,0-5.24-1.84-5.24-4.35,0-2.67,2.18-4.31,5.48-4.31a6.08,6.08,0,0,1,4.43,1.72v-2.56a3.21,3.21,0,0,0-3.46-3.35,3.51,3.51,0,0,0-3.46,2.08h-1.88a5.23,5.23,0,0,1,5.37-3.7c3.43,0,5.48,2.24,5.48,5v9.18Zm-.08-4c0-1.73-2.06-3-4.13-3-2.3,0-3.84,1.08-3.84,3s1.59,3,3.73,3S516.38,575.23,516.38,573.45Z"/>
    <path class="cls-2" d="M524,563.68h1.92v3.18c.51-2.13,2-3.27,4.51-3.27h.32v1.92h-.41c-2.61,0-4.29,1.73-4.29,5.21v6.78h-2Z"/>
    <path class="cls-2" d="M543.43,577.5v-1.73a5.86,5.86,0,0,1-4.75,2.05c-3.27,0-5.24-1.84-5.24-4.35,0-2.67,2.19-4.31,5.48-4.31a6.06,6.06,0,0,1,4.43,1.72v-2.56a3.2,3.2,0,0,0-3.46-3.35,3.49,3.49,0,0,0-3.45,2.08h-1.89a5.23,5.23,0,0,1,5.37-3.7c3.43,0,5.48,2.24,5.48,5v9.18Zm-.08-4c0-1.73-2.05-3-4.13-3-2.3,0-3.84,1.08-3.84,3s1.6,3,3.73,3S543.35,575.23,543.35,573.45Z"/>
    <path class="cls-2" d="M551,563.68h1.95V566c.64-1.56,2.16-2.67,4.56-2.67a4.64,4.64,0,0,1,4.4,2.7,5.49,5.49,0,0,1,5-2.7c3,0,5,2.16,5,5.43v8.72H569.8v-8.43c0-2.34-1.16-3.94-3.42-3.94s-3.94,1.38-3.94,4.24v8.13h-2.06v-8.43c0-2.34-1.16-3.94-3.42-3.94s-4,1.38-4,4.24v8.13h-2Z"/>
    <path class="cls-2" d="M576.78,571.8v-2.21c0-3.76,2.13-6.24,6-6.24s5.86,2.62,5.86,6v2h-9.9v.49c0,2.4,1.24,4.34,4.13,4.34a3.66,3.66,0,0,0,3.8-2.67h1.84a5.46,5.46,0,0,1-5.64,4.24C579.29,577.82,576.78,575.53,576.78,571.8Zm2-1.94h8v-.65c0-2.46-1.25-4.29-4-4.29-3,0-4,2-4,4.5Z"/>
    <path class="cls-2" d="M598.56,577.5c-2.64,0-3.75-1.33-3.75-3.67v-8.48h-2.35v-1.67h2.35v-4h2.05v4h3.54v1.67h-3.54v8.48c0,1.4.52,2,2,2h1.38v1.68Z"/>
    <path class="cls-2" d="M604.29,571.8v-2.21c0-3.76,2.13-6.24,6-6.24s5.86,2.62,5.86,6v2h-9.91v.49c0,2.4,1.24,4.34,4.13,4.34a3.66,3.66,0,0,0,3.81-2.67H616a5.45,5.45,0,0,1-5.64,4.24C606.8,577.82,604.29,575.53,604.29,571.8Zm2-1.94h8v-.65c0-2.46-1.24-4.29-3.94-4.29-3,0-4,2-4,4.5Z"/>
    <path class="cls-2" d="M621.27,563.68h1.92v3.18c.51-2.13,2-3.27,4.51-3.27H628v1.92h-.41c-2.61,0-4.29,1.73-4.29,5.21v6.78h-2.05Z"/>
    <path class="cls-2" d="M631.37,573.47v-.13h1.86v.08c0,1.73,1.62,2.86,3.89,2.86s3.67-.84,3.67-2.62a1.93,1.93,0,0,0-1.73-1.91l-4.1-1c-2.05-.46-3.24-1.7-3.24-3.51,0-2.59,2.19-3.94,5.24-3.94,2.88,0,5.13,1.76,5.13,4.32v.14h-1.87v-.09c0-1.7-1.24-2.83-3.29-2.83s-3.32.81-3.32,2.35a1.68,1.68,0,0,0,1.46,1.78l4.24,1c2.13.51,3.4,1.56,3.4,3.56,0,2.46-2.38,4.24-5.62,4.24S631.37,576.15,631.37,573.47Z"/>
  </g>
  <g>
    <path class="cls-6" d="M171.52,235.27v-.39h1.63v.35c0,1.93,1.56,3.25,4.11,3.25s4.07-1.1,4.07-3a2.54,2.54,0,0,0-2.2-2.51l-4.36-1.15c-2.22-.57-3.05-1.87-3.05-3.63,0-2.73,2.15-4.31,5.32-4.31s5.39,1.78,5.39,4.4v.37h-1.6v-.33c0-1.82-1.41-3.08-3.79-3.08-2.16,0-3.67,1-3.67,2.82a2.2,2.2,0,0,0,1.91,2.35l4.47,1.19c1.89.51,3.23,1.76,3.23,3.74,0,2.82-2.44,4.56-5.72,4.56S171.52,238.09,171.52,235.27Z"/>
    <path class="cls-6" d="M193.43,239.85c-4.31,0-6.47-3.06-6.47-6.78v-2.46c0-3.72,2.16-6.78,6.47-6.78s6.47,3.06,6.47,6.78v2.46C199.9,236.79,197.74,239.85,193.43,239.85Zm4.75-6.69v-2.64c0-2.91-1.47-5.26-4.75-5.26s-4.75,2.35-4.75,5.26v2.64c0,2.9,1.47,5.26,4.75,5.26S198.18,236.06,198.18,233.16Z"/>
    <path class="cls-6" d="M207.31,225.57H202.6v-1.43h11.14v1.43H209v14h-1.72Z"/>
    <path class="cls-6" d="M228.26,239.54h-1.7l-1.4-3.92h-7.11l-1.39,3.92H215l5.78-15.4h1.72Zm-9.73-5.28h6.14l-3.06-8.56Z"/>
    <path class="cls-6" d="M176,248.73a20.7,20.7,0,0,0,0,20.16h-1.63a20.43,20.43,0,0,1,0-20.16Z"/>
    <path class="cls-6" d="M179,261.67v-.39h1.63v.35c0,1.93,1.56,3.25,4.12,3.25s4.07-1.1,4.07-3.05a2.54,2.54,0,0,0-2.2-2.51l-4.36-1.15c-2.22-.57-3.06-1.87-3.06-3.63,0-2.73,2.16-4.31,5.32-4.31s5.4,1.78,5.4,4.4V255h-1.61v-.33c0-1.82-1.41-3.08-3.79-3.08-2.15,0-3.67,1-3.67,2.82a2.2,2.2,0,0,0,1.91,2.35l4.47,1.19c1.89.51,3.24,1.76,3.24,3.74,0,2.82-2.45,4.56-5.72,4.56S179,264.49,179,261.67Z"/>
    <path class="cls-6" d="M197.61,252H192.9v-1.43H204V252h-4.71v14h-1.72Z"/>
    <path class="cls-6" d="M213.21,266.25c-4.31,0-6.47-3.06-6.47-6.78V257c0-3.72,2.16-6.78,6.47-6.78s6.47,3.06,6.47,6.78v2.46C219.68,263.19,217.52,266.25,213.21,266.25Zm4.75-6.69v-2.64c0-2.91-1.47-5.26-4.75-5.26s-4.75,2.35-4.75,5.26v2.64c0,2.9,1.47,5.26,4.75,5.26S218,262.46,218,259.56Z"/>
    <path class="cls-6" d="M224.32,250.54h6.36c3.38,0,5.17,2.18,5.17,4.91a4.66,4.66,0,0,1-3.33,4.59l3.35,5.9h-2l-3.12-5.63H226v5.63h-1.71Zm6.14,8.4a3.3,3.3,0,0,0,3.67-3.49,3.36,3.36,0,0,0-3.67-3.53H226v7Z"/>
    <path class="cls-6" d="M239.87,265.94v-1.32h3.81V251.86h-3.76v-1.32h9.24v1.32h-3.77v12.76h3.81v1.32Z"/>
    <path class="cls-6" d="M253.89,250.54h10.16V252H255.6v5.45h7.81v1.44H255.6v5.65h8.47v1.43H253.89Z"/>
    <path class="cls-6" d="M267.9,261.67v-.39h1.63v.35c0,1.93,1.56,3.25,4.11,3.25s4.07-1.1,4.07-3.05a2.54,2.54,0,0,0-2.2-2.51l-4.35-1.15c-2.23-.57-3.06-1.87-3.06-3.63,0-2.73,2.15-4.31,5.32-4.31s5.39,1.78,5.39,4.4V255h-1.6v-.33c0-1.82-1.41-3.08-3.79-3.08-2.15,0-3.67,1-3.67,2.82a2.2,2.2,0,0,0,1.91,2.35l4.47,1.19c1.89.51,3.23,1.76,3.23,3.74,0,2.82-2.44,4.56-5.72,4.56S267.9,264.49,267.9,261.67Z"/>
    <path class="cls-6" d="M289.28,259.54v-2.6c0-3.83,2.16-6.71,6.41-6.71a5.83,5.83,0,0,1,6.07,5.39h-1.65a4.24,4.24,0,0,0-4.45-4c-3.14,0-4.66,2.2-4.66,5.22v2.72c0,3,1.52,5.22,4.66,5.22a4.24,4.24,0,0,0,4.45-4h1.65a5.83,5.83,0,0,1-6.07,5.39C291.44,266.25,289.28,263.37,289.28,259.54Z"/>
    <path class="cls-6" d="M305.5,261.23v-1.85a5,5,0,0,1,10.05,0v1.85a5,5,0,0,1-10.05,0Zm5-5.48c-2.23,0-3.42,1.52-3.42,3.66v1.8c0,2.13,1.19,3.65,3.42,3.65s3.41-1.52,3.41-3.65v-1.8C314,257.27,312.76,255.75,310.54,255.75Z"/>
    <path class="cls-6" d="M319.66,254.67h1.57v2.6c.42-1.74,1.62-2.66,3.67-2.66h.27v1.56h-.33c-2.14,0-3.5,1.41-3.5,4.25v5.52h-1.68Z"/>
    <path class="cls-6" d="M328.53,269.77v-15.1h1.59v1.76a4.19,4.19,0,0,1,3.8-2c3,0,4.71,2.18,4.71,5v1.72c0,2.92-1.83,5-4.66,5a4.24,4.24,0,0,1-3.77-1.93v5.5ZM337,259.52c0-2.07-1-3.74-3.32-3.74s-3.44,1.69-3.44,3.87v1.45a3.49,3.49,0,0,0,3.46,3.74c2.13,0,3.3-1.67,3.3-3.74Z"/>
    <path class="cls-6" d="M352,265.94h-1.59V264a3.77,3.77,0,0,1-3.76,2.17c-2.47,0-4-1.71-4-4.42v-7.11h1.67v6.87c0,1.91.84,3.26,2.78,3.26s3.25-1.17,3.25-3.5v-6.63H352Z"/>
    <path class="cls-6" d="M356.14,262.66v-.11h1.52v.07c0,1.41,1.32,2.33,3.17,2.33s3-.68,3-2.13a1.58,1.58,0,0,0-1.41-1.57l-3.34-.77c-1.68-.37-2.64-1.38-2.64-2.86,0-2.11,1.78-3.21,4.26-3.21s4.19,1.43,4.19,3.52V258h-1.52V258c0-1.39-1-2.31-2.69-2.31s-2.7.66-2.7,1.91a1.36,1.36,0,0,0,1.18,1.45l3.46.82c1.74.41,2.77,1.27,2.77,2.9,0,2-1.94,3.45-4.58,3.45S356.14,264.84,356.14,262.66Z"/>
    <path class="cls-6" d="M375.5,250.54h1.72v14h7.9v1.43H375.5Z"/>
    <path class="cls-6" d="M402.5,265.94h-1.63v-12.1l-4.25,8.38H395l-4.24-8.38v12.1h-1.63v-15.4h1.6l5.09,10.16,5.08-10.16h1.61Z"/>
    <path class="cls-6" d="M406.85,262.66v-.11h1.52v.07c0,1.41,1.32,2.33,3.17,2.33s3-.68,3-2.13a1.58,1.58,0,0,0-1.41-1.57l-3.34-.77c-1.68-.37-2.65-1.38-2.65-2.86,0-2.11,1.79-3.21,4.27-3.21s4.18,1.43,4.18,3.52V258h-1.51V258c0-1.39-1-2.31-2.69-2.31s-2.7.66-2.7,1.91a1.36,1.36,0,0,0,1.18,1.45l3.46.82c1.74.41,2.77,1.27,2.77,2.9,0,2-1.94,3.45-4.58,3.45S406.85,264.84,406.85,262.66Z"/>
    <path class="cls-6" d="M420.36,248.73a20.43,20.43,0,0,1,0,20.16h-1.63a20.7,20.7,0,0,0,0-20.16Z"/>
  </g>
  <g>
    <path class="cls-7" d="M160,279.54H820"/>
    <path class="cls-8" d="M160,331.58l276.76-17.64,202.8-167.55L820,111.11"/>
    <path class="cls-9" d="M436.76,318.94a5,5,0,1,0-3.54-1.46A5,5,0,0,0,436.76,318.94Z"/>
    <path class="cls-9" d="M160,336.58a5,5,0,1,0-3.54-1.47A5,5,0,0,0,160,336.58Z"/>
    <path class="cls-9" d="M639.56,151.39a5,5,0,0,0,0-10,5,5,0,0,0,0,10Z"/>
    <path class="cls-9" d="M820,116.11a5,5,0,1,0-3.53-1.46A5,5,0,0,0,820,116.11Z"/>
  </g>
</svg>
