<?xml version="1.0" encoding="utf-8"?>
<!-- Generator: Adobe Illustrator 21.1.0, SVG Export Plug-In . SVG Version: 6.00 Build 0)  -->
<svg version="1.1" xmlns="http://www.w3.org/2000/svg" xmlns:xlink="http://www.w3.org/1999/xlink" x="0px" y="0px"
	 viewBox="0 0 408.8 101.3" style="enable-background:new 0 0 408.8 101.3;" xml:space="preserve">
<style type="text/css">
	.st0{opacity:0.59;fill:url(#SVGID_1_);enable-background:new    ;}
	.st1{opacity:0.85;fill:url(#Shape_2_copy_2_1_);enable-background:new    ;}
	.st2{opacity:0.5;fill:url(#Shape_1_copy_3_2_);enable-background:new    ;}
	.st3{opacity:0.5;fill:url(#Shape_1_copy_4_2_);enable-background:new    ;}
	.st4{fill:url(#Shape_2_copy_1_);}
	.st5{opacity:0.8;fill:url(#Shape_1_copy_4_3_);enable-background:new    ;}
	.st6{opacity:0.8;fill:url(#Shape_1_copy_3_3_);enable-background:new    ;}
	.st7{fill:#22273F;}
</style>
<g id="Layer_2_1_">
</g>
<g id="Layer_1">
	<g id="Layer_2">
	</g>
	
		<linearGradient id="SVGID_1_" gradientUnits="userSpaceOnUse" x1="72.9" y1="1075.9586" x2="72.9" y2="998.2996" gradientTransform="matrix(1 0 0 1 0 -976)">
		<stop  offset="0" style="stop-color:#D900FF"/>
		<stop  offset="7.194939e-02" style="stop-color:#D202F6"/>
		<stop  offset="0.1915" style="stop-color:#C008DC"/>
		<stop  offset="0.3125" style="stop-color:#A90FBC"/>
		<stop  offset="1" style="stop-color:#40EADC"/>
	</linearGradient>
	<path class="st0" d="M72.6,17.8L57.3,44.4l15.3,55.7l15.9-55.7L72.6,17.8z"/>
	
		<linearGradient id="Shape_2_copy_2_1_" gradientUnits="userSpaceOnUse" x1="72.9" y1="993.8" x2="72.9" y2="1055.1659" gradientTransform="matrix(1 0 0 1 0 -976)">
		<stop  offset="0" style="stop-color:#D900FF"/>
		<stop  offset="7.781940e-02" style="stop-color:#D202F6"/>
		<stop  offset="0.2072" style="stop-color:#C008DC"/>
		<stop  offset="0.338" style="stop-color:#A90FBC"/>
		<stop  offset="1" style="stop-color:#40EADC"/>
	</linearGradient>
	<path id="Shape_2_copy_2" class="st1" d="M72.6,17.8L57.3,44.4l15.3,33.3l15.9-33.3L72.6,17.8z"/>
	
		<linearGradient id="Shape_1_copy_3_2_" gradientUnits="userSpaceOnUse" x1="130.1" y1="1009.05" x2="80.3" y2="1009.05" gradientTransform="matrix(1 0 0 1 0 -976)">
		<stop  offset="0" style="stop-color:#D900FF"/>
		<stop  offset="9.485874e-02" style="stop-color:#D202F6"/>
		<stop  offset="0.2525" style="stop-color:#C008DC"/>
		<stop  offset="0.412" style="stop-color:#A90FBC"/>
		<stop  offset="1" style="stop-color:#40EADC"/>
	</linearGradient>
	<path id="Shape_1_copy_3_1_" class="st2" d="M80.3,23.3l49.8-1.6L94.7,44.4L80.3,23.3z"/>
	
		<linearGradient id="Shape_1_copy_4_2_" gradientUnits="userSpaceOnUse" x1="15.9" y1="1008.9" x2="66.2" y2="1008.9" gradientTransform="matrix(1 0 0 1 0 -976)">
		<stop  offset="0" style="stop-color:#D900FF"/>
		<stop  offset="9.485874e-02" style="stop-color:#D202F6"/>
		<stop  offset="0.2525" style="stop-color:#C008DC"/>
		<stop  offset="0.412" style="stop-color:#A90FBC"/>
		<stop  offset="1" style="stop-color:#40EADC"/>
	</linearGradient>
	<path id="Shape_1_copy_4_1_" class="st3" d="M66.2,23.1l-50.3-1.5l35.7,22.6L66.2,23.1z"/>
	
		<linearGradient id="Shape_2_copy_1_" gradientUnits="userSpaceOnUse" x1="72.75" y1="984.4714" x2="72.75" y2="1001.9612" gradientTransform="matrix(1 0 0 1 0 -976)">
		<stop  offset="0" style="stop-color:#D900FF"/>
		<stop  offset="6.159585e-02" style="stop-color:#D309F6"/>
		<stop  offset="0.1636" style="stop-color:#C320DC"/>
		<stop  offset="0.2585" style="stop-color:#B13BBF"/>
		<stop  offset="1" style="stop-color:#40EADC"/>
	</linearGradient>
	<path id="Shape_2_copy" class="st4" d="M76.2,8.4h-7.1l-4.3,4.2l7.8,12.2l8.1-12.2L76.2,8.4z"/>
	
		<linearGradient id="Shape_1_copy_4_3_" gradientUnits="userSpaceOnUse" x1="1.1" y1="993.2" x2="66.2" y2="993.2" gradientTransform="matrix(1 0 0 1 0 -976)">
		<stop  offset="0" style="stop-color:#D900FF"/>
		<stop  offset="9.485874e-02" style="stop-color:#D202F6"/>
		<stop  offset="0.2525" style="stop-color:#C008DC"/>
		<stop  offset="0.412" style="stop-color:#A90FBC"/>
		<stop  offset="1" style="stop-color:#40EADC"/>
	</linearGradient>
	<path id="Shape_1_copy_4" class="st5" d="M66.2,23L1.1,0.7l44.2,33L66.2,23z"/>
	
		<linearGradient id="Shape_1_copy_3_3_" gradientUnits="userSpaceOnUse" x1="144.8" y1="993.4" x2="80.3" y2="993.4" gradientTransform="matrix(1 0 0 1 0 -976)">
		<stop  offset="0" style="stop-color:#D900FF"/>
		<stop  offset="9.485874e-02" style="stop-color:#D202F6"/>
		<stop  offset="0.2525" style="stop-color:#C008DC"/>
		<stop  offset="0.412" style="stop-color:#A90FBC"/>
		<stop  offset="1" style="stop-color:#40EADC"/>
	</linearGradient>
	<path id="Shape_1_copy_3" class="st6" d="M80.3,23.3l64.5-22.5L101,34L80.3,23.3z"/>
	<g>
		<path class="st7" d="M175.8,29.4h7.6v35.8H177l-16.2-22.3v22.3h-7.6V29.4h7l15.7,21.8L175.8,29.4L175.8,29.4z"/>
		<path class="st7" d="M217.4,51.3c0,0.7,0,1.5-0.1,2.2h-20.9c0.3,1.9,1.1,3.3,2.3,4.3s2.7,1.5,4.5,1.5c1.3,0,2.4-0.3,3.5-0.8
			c1-0.6,1.8-1.3,2.4-2.3h7.8c-1,3-2.7,5.4-5.2,7.2c-2.5,1.8-5.3,2.7-8.5,2.7c-2.7,0-5.1-0.6-7.3-1.9c-2.2-1.3-3.9-3-5.1-5.2
			c-1.2-2.2-1.9-4.7-1.9-7.4s0.6-5.2,1.9-7.4c1.2-2.2,3-4,5.1-5.2c2.2-1.3,4.6-1.9,7.3-1.9c2.8,0,5.2,0.7,7.4,2s3.9,3.1,5.1,5.2
			C216.8,46.2,217.4,48.6,217.4,51.3z M203.2,43.2c-1.6,0-3,0.5-4.2,1.4c-1.1,0.9-1.9,2.2-2.4,3.8H210c-0.5-1.7-1.4-3-2.5-3.9
			S204.9,43.2,203.2,43.2z"/>
		<path class="st7" d="M235.3,65.9c-3.9,0-7-1.1-9.4-3.4c-2.4-2.3-3.6-5.3-3.6-9V37.6h7.5v15.1c0,2,0.5,3.5,1.5,4.6s2.3,1.7,4.1,1.7
			s3.1-0.6,4-1.7c1-1.1,1.4-2.6,1.4-4.6V37.6h7.5v15.9c0,3.7-1.2,6.7-3.5,9C242.4,64.8,239.2,65.9,235.3,65.9z"/>
		<path class="st7" d="M269.1,37.4h2.4v7h-3.2c-2.1,0-3.6,0.5-4.5,1.5s-1.4,2.6-1.4,4.9v14.3h-7.5V37.6h4.8L261,41
			C263,38.6,265.7,37.4,269.1,37.4z"/>
		<path class="st7" d="M288.3,65.9c-2.8,0-5.4-0.6-7.6-1.9c-2.3-1.3-4.1-3-5.3-5.2c-1.3-2.2-1.9-4.7-1.9-7.4c0-2.8,0.6-5.2,1.9-7.5
			c1.3-2.2,3.1-4,5.3-5.2c2.3-1.3,4.8-1.9,7.6-1.9c2.8,0,5.3,0.6,7.6,1.9c2.3,1.3,4.1,3,5.4,5.2s1.9,4.7,1.9,7.5
			c0,2.7-0.6,5.2-1.9,7.4s-3.1,4-5.4,5.2C293.6,65.3,291.1,65.9,288.3,65.9z M283,56.8c1.4,1.4,3.1,2.1,5.3,2.1
			c2.1,0,3.9-0.7,5.3-2.1s2.1-3.2,2.1-5.4s-0.7-4-2.1-5.4s-3.1-2.1-5.3-2.1c-2.1,0-3.9,0.7-5.3,2.1c-1.4,1.4-2.1,3.2-2.1,5.4
			S281.6,55.4,283,56.8z"/>
		<path class="st7" d="M333.2,48.9v16.3h-1.6v-16c0-6.6-3.6-10.5-9.5-10.5c-5.6,0-10.4,4.8-10.4,10.5v16.1H310V27.9h1.6v16
			c1.9-4,6.1-6.8,10.8-6.8C329,37.1,333.2,41.6,333.2,48.9z"/>
		<path class="st7" d="M342.3,28.6h2.4v2.8h-2.4V28.6z M342.7,37.6h1.6v27.6h-1.6V37.6z"/>
		<path class="st7" d="M376.8,37.6l-12.3,27.6h-1.4l-12.5-27.6h1.7l11.5,25.3l11.3-25.3H376.8z"/>
		<path class="st7" d="M407.5,51.9h-25.7c0.2,7.1,5.4,12.2,12.2,12.2c4.9,0,8.7-2.5,11-6.8h1.7c-2.6,5.5-7,8.4-12.7,8.4
			c-7.9,0-13.8-6.2-13.8-14.4c0-8.1,6-14.3,13.8-14.3c7.9,0,13.6,6.2,13.6,14.1C407.5,51.4,407.5,51.7,407.5,51.9z M393.9,38.6
			c-6.7,0-11.7,4.9-12.2,11.7h24.1C405.5,43.4,400.4,38.6,393.9,38.6L393.9,38.6z"/>
	</g>
</g>
</svg>
